<svg xmlns="http://www.w3.org/2000/svg" viewBox="10 0 192 45" role="img" aria-label="nf-metro">
  <!-- line A (light green, inner) -->
  <path d="M26 10.75 L42 10.75 Q48 10.75 50.68 16.11 L58.32 31.39 Q61 36.75 67 36.75 L186 36.75"
        fill="none" stroke="var(--nfm-line-a)" stroke-width="3" stroke-linecap="round" stroke-linejoin="round"/>
  <!-- line B (dark green, outer) -->
  <path d="M26 7.25 L145 7.25 Q151 7.25 153.68 12.61 L161.32 27.89 Q164 33.25 170 33.25 L186 33.25"
        fill="none" stroke="var(--nfm-line-b)" stroke-width="3" stroke-linecap="round" stroke-linejoin="round"/>
  <!-- capsule interchange stations -->
  <rect x="21.5" y="1.5" width="9" height="15" rx="4.5" ry="4.5" fill="var(--nfm-bg)" stroke="var(--nfm-ink)" stroke-width="2"/>
  <rect x="181.5" y="27.5" width="9" height="15" rx="4.5" ry="4.5" fill="var(--nfm-bg)" stroke="var(--nfm-ink)" stroke-width="2"/>
  <!-- wordmark "nf-metro": outlines drawn from the Railway typeface
       (Greg Fleming, SIL OFL 1.1). As artwork these outlines aren't bound by the
       OFL, and the font itself is no longer shipped, so no license file is bundled. -->
  <path fill="var(--nfm-ink)" d="M77.34 29.00H75.44V23.59Q75.44 23.22 75.28 22.89Q75.12 22.56 74.83 22.31Q74.55 22.07 74.17 21.92Q73.79 21.78 73.35 21.78Q72.63 21.78 72.02 22.01Q71.41 22.24 71.03 22.62V29.00H69.13V19.98H71.03V20.53Q71.54 20.22 72.13 20.05Q72.72 19.88 73.37 19.88Q74.17 19.88 74.88 20.17Q75.59 20.47 76.14 20.98Q76.69 21.50 77.02 22.17Q77.34 22.84 77.34 23.59Z M84.75 17.54Q84.22 17.24 83.77 17.19Q83.32 17.14 82.89 17.14Q82.35 17.14 82.01 17.66Q81.67 18.17 81.67 18.89V20.28H84.67V22.20H81.67V28.96H79.77V22.18H78.25V20.30H79.77V18.51Q79.77 17.85 80.02 17.26Q80.26 16.67 80.68 16.23Q81.10 15.79 81.66 15.54Q82.22 15.28 82.87 15.28Q83.30 15.28 83.82 15.40Q84.33 15.51 84.75 15.66Z M91.49 24.82H85.58V22.73H91.49Z M107.32 29.00H105.42V23.64Q105.42 23.28 105.26 22.95Q105.10 22.62 104.81 22.37Q104.53 22.12 104.15 21.98Q103.77 21.84 103.33 21.84Q102.72 21.84 102.17 22.16Q101.62 22.48 101.18 23.03V29.00H99.28V23.64Q99.28 23.28 99.12 22.95Q98.96 22.62 98.68 22.37Q98.39 22.12 98.01 21.98Q97.63 21.84 97.19 21.84Q96.55 21.84 96.01 22.05Q95.46 22.25 95.10 22.62V29.00H93.17V19.98H95.12V20.53Q95.64 20.22 96.22 20.05Q96.81 19.88 97.46 19.88Q98.28 19.88 99.00 20.26Q99.72 20.64 100.25 21.25Q101.01 20.60 101.85 20.24Q102.68 19.88 103.60 19.88Q104.34 19.88 105.01 20.18Q105.69 20.49 106.20 21.00Q106.71 21.51 107.02 22.20Q107.32 22.88 107.32 23.64Z M115.62 22.90Q115.62 22.60 115.43 22.31Q115.24 22.03 114.93 21.82Q114.62 21.61 114.20 21.48Q113.78 21.34 113.31 21.34Q112.45 21.34 111.77 21.79Q111.08 22.24 110.76 22.90ZM117.79 24.73Q117.79 24.73 110.61 24.73Q110.72 25.28 111.02 25.75Q111.31 26.23 111.74 26.57Q112.17 26.91 112.72 27.11Q113.27 27.31 113.88 27.31Q114.86 27.31 115.73 26.99Q116.59 26.66 117.20 26.15V28.13Q116.42 28.62 115.50 28.91Q114.58 29.19 113.59 29.19Q112.56 29.19 111.66 28.79Q110.76 28.39 110.09 27.71Q109.43 27.02 109.04 26.10Q108.65 25.18 108.65 24.16Q108.65 23.20 109.02 22.37Q109.39 21.53 110.03 20.91Q110.66 20.28 111.51 19.91Q112.36 19.54 113.32 19.54Q114.24 19.54 115.11 19.82Q115.98 20.11 116.63 20.73Q117.28 21.36 117.61 22.35Q117.94 23.34 117.79 24.73Z M126.28 21.88H122.46V25.62Q122.46 26.36 122.84 26.83Q123.22 27.31 123.79 27.31Q124.29 27.31 124.86 27.13Q125.43 26.95 125.86 26.62V28.54Q125.43 28.85 124.86 29.03Q124.29 29.21 123.79 29.21Q123.11 29.21 122.52 28.98Q121.93 28.75 121.49 28.34Q121.06 27.94 120.81 27.38Q120.56 26.83 120.56 26.19V21.88H118.68V19.98H120.56V18.17H122.46V19.98H126.28Z M133.20 22.75Q132.65 22.18 132.17 22.07Q131.70 21.95 131.45 21.95Q131.15 21.95 130.85 22.00Q130.56 22.05 130.27 22.19Q129.99 22.33 129.74 22.61Q129.49 22.88 129.28 23.34V29.00H127.40V19.98H129.30V20.73Q130.37 19.88 131.47 19.88Q131.96 19.88 132.39 20.00Q132.82 20.13 133.20 20.34Z M141.39 24.50Q141.39 23.95 141.17 23.45Q140.95 22.96 140.57 22.59Q140.19 22.22 139.70 22.00Q139.20 21.78 138.63 21.78Q138.06 21.78 137.56 22.00Q137.06 22.22 136.69 22.59Q136.31 22.96 136.10 23.46Q135.88 23.96 135.88 24.52Q135.88 25.09 136.10 25.60Q136.31 26.11 136.69 26.48Q137.06 26.85 137.56 27.07Q138.06 27.29 138.63 27.29Q139.20 27.29 139.70 27.07Q140.19 26.85 140.57 26.47Q140.95 26.09 141.17 25.58Q141.39 25.07 141.39 24.50ZM143.29 24.50Q143.29 25.47 142.92 26.32Q142.55 27.18 141.91 27.81Q141.27 28.45 140.43 28.82Q139.58 29.19 138.63 29.19Q137.66 29.19 136.82 28.82Q135.97 28.45 135.35 27.81Q134.72 27.18 134.35 26.32Q133.98 25.47 133.98 24.50Q133.98 23.55 134.35 22.71Q134.72 21.88 135.36 21.25Q135.99 20.62 136.84 20.25Q137.68 19.88 138.65 19.88Q139.60 19.88 140.45 20.25Q141.29 20.62 141.92 21.25Q142.55 21.88 142.92 22.71Q143.29 23.55 143.29 24.50Z"/>
</svg>
