<svg width="387" height="79" viewBox="0 0 387 79" fill="none" xmlns="http://www.w3.org/2000/svg">
<g clip-path="url(#clip0_1371_4818)">
<path d="M66.8223 40.8993L66.9325 40.9436L67.0428 40.9878L67.1467 41.0383L67.2507 41.0952L67.3514 41.1521L67.4522 41.2153L67.5467 41.288L67.6381 41.3575L67.7231 41.4365L67.8113 41.5155L67.8932 41.6039L67.9688 41.6893L68.0444 41.784L68.1105 41.8788L68.1766 41.98L68.2333 42.0779L68.2869 42.1853L68.3373 42.2896L68.3814 42.397L68.4255 42.5076L68.457 42.6214L68.4884 42.732L68.5105 42.852L68.5325 42.9658L68.5451 43.0859L68.5514 43.1996L68.5546 43.3165L68.5514 43.4366L68.5451 43.5535L68.5325 43.6704L68.5105 43.7873L68.4884 43.9011L68.457 44.018L68.4255 44.1286L68.3814 44.2423L68.3373 44.3498L68.2869 44.454L68.2333 44.5583L68.1766 44.6594L68.1105 44.7605L68.0444 44.8553L67.9688 44.9438L67.8932 45.0354L67.8113 45.1176L67.7231 45.2029L67.6381 45.2819L67.5467 45.3514L67.4522 45.4178L67.3514 45.4873L67.2507 45.5441L67.1467 45.601L67.0428 45.6484L66.9325 45.6958L66.8223 45.7337L66.7121 45.7716L66.5987 45.7969L66.4853 45.8254L66.3656 45.8412L66.2522 45.8538L66.1325 45.8664H66.1136L66.2333 45.8633L66.4475 45.8538L66.6617 45.8412L66.8759 45.8222L67.0869 45.7938L67.301 45.7622L67.5121 45.7274L67.7231 45.6832L67.931 45.6358L68.142 45.5821L68.3499 45.522L68.5546 45.4557L68.7562 45.3862L68.9577 45.3103L69.1562 45.2282L69.3546 45.1429L69.5499 45.0512L69.742 44.9533L69.931 44.8522L70.1168 44.7447L70.2995 44.631L70.4822 44.5172L70.6585 44.3972L70.8349 44.2676L71.005 44.1349L71.1719 44.0022L71.3357 43.86L71.4963 43.7147L71.6507 43.5693L71.805 43.4145L71.953 43.2596L72.0948 43.0985L72.2333 42.9342L72.3688 42.7667L72.5011 42.5929L72.627 42.4192L72.7467 42.2422L72.8664 42.0589L72.9766 41.8757L73.0837 41.6861L73.1877 41.4965L73.2822 41.3069L73.3735 41.111L73.4585 40.912L73.5404 40.7129L73.616 40.5107L73.6885 40.3053L73.7514 40.0999L73.8113 39.8914L73.8648 39.6828L73.9121 39.4743L73.9562 39.2594L73.994 39.0477L74.0255 38.836L74.0475 38.6211L74.0696 38.4063L74.0853 38.1883L74.0916 37.9734L74.0948 37.7585L74.0916 37.5437L74.0853 37.3256L74.0696 37.1108L74.0475 36.8959L74.0255 36.6842L73.994 36.4694L73.9562 36.2545L73.9121 36.0459L73.8648 35.8342L73.8239 35.6731H66.1672L66.016 35.6763H47.9058L66.69 40.8614L66.8223 40.8993Z" fill="#201637"/>
<path d="M78.6993 42.7799L78.6835 42.5081L78.6646 42.2395L78.6394 41.9678L78.6079 41.6992L78.5733 41.4338L78.5292 41.1652L78.4788 40.8998L78.4284 40.6344L78.3686 40.3721L78.3024 40.1099L78.2331 39.8476L78.1544 39.5885L78.0725 39.3326L77.9875 39.0735L77.893 38.8207L77.7953 38.5711L77.6914 38.3183L77.5843 38.0718L77.4709 37.8254L77.3544 37.5821L77.2284 37.3451L77.0993 37.1049L76.9638 36.8711L76.8252 36.6373L76.6835 36.4098L76.5323 36.1823L76.3812 35.9611L76.2237 35.7431L76.1701 35.6736H73.8237L73.8646 35.8347L73.9119 36.0464L73.956 36.255L73.9937 36.4698L74.0252 36.6847L74.0473 36.8964L74.0693 37.1113L74.0851 37.3261L74.0914 37.5442L74.0945 37.759L74.0914 37.9739L74.0851 38.1887L74.0693 38.4068L74.0473 38.6216L74.0252 38.8365L73.9937 39.0482L73.956 39.2599L73.9119 39.4748L73.8646 39.6833L73.8111 39.8918L73.7512 40.1004L73.6882 40.3058L73.6158 40.5112L73.5402 40.7134L73.4583 40.9124L73.3733 41.1115L73.2819 41.3074L73.1874 41.497L73.0835 41.6866L72.9764 41.8762L72.8662 42.0594L72.7465 42.2427L72.6268 42.4196L72.5008 42.5934L72.3686 42.7672L72.2331 42.9347L72.0945 43.099L71.9528 43.2601L71.8048 43.415L71.6504 43.5698L71.4961 43.7151L71.3355 43.8605L71.1717 44.0027L71.0048 44.1354L70.8347 44.2681L70.6583 44.3976L70.4819 44.5177L70.2993 44.6315L70.1166 44.7452L69.9308 44.8526L69.7418 44.9538L69.5497 45.0517L69.3544 45.1433L69.156 45.2287L68.9575 45.3108L68.756 45.3866L68.5544 45.4562L68.3496 45.5225L68.1418 45.5825L67.9308 45.6363L67.7229 45.6837L67.5119 45.7279L67.3008 45.7627L67.0867 45.7943L66.8756 45.8227L66.6615 45.8417L66.4473 45.8543L66.2331 45.8638L66.0158 45.8669H0V56.0603H66.0158L66.2867 56.0571L66.5544 56.0508L66.8252 56.035L67.093 56.0129L67.3607 55.9876L67.6284 55.9592L67.8961 55.9181L68.1607 55.877L68.4252 55.8296L68.6898 55.7727L68.9544 55.7127L69.2126 55.6495L69.4741 55.5768L69.7355 55.501L69.9906 55.422L70.2457 55.3304L70.4977 55.2387L70.7497 55.1408L70.9985 55.0397L71.2441 54.9322L71.4898 54.8153L71.7323 54.6953L71.9717 54.572L72.2079 54.4425L72.441 54.3098L72.6741 54.1676L72.8977 54.0254L73.1245 53.8769L73.3481 53.7221L73.5654 53.5641L73.7796 53.3998L73.9906 53.2323L74.2016 53.0585L74.4063 52.8816L74.6048 52.7046L74.8001 52.5182L74.9922 52.3286L75.1812 52.1359L75.3638 51.9368L75.5465 51.7377L75.7229 51.5324L75.893 51.3238L76.0599 51.1121L76.2237 50.8941L76.3812 50.6761L76.5323 50.4549L76.6835 50.2274L76.8252 49.9999L76.9638 49.7661L77.0993 49.5322L77.2284 49.2953L77.3544 49.0551L77.4709 48.8118L77.5843 48.5685L77.6914 48.3189L77.7953 48.0693L77.893 47.8197L77.9875 47.5637L78.0725 47.3078L78.1544 47.0518L78.2331 46.7896L78.3024 46.5305L78.3686 46.2682L78.4284 46.0028L78.4788 45.7405L78.5292 45.4751L78.5733 45.2065L78.6079 44.938L78.6394 44.6694L78.6646 44.4008L78.6835 44.1291L78.6993 43.8605L78.7087 43.5919L78.7119 43.3202L78.7087 43.0484L78.6993 42.7799Z" fill="#0DC09D"/>
<path d="M11.8901 38.0912L11.7799 38.0501L11.6696 38.0058L11.5657 37.9553L11.4586 37.8984L11.361 37.8384L11.2602 37.7752L11.1657 37.7057L11.0744 37.633L10.9862 37.554L10.9011 37.475L10.8193 37.3897L10.7437 37.3012L10.6681 37.2064L10.6019 37.1116L10.5358 37.0137L10.4791 36.9157L10.4256 36.8083L10.372 36.7009L10.3311 36.5966L10.287 36.486L10.2555 36.3691L10.224 36.2585L10.1988 36.1416L10.1799 36.0278L10.1673 35.9078L10.161 35.794L10.1578 35.674L10.161 35.557L10.1673 35.437L10.1799 35.3232L10.1988 35.2063L10.224 35.0894L10.2555 34.9757L10.287 34.8651L10.3311 34.7513L10.372 34.6439L10.4256 34.5364L10.4791 34.4353L10.5358 34.3311L10.6019 34.2331L10.6681 34.1383L10.7437 34.0467L10.8193 33.9582L10.9011 33.8729L10.9862 33.7907L11.0744 33.7118L11.1657 33.6422L11.2602 33.5727L11.361 33.5064L11.4586 33.4463L11.5657 33.3926L11.6696 33.3452L11.7799 33.2978L11.8901 33.2567L12.0004 33.222L12.1137 33.1936L12.2271 33.1683L12.3468 33.1525L12.4602 33.1398L12.5767 33.1272H12.5988H12.4791L12.2649 33.1367L12.0508 33.1525L11.8366 33.1714L11.6256 33.1967L11.4114 33.2283L11.1972 33.2662L10.9893 33.3073L10.7783 33.3579L10.5704 33.4116L10.3626 33.4716L10.1578 33.538L9.95626 33.6075L9.75154 33.6802L9.55626 33.7623L9.35784 33.8508L9.16256 33.9424L8.97043 34.0404L8.77831 34.1415L8.59563 34.2457L8.41295 34.3595L8.23028 34.4764L8.05075 34.5965L7.87752 34.726L7.70429 34.8556L7.54051 34.9914L7.37673 35.1305L7.2161 35.2758L7.06177 35.4243L6.90744 35.576L6.75941 35.734L6.61768 35.892L6.47594 36.0563L6.34366 36.2269L6.20823 36.3975L6.08539 36.5713L5.96256 36.7514L5.84602 36.9315L5.73579 37.118L5.6287 37.3044L5.52476 37.4971L5.43027 37.6867L5.33894 37.8826L5.2539 38.0817L5.17201 38.2807L5.09642 38.483L5.02398 38.6884L4.96098 38.8937L4.90114 39.1023L4.8476 39.3077L4.80035 39.5194L4.75626 39.7311L4.71846 39.9459L4.68697 40.1576L4.66492 40.3725L4.64287 40.5842L4.62712 40.8022L4.62083 41.0171L4.61768 41.232L4.62083 41.45L4.62712 41.6648L4.64287 41.8797L4.66492 42.0946L4.68697 42.3094L4.71846 42.5243L4.75626 42.736L4.80035 42.9477L4.8476 43.1562L4.88854 43.3205H12.5452L12.6964 43.3174H30.8067L12.0224 38.1322L11.8901 38.0912Z" fill="#201637"/>
<path d="M0.0125984 36.2138L0.0251969 36.4855L0.0472441 36.7541L0.072441 37.0227L0.103937 37.2912L0.138583 37.5598L0.182677 37.8252L0.229921 38.0938L0.283465 38.3592L0.343307 38.6215L0.409449 38.8838L0.47874 39.146L0.557481 39.4051L0.63937 39.661L0.72441 39.917L0.818898 40.1729L0.916536 40.4225L1.02047 40.6753L1.12756 40.9218L1.24095 41.1682L1.35748 41.4084L1.48347 41.6485L1.6126 41.8887L1.74803 42.1225L1.88662 42.3532L2.02835 42.5807L2.17638 42.8082L2.33071 43.0325L2.48819 43.2505L2.54173 43.32H4.88819L4.84725 43.1557L4.8 42.9472L4.75591 42.7355L4.71811 42.5238L4.68662 42.3089L4.66457 42.0941L4.64252 41.8792L4.62677 41.6643L4.62048 41.4495L4.61733 41.2314L4.62048 41.0166L4.62677 40.8017L4.64252 40.5837L4.66457 40.372L4.68662 40.1571L4.71811 39.9454L4.75591 39.7306L4.8 39.5189L4.84725 39.3072L4.90079 39.1018L4.96063 38.8932L5.02363 38.6878L5.09607 38.4825L5.17166 38.2802L5.25355 38.0812L5.33859 37.8821L5.42992 37.6862L5.52441 37.4966L5.62835 37.3039L5.73544 37.1175L5.84567 36.931L5.96221 36.7509L6.08504 36.5708L6.20788 36.397L6.34331 36.2264L6.47559 36.0558L6.61733 35.8915L6.75906 35.7335L6.90709 35.5755L7.06142 35.4238L7.21575 35.2753L7.37638 35.13L7.54016 34.9909L7.70394 34.8551L7.87717 34.7255L8.0504 34.596L8.22993 34.4759L8.4126 34.359L8.59528 34.2452L8.77796 34.141L8.97008 34.0399L9.16221 33.9419L9.35749 33.8503L9.55591 33.7618L9.75119 33.6796L9.95591 33.607L10.1575 33.5375L10.3622 33.4711L10.5701 33.4111L10.778 33.3574L10.989 33.3068L11.1969 33.2657L11.411 33.2278L11.6252 33.1962L11.8362 33.1709L12.0504 33.152L12.2646 33.1362L12.4787 33.1267L12.6961 33.1235H78.7119V22.9333H12.6961L12.4252 22.9365L12.1575 22.9428L11.8866 22.9586L11.6189 22.9776L11.348 23.0029L11.0835 23.0345L10.8158 23.0724L10.5512 23.1135L10.2866 23.164L10.0189 23.2177L9.75749 23.2778L9.49607 23.3441L9.2378 23.4136L8.97638 23.4926L8.72127 23.5716L8.46615 23.6601L8.21418 23.7517L7.96221 23.8528L7.71339 23.9539L7.46772 24.0614L7.22205 24.1783L6.97953 24.2984L6.74016 24.4184L6.50394 24.5511L6.27087 24.6838L6.0378 24.8229L5.81103 24.9682L5.58426 25.1167L5.36378 25.2716L5.14646 25.4296L4.92914 25.5907L4.72126 25.7582L4.51024 25.9319L4.30551 26.1089L4.10709 26.289L3.91181 26.4754L3.71969 26.6618L3.53071 26.8578L3.34488 27.0568L3.16536 27.2559L2.98898 27.4613L2.8189 27.6698L2.65197 27.8815L2.48819 28.0964L2.33071 28.3176L2.17638 28.5387L2.02835 28.7631L1.88662 28.9937L1.74803 29.2276L1.6126 29.4614L1.48347 29.6952L1.35748 29.9353L1.24095 30.1818L1.12756 30.4251L1.02047 30.6747L0.916536 30.9212L0.818898 31.174L0.72441 31.4267L0.63937 31.6827L0.557481 31.9418L0.47874 32.2009L0.409449 32.4631L0.343307 32.7254L0.283465 32.9908L0.229921 33.2531L0.182677 33.5185L0.138583 33.7871L0.103937 34.0557L0.072441 34.3242L0.0472441 34.5928L0.0251969 34.8614L0.0125984 35.13L0 35.4017V35.6734V35.9452L0.0125984 36.2138Z" fill="#0DC09D"/>
<path d="M11.8896 15.1605L11.7794 15.1162L11.6692 15.0688L11.5621 15.0215L11.4613 14.9646L11.3573 14.9077L11.2597 14.8445L11.1652 14.7718L11.0707 14.7023L10.9825 14.6233L10.8975 14.5443L10.8188 14.4559L10.7432 14.3705L10.6676 14.2758L10.5983 14.181L10.5353 14.0798L10.4755 13.9787L10.4219 13.8745L10.3684 13.7702L10.3274 13.6628L10.2865 13.549L10.2518 13.4384L10.2235 13.3278L10.1983 13.2078L10.1794 13.094L10.1636 12.9739L10.1605 12.857L10.1573 12.737L10.1605 12.62L10.1636 12.5063L10.1794 12.3894L10.1983 12.2725L10.2235 12.1587L10.2518 12.0418L10.2865 11.9281L10.3274 11.8175L10.3684 11.71L10.4219 11.6058L10.4755 11.4983L10.5353 11.4004L10.5983 11.2993L10.6676 11.2045L10.7432 11.116L10.8188 11.0244L10.8975 10.9359L10.9825 10.8569L11.0707 10.7779L11.1652 10.7084L11.2597 10.642L11.3573 10.5725L11.4613 10.5157L11.5621 10.4588L11.6692 10.4082L11.7794 10.364L11.8896 10.3261L11.9999 10.2882L12.1133 10.2566L12.2298 10.2344L12.3432 10.2155L12.4597 10.2028L12.5794 10.1934H12.6172H12.4786L12.2644 10.2028L12.0503 10.2186L11.8361 10.2376L11.6251 10.266L11.4109 10.2976L11.1967 10.3324L10.9888 10.3766L10.7778 10.424L10.5699 10.4777L10.3621 10.5378L10.1573 10.6041L9.95577 10.6736L9.75105 10.7495L9.55577 10.8285L9.35735 10.9169L9.16207 11.0086L8.96995 11.1065L8.77782 11.2076L8.59514 11.3119L8.40932 11.4257L8.22979 11.5426L8.05026 11.6626L7.87703 11.7922L7.7038 11.9217L7.53687 12.0576L7.37624 12.1998L7.21561 12.342L7.05813 12.4905L6.90695 12.6422L6.75892 12.8002L6.61719 12.9613L6.47546 13.1256L6.34317 13.2931L6.20774 13.4669L6.0849 13.6406L5.96207 13.8176L5.84553 13.9977L5.7353 14.1841L5.62821 14.3705L5.52428 14.5633L5.42979 14.7529L5.33845 14.9488L5.25341 15.1478L5.17152 15.3469L5.09593 15.5491L5.02349 15.7545L4.96049 15.9599L4.90065 16.1684L4.84711 16.377L4.79672 16.5855L4.75577 16.7972L4.71797 17.0121L4.68648 17.2238L4.66128 17.4387L4.64238 17.6504L4.62664 17.8684L4.62034 18.0864L4.61719 18.3013L4.62034 18.5161L4.62664 18.7342L4.64238 18.949L4.66128 19.1639L4.68648 19.3756L4.71797 19.5904L4.75577 19.8053L4.79672 20.0139L4.84711 20.2256L4.90065 20.4341L4.96049 20.6395L5.02349 20.848L5.09593 21.0503L5.17152 21.2525L5.25341 21.4515L5.33845 21.6506L5.42979 21.8465L5.52428 22.0393L5.58727 22.1498L5.59357 22.1467L5.85813 22.0108L6.1227 21.8813L6.39042 21.7549L6.66128 21.638L6.93215 21.5179L7.20932 21.4105L7.48333 21.3094L7.76365 21.2051L8.04396 21.1166L8.32743 21.0281L8.61089 20.946L8.89436 20.867L9.18097 20.7943L9.47073 20.7311L9.7605 20.6742L10.0471 20.6174L10.34 20.57L10.6329 20.5257L10.9259 20.4878L11.2219 20.4562L11.5148 20.4309L11.8109 20.4088L12.1007 20.3962L12.403 20.3899L12.6959 20.3835H30.8062L12.0188 15.1984L11.8896 15.1605Z" fill="#201637"/>
<path d="M66.0155 68.8068H66.2328L66.447 68.7942L66.6612 68.7815L66.8754 68.7626L67.0895 68.7341L67.3037 68.7025L67.5147 68.6678L67.7258 68.6235L67.9336 68.5761L68.1447 68.5224L68.3494 68.4624L68.5541 68.396L68.7588 68.3265L68.9604 68.2507L69.1557 68.1685L69.3541 68.0832L69.5494 67.9916L69.7415 67.8936L69.9336 67.7925L70.1195 67.6851L70.3021 67.5713L70.4817 67.4544L70.6612 67.3344L70.8376 67.208L71.0076 67.0753L71.1746 66.9425L71.3384 66.8004L71.4958 66.655L71.6533 66.5097L71.8045 66.3548L71.9525 66.2L72.0974 66.0389L72.236 65.8746L72.3714 65.7071L72.5037 65.5333L72.6265 65.3595L72.7494 65.1826L72.8659 64.9993L72.9762 64.816L73.0832 64.6265L73.1872 64.4369L73.2848 64.2441L73.3762 64.0514L73.458 63.8523L73.5431 63.6501L73.6155 63.451L73.688 63.2456L73.7541 63.0403L73.8108 62.8317L73.8675 62.6232L73.9147 62.4146L73.9557 62.1998L73.9935 61.9881L74.025 61.7764L74.0502 61.5583L74.0722 61.3466L74.0848 61.1286L74.0943 60.9137V60.6989V60.484L74.0848 60.266L74.0722 60.0511L74.0502 59.8363L74.025 59.6246L73.9935 59.4097L73.9557 59.1948L73.9147 58.9863L73.8675 58.7746L73.8108 58.5661L73.7541 58.3607L73.688 58.1521L73.6155 57.9467L73.5431 57.7477L73.458 57.5486L73.3762 57.3496L73.2848 57.1537L73.1872 56.9609L73.1242 56.844L73.1179 56.8472L72.8533 56.983L72.5888 57.1126L72.321 57.239L72.0502 57.359L71.7762 57.4728L71.5021 57.5834L71.2281 57.6845L70.9478 57.7856L70.6643 57.8804L70.384 57.9657L70.1037 58.0479L69.8139 58.1269L69.5305 58.1964L69.2407 58.2627L68.951 58.3228L68.6612 58.3765L68.3714 58.4239L68.0785 58.4681L67.7856 58.506L67.4927 58.5376L67.1966 58.5629L66.9006 58.5819L66.6045 58.5977L66.3116 58.6071L66.0155 58.6103H47.9053L66.6895 63.7954L66.8218 63.8365L66.9321 63.8776L67.0423 63.9218L67.1462 63.9724L67.2502 64.0293L67.351 64.0893L67.4517 64.1525L67.5462 64.222L67.6376 64.2947L67.7226 64.3737L67.8108 64.4527L67.8927 64.538L67.9683 64.6265L68.0439 64.7212L68.11 64.816L68.1762 64.914L68.2328 65.0119L68.2864 65.1194L68.3368 65.2268L68.3809 65.3311L68.425 65.4417L68.4565 65.5586L68.488 65.6692L68.51 65.7861L68.5321 65.8998L68.5447 66.0199L68.551 66.1337L68.5541 66.2537L68.551 66.3706L68.5447 66.4907L68.5321 66.6045L68.51 66.7214L68.488 66.8383L68.4565 66.952L68.425 67.0626L68.3809 67.1764L68.3368 67.2838L68.2864 67.3912L68.2328 67.4923L68.1762 67.5966L68.11 67.6946L68.0439 67.7894L67.9683 67.881L67.8927 67.9695L67.8108 68.0548L67.7226 68.1369L67.6376 68.2159L67.5462 68.2854L67.4517 68.355L67.351 68.4213L67.2502 68.4813L67.1462 68.5351L67.0423 68.5825L66.9321 68.6299L66.8218 68.6709L66.7116 68.7057L66.5982 68.7341L66.4848 68.7594L66.3651 68.7752L66.2517 68.7878L66.1321 68.8005L66.0155 68.8036" fill="#201637"/>
<path d="M78.6993 65.7165L78.6867 65.4479L78.6678 65.1793L78.6394 64.9076L78.6111 64.639L78.5733 64.3736L78.5292 64.105L78.4819 63.8396L78.4284 63.5742L78.3686 63.3088L78.3024 63.0497L78.2331 62.7874L78.1575 62.5252L78.0756 62.2724L77.9875 62.0133L77.893 61.7605L77.7985 61.5109L77.6945 61.2581L77.5843 61.0116L77.4741 60.7652L77.3544 60.5219L77.2284 60.2849L77.1024 60.0447L76.967 59.8109L76.8252 59.5771L76.6835 59.3496L76.5355 59.1221L76.3812 58.9009L76.2237 58.6829L76.0599 58.4649L75.8961 58.2563L75.7229 58.0446L75.5465 57.8424L75.367 57.6402L75.1812 57.4443L74.9953 57.2484L74.8001 57.0619L74.6048 56.8755L74.4063 56.6954L74.2016 56.5185L73.9937 56.3447L73.9812 56.3352L73.6851 56.5153L73.4237 56.6638L73.1528 56.8123L73.1182 56.8313L73.1874 56.9608L73.2851 57.1536L73.3764 57.3495L73.4583 57.5486L73.5434 57.7476L73.6158 57.9467L73.6882 58.1521L73.7544 58.3606L73.8111 58.566L73.8678 58.7745L73.915 58.9862L73.956 59.1948L73.9937 59.4096L74.0252 59.6245L74.0504 59.8362L74.0725 60.0511L74.0851 60.2659L74.0945 60.484V60.6988V60.9137L74.0851 61.1285L74.0725 61.3466L74.0504 61.5583L74.0252 61.7763L73.9937 61.988L73.956 62.1997L73.915 62.4146L73.8678 62.6231L73.8111 62.8316L73.7544 63.0402L73.6882 63.2456L73.6158 63.451L73.5434 63.65L73.4583 63.8522L73.3764 64.0513L73.2851 64.2441L73.1874 64.4368L73.0835 64.6264L72.9764 64.816L72.8662 64.9992L72.7497 65.1825L72.6268 65.3594L72.504 65.5332L72.3717 65.707L72.2363 65.8745L72.0977 66.0388L71.9528 66.1999L71.8048 66.3548L71.6536 66.5096L71.4961 66.6549L71.3386 66.8003L71.1748 66.9425L71.0079 67.0752L70.8378 67.2079L70.6615 67.3343L70.4819 67.4544L70.3024 67.5713L70.1197 67.685L69.9339 67.7925L69.7418 67.8936L69.5497 67.9915L69.3544 68.0831L69.156 68.1685L68.9607 68.2506L68.7591 68.3264L68.5544 68.396L68.3496 68.4623L68.1449 68.5224L67.9339 68.5761L67.726 68.6235L67.515 68.6677L67.304 68.7025L67.0898 68.7341L66.8756 68.7625L66.6615 68.7814L66.4473 68.7941L66.2331 68.8067H66.0158H0V79.0001H66.0158L66.2867 78.9969L66.5544 78.9906L66.8252 78.9748L67.093 78.9527L67.3638 78.9306L67.6315 78.899L67.8993 78.8579L68.1638 78.8168L68.4284 78.7694L68.693 78.7125L68.9544 78.6525L69.2158 78.5893L69.4741 78.5198L69.7355 78.4408L69.9906 78.3618L70.2457 78.2702L70.5008 78.1785L70.7528 78.0806L71.0016 77.9795L71.2473 77.872L71.493 77.7551L71.7323 77.6351L71.9749 77.5118L72.2079 77.3823L72.4441 77.2496L72.6741 77.1105L72.9008 76.962L73.1276 76.8167L73.3481 76.6619L73.5654 76.5007L73.7827 76.3396L73.9937 76.1721L74.2016 75.9983L74.4063 75.8214L74.6048 75.6444L74.8001 75.458L74.9953 75.2684L75.1812 75.0757L75.367 74.8766L75.5465 74.6775L75.7229 74.4722L75.8961 74.2636L76.0599 74.0519L76.2237 73.837L76.3812 73.6159L76.5355 73.3947L76.6835 73.1672L76.8252 72.9397L76.967 72.7059L77.1024 72.472L77.2284 72.2351L77.3544 71.9949L77.4741 71.7516L77.5843 71.5083L77.6945 71.2587L77.7985 71.0091L77.893 70.7595L77.9875 70.5035L78.0756 70.2476L78.1575 69.9885L78.2331 69.7294L78.3024 69.4703L78.3686 69.2049L78.4284 68.9426L78.4819 68.6803L78.5292 68.4118L78.5733 68.1463L78.6111 67.8778L78.6394 67.6092L78.6678 67.3406L78.6867 67.0689L78.6993 66.8003L78.7119 66.5317V66.26V65.9882L78.6993 65.7165Z" fill="#0DC09D"/>
<path d="M0.0125984 13.2804L0.0251969 13.5522L0.0440945 13.8207L0.072441 14.0925L0.103937 14.3611L0.138583 14.6265L0.182677 14.895L0.229921 15.1605L0.283465 15.4259L0.343307 15.6881L0.409449 15.9504L0.47874 16.2095L0.554331 16.4718L0.63937 16.7277L0.72441 16.9836L0.818898 17.2396L0.913386 17.4892L1.01732 17.742L1.12756 17.9884L1.24095 18.2349L1.35748 18.475L1.48347 18.7152L1.6126 18.9553L1.74488 19.1891L1.88662 19.423L2.02835 19.6473L2.17638 19.8748L2.33071 20.0992L2.48819 20.3172L2.65197 20.5352L2.8189 20.7437L2.98898 20.9554L3.16536 21.1577L3.34488 21.3599L3.53071 21.5558L3.71969 21.7485L3.91181 21.9381L4.10709 22.1245L4.30551 22.3047L4.51024 22.4816L4.72126 22.6522L4.73071 22.6617L5.02677 22.4848L5.28819 22.3363L5.55906 22.1846L5.59685 22.1688L5.52441 22.0392L5.42992 21.8465L5.33859 21.6506L5.25355 21.4515L5.17166 21.2525L5.09607 21.0502L5.02363 20.848L4.96063 20.6395L4.90079 20.4341L4.84725 20.2255L4.79685 20.0138L4.75591 19.8053L4.71811 19.5904L4.68662 19.3756L4.66142 19.1639L4.64252 18.949L4.62677 18.7341L4.62048 18.5161L4.61733 18.3013L4.62048 18.0864L4.62677 17.8684L4.64252 17.6503L4.66142 17.4386L4.68662 17.2238L4.71811 17.0121L4.75591 16.7972L4.79685 16.5855L4.84725 16.377L4.90079 16.1684L4.96063 15.9599L5.02363 15.7545L5.09607 15.5491L5.17166 15.3469L5.25355 15.1478L5.33859 14.9488L5.42992 14.7529L5.52441 14.5633L5.62835 14.3705L5.73544 14.1841L5.84567 13.9977L5.96221 13.8176L6.08504 13.6406L6.20788 13.4668L6.34331 13.2931L6.47559 13.1256L6.61733 12.9613L6.75906 12.8001L6.90709 12.6421L7.05827 12.4905L7.21575 12.342L7.37638 12.1998L7.53701 12.0576L7.70394 11.9217L7.87717 11.7922L8.0504 11.6626L8.22993 11.5426L8.40945 11.4256L8.59528 11.3119L8.77796 11.2076L8.97008 11.1065L9.16221 11.0086L9.35749 10.9169L9.55591 10.8285L9.75119 10.7495L9.95591 10.6736L10.1575 10.6041L10.3622 10.5378L10.5701 10.4777L10.778 10.424L10.989 10.3766L11.1969 10.3324L11.411 10.2976L11.6252 10.266L11.8362 10.2376L12.0504 10.2186L12.2646 10.2028L12.4787 10.1933H12.6961H78.7119V0H12.6961H12.4252L12.1575 0.00947924L11.8866 0.025278L11.6189 0.0473962L11.348 0.0695144L11.0803 0.101112L10.8158 0.142189L10.548 0.180106L10.2835 0.230662L10.0189 0.284377L9.75749 0.347572L9.49607 0.410767L9.2378 0.480282L8.97638 0.559275L8.72127 0.638269L8.46615 0.726742L8.21418 0.818374L7.95906 0.919486L7.71339 1.0206L7.46772 1.12803L7.22205 1.24494L6.97953 1.36185L6.74016 1.48824L6.50394 1.61779L6.27087 1.7505L6.0378 1.88953L5.81103 2.03488L5.58426 2.18339L5.36378 2.33821L5.14646 2.4962L4.92914 2.66051L4.72126 2.82797L4.51024 3.00176L4.30551 3.17555L4.10709 3.35565L3.91181 3.54208L3.71969 3.73166L3.53071 3.92441L3.34488 4.12031L3.16536 4.32253L2.98898 4.52792L2.8189 4.73646L2.65197 4.94816L2.48819 5.16303L2.33071 5.38421L2.17638 5.60539L2.02835 5.82973L1.88662 6.0604L1.74488 6.29106L1.6126 6.52804L1.48347 6.76502L1.35748 7.002L1.24095 7.24846L1.12756 7.49176L1.01732 7.74138L0.913386 7.991L0.818898 8.24062L0.72441 8.4934L0.63937 8.7525L0.554331 9.00844L0.47874 9.26754L0.409449 9.5298L0.343307 9.79206L0.283465 10.0575L0.229921 10.3197L0.182677 10.5852L0.138583 10.8537L0.103937 11.1223L0.072441 11.3909L0.0440945 11.6595L0.0251969 11.9312L0.0125984 12.1998L0 12.4684V12.7401V13.0118L0.0125984 13.2804Z" fill="#0DC09D"/>
<path d="M123.37 64.1875H103.312V56.322H123.37C126.475 56.322 128.868 55.7235 130.547 54.5201C132.226 53.3199 133.068 51.7705 133.068 49.875C133.068 47.9796 132.273 46.5892 130.691 45.7038C129.105 44.8216 126.76 44.0921 123.655 43.5247L120.421 42.9573C117.25 42.3899 114.367 41.5669 111.771 40.4945C109.173 39.4221 107.112 37.935 105.592 36.0396C104.072 34.1441 103.309 31.7125 103.309 28.7415C103.309 24.3209 104.957 20.8916 108.253 18.46C111.549 16.0283 115.921 14.8125 121.372 14.8125H140.954V22.7746H121.372C118.711 22.7746 116.618 23.264 115.099 24.2429C113.579 25.2218 112.816 26.5967 112.816 28.3643C112.816 30.2597 113.56 31.6501 115.049 32.5355C116.537 33.4209 118.551 34.0849 121.084 34.5245L124.411 35.0919C127.77 35.6592 130.844 36.4511 133.634 37.4612C136.423 38.4712 138.625 39.924 140.241 41.8194C141.858 43.7149 142.665 46.2432 142.665 49.4012C142.665 54.0774 140.92 57.7093 137.436 60.3C133.949 62.8906 129.262 64.1844 123.367 64.1844L123.37 64.1875Z" fill="#201637"/>
<path d="M241.611 79.4356V57.0836H240.081C239.379 58.3664 238.359 59.5988 237.018 60.7805C235.676 61.9654 233.97 62.9418 231.899 63.7096C229.824 64.4774 227.258 64.8629 224.195 64.8629C220.238 64.8629 216.601 63.9023 213.283 61.9812C209.965 60.0601 207.317 57.2921 205.34 53.6711C203.363 50.0532 202.375 45.6832 202.375 40.5581V39.1173C202.375 33.9953 203.379 29.6254 205.391 26.0043C207.399 22.3864 210.062 19.6153 213.381 17.6942C216.699 15.7731 220.304 14.8125 224.195 14.8125C228.788 14.8125 232.314 15.6467 234.77 17.3087C237.225 18.9739 239.061 20.8634 240.273 22.9773H241.803V14.8125H251.471V79.4293H241.614L241.611 79.4356ZM226.968 56.2178C231.307 56.2178 234.848 54.8402 237.591 52.088C240.333 49.3359 241.705 45.3957 241.705 40.2737V39.408C241.705 34.3492 240.317 30.4438 237.543 27.6885C234.767 24.9363 231.241 23.5587 226.968 23.5587C222.696 23.5587 219.265 24.9363 216.488 27.6885C213.711 30.4438 212.326 34.3492 212.326 39.408V40.2737C212.326 45.3988 213.714 49.3359 216.488 52.088C219.265 54.8433 222.756 56.2178 226.968 56.2178Z" fill="#201637"/>
<path d="M195.136 38.4692C195.136 33.5733 194.188 29.299 192.291 25.6431C190.393 21.9873 187.75 19.1302 184.371 17.0752C180.986 15.0202 177.048 13.9895 172.561 13.9895C168.074 13.9895 163.896 15.0331 160.42 17.1235C158.679 18.1672 157.128 19.4137 155.761 20.8696C155.59 21.05 155.421 21.2368 155.253 21.4236C154.753 21.9905 154.288 22.5832 153.845 23.2016C153.259 24.0294 152.713 24.9087 152.213 25.8396C150.223 29.5599 149.224 33.934 149.224 38.962V40.1377C149.224 45.1657 150.22 49.5366 152.213 53.2601C154.204 56.9804 156.972 59.8696 160.513 61.9246C164.052 63.9796 168.196 65.0103 172.938 65.0103C177.113 65.0103 180.589 64.3243 183.373 62.9553C186.156 61.5832 188.368 59.8857 190.013 57.8629C190.468 57.2992 190.899 56.7452 191.301 56.1976C192.35 54.7772 193.217 53.4082 193.901 52.0844L185.744 47.7747C184.733 49.9972 183.292 51.9556 181.429 53.6498C179.56 55.3473 176.795 56.1944 173.129 56.1944C169.207 56.1944 165.933 54.935 163.312 52.4258C163.15 52.268 162.991 52.1134 162.838 51.9459C162.682 51.7784 162.535 51.6141 162.389 51.4467C162.039 51.0311 161.715 50.5963 161.415 50.1389C160.139 48.1612 159.409 45.8067 159.225 43.0785C159.206 42.8176 159.197 42.5534 159.187 42.2893H195.139V38.4692H195.136ZM165.731 34.5524L160.735 39.7093H159.091C159.066 38.2244 159.091 36.3176 159.281 34.5524C159.374 33.8825 159.499 33.235 159.662 32.6134C159.818 31.9917 160.008 31.3991 160.229 30.8322C160.966 28.9414 162.061 27.3406 163.503 26.0329C165.809 23.9424 168.795 22.8988 172.467 22.8988C176.14 22.8988 179.107 23.9424 181.385 26.0329C183.663 28.1233 184.958 30.9642 185.273 34.5524H165.734H165.731Z" fill="#201637"/>
<path d="M305.005 38.4692C305.005 33.5733 304.056 29.299 302.159 25.6431C300.262 21.9873 297.619 19.1302 294.24 17.0752C290.854 15.0202 286.917 13.9895 282.43 13.9895C277.943 13.9895 273.764 15.0331 270.288 17.1235C268.547 18.1672 266.997 19.4137 265.63 20.8696C265.458 21.05 265.29 21.2368 265.121 21.4236C264.622 21.9905 264.157 22.5832 263.714 23.2016C263.127 24.0294 262.581 24.9087 262.082 25.8396C260.091 29.5599 259.093 33.934 259.093 38.962V40.1377C259.093 45.1657 260.088 49.5366 262.082 53.2601C264.073 56.9804 266.84 59.8696 270.382 61.9246C273.92 63.9796 278.064 65.0103 282.807 65.0103C286.982 65.0103 290.458 64.3243 293.241 62.9553C296.025 61.5832 298.237 59.8857 299.881 57.8629C300.337 57.2992 300.768 56.7452 301.17 56.1976C302.218 54.7772 303.086 53.4082 303.769 52.0844L295.613 47.7747C294.602 49.9972 293.16 51.9556 291.297 53.6498C289.428 55.3473 286.664 56.1944 282.997 56.1944C279.075 56.1944 275.802 54.935 273.181 52.4258C273.019 52.268 272.86 52.1134 272.707 51.9459C272.551 51.7784 272.404 51.6141 272.257 51.4467C271.908 51.0311 271.583 50.5963 271.284 50.1389C270.008 48.1612 269.277 45.8067 269.093 43.0785C269.075 42.8176 269.065 42.5534 269.056 42.2893H305.008V38.4692H305.005ZM275.599 34.5524L270.604 39.7093H268.959C268.934 38.2244 268.959 36.3176 269.15 34.5524C269.243 33.8825 269.368 33.235 269.53 32.6134C269.686 31.9917 269.877 31.3991 270.098 30.8322C270.834 28.9414 271.93 27.3406 273.371 26.0329C275.677 23.9424 278.663 22.8988 282.336 22.8988C286.008 22.8988 288.976 23.9424 291.254 26.0329C293.532 28.1233 294.826 30.9642 295.142 34.5524H275.602H275.599Z" fill="#201637"/>
<path d="M314.85 64.2295V14.1822H324.515V19.7529H326.045C326.81 17.7686 328.038 16.3119 329.729 15.383C331.419 14.454 333.51 13.9895 335.997 13.9895H341.645V22.9221H335.616C332.424 22.9221 329.811 23.8037 327.767 25.5637C325.724 27.3268 324.704 30.0315 324.704 33.681V64.2263H314.847L314.85 64.2295Z" fill="#201637"/>
<path d="M387 32.3979C387 26.5226 385.222 21.9847 381.66 18.7872C378.101 15.5898 373.212 13.9895 366.994 13.9895C362.917 13.9895 359.469 14.6405 356.651 15.949C353.836 17.2575 351.568 18.9861 349.854 21.138C348.14 23.2931 346.893 25.6439 346.114 28.1871L355.436 31.2241C356.018 28.6136 357.217 26.4906 359.03 24.8582C360.846 23.229 363.464 22.4112 366.895 22.4112C370.327 22.4112 372.983 23.2771 374.666 25.0057C376.351 26.7343 377.191 28.9728 377.191 31.7148V40.066H375.575L370.394 34.8481H362.624C357.379 34.8481 353.025 36.1053 349.561 38.6196C346.098 41.1307 344.364 44.838 344.364 49.7352C344.364 53 345.159 55.7708 346.743 58.0575C348.33 60.3441 350.468 62.0727 353.152 63.2465C355.843 64.4202 358.903 65.0103 362.328 65.0103C365.754 65.0103 368.285 64.5357 370.292 63.5896C372.299 62.6435 373.823 61.5339 374.856 60.2607C375.896 58.9875 376.666 57.8266 377.188 56.7843H378.743V64.1874L386.997 64.1874V32.4011L387 32.3979ZM377.191 43.6578C377.191 47.7083 375.944 50.8897 373.451 53.2052C370.957 55.5207 367.741 56.6816 363.788 56.6816C360.875 56.6816 358.578 56.0306 356.893 54.7221C355.207 53.4137 354.367 51.653 354.367 49.4337C354.367 47.2145 355.178 45.5308 356.794 44.3923C358.416 43.2506 360.547 42.6797 363.203 42.6797H377.188V43.6578H377.191Z" fill="#201637"/>
</g>
<defs>
<clipPath id="clip0_1371_4818">
<rect width="387" height="79" fill="white"/>
</clipPath>
</defs>
</svg>
