<?xml version="1.0" encoding="UTF-8"?>
<svg xmlns="http://www.w3.org/2000/svg" xmlns:xlink="http://www.w3.org/1999/xlink"
     width="1193" height="361" viewBox="0 0 1193 361">
<defs>
</defs>
<rect x="0" y="0" width="1193" height="361" fill="#2b2b2b" />
<text x="60.0" y="30.0" font-size="24.0" fill="#ffffff" font-family="'Helvetica Neue', Helvetica, Arial, sans-serif" font-weight="bold" class="nf-metro-title">Preprocess / Alignment / Variant Calling Pipeline</text>
<rect x="60.0" y="85.0" width="136.0" height="110.0" rx="8" ry="8" fill="#373737" stroke="#595959" stroke-width="1.0" />
<circle cx="71.0" cy="70.0" r="11" fill="#333333" class="nf-metro-section-num-circle" />
<text x="71.0" y="70.0" font-size="12" fill="#ffffff" font-family="'Helvetica Neue', Helvetica, Arial, sans-serif" font-weight="bold" text-anchor="middle" dy="0.3em">1</text>
<text x="87.0" y="70.0" font-size="16.0" fill="#aaaaaa" font-family="'Helvetica Neue', Helvetica, Arial, sans-serif" font-weight="bold" dy="0.3em" class="nf-metro-section-label">Preprocess</text>
<rect x="236.0" y="85.0" width="391.5" height="122.23303379776745" rx="8" ry="8" fill="#373737" stroke="#595959" stroke-width="1.0" />
<circle cx="247.0" cy="70.0" r="11" fill="#333333" class="nf-metro-section-num-circle" />
<text x="247.0" y="70.0" font-size="12" fill="#ffffff" font-family="'Helvetica Neue', Helvetica, Arial, sans-serif" font-weight="bold" text-anchor="middle" dy="0.3em">2</text>
<text x="263.0" y="70.0" font-size="16.0" fill="#aaaaaa" font-family="'Helvetica Neue', Helvetica, Arial, sans-serif" font-weight="bold" dy="0.3em" class="nf-metro-section-label">Alignment</text>
<rect x="659.5" y="85.0" width="294.0" height="122.23303379776745" rx="8" ry="8" fill="#373737" stroke="#595959" stroke-width="1.0" />
<circle cx="670.5" cy="70.0" r="11" fill="#333333" class="nf-metro-section-num-circle" />
<text x="670.5" y="70.0" font-size="12" fill="#ffffff" font-family="'Helvetica Neue', Helvetica, Arial, sans-serif" font-weight="bold" text-anchor="middle" dy="0.3em">3</text>
<text x="686.5" y="70.0" font-size="16.0" fill="#aaaaaa" font-family="'Helvetica Neue', Helvetica, Arial, sans-serif" font-weight="bold" dy="0.3em" class="nf-metro-section-label">Variant Calling</text>
<rect x="1033.5" y="85.0" width="100.0" height="70.0" rx="8" ry="8" fill="#373737" stroke="#595959" stroke-width="1.0" />
<circle cx="1044.5" cy="70.0" r="11" fill="#333333" class="nf-metro-section-num-circle" />
<text x="1044.5" y="70.0" font-size="12" fill="#ffffff" font-family="'Helvetica Neue', Helvetica, Arial, sans-serif" font-weight="bold" text-anchor="middle" dy="0.3em">4</text>
<text x="1060.5" y="70.0" font-size="16.0" fill="#aaaaaa" font-family="'Helvetica Neue', Helvetica, Arial, sans-serif" font-weight="bold" dy="0.3em" class="nf-metro-section-label">Reporting</text>
<path d="M382.0,172.23303379776746 L387.0,172.23303379776746 Q397.0,172.23303379776746,404.54237411052236,165.6670157672621 L419.45762588947764,152.6825349293891 Q427.0,146.11651689888373,437.0,146.11651689888373 L442.0,146.11651689888373" stroke="#2db572" stroke-width="3.0" fill="none" stroke-linecap="round" stroke-linejoin="round" />
<path d="M758.0,172.23303379776746 L783.5,172.23303379776746 Q793.5,172.23303379776746,801.0423741105224,165.6670157672621 L815.9576258894776,152.6825349293891 Q823.5,146.11651689888373,833.5,146.11651689888373 L886.5,146.11651689888373" stroke="#2db572" stroke-width="3.0" fill="none" stroke-linecap="round" stroke-linejoin="round" />
<path d="M286.0,172.23303379776746 L382.0,172.23303379776746" stroke="#2db572" stroke-width="3.0" stroke-linecap="round" />
<path d="M128.0,163.0 L141.0,163.0 Q151.0,163.0,159.7826824435205,158.2183173363055 L172.2173175564795,151.44834933036117 Q181.0,146.66666666666666,191.0,146.66666666666666 L196.0,146.66666666666666" stroke="#0570b0" stroke-width="3.0" fill="none" stroke-linecap="round" stroke-linejoin="round" />
<path d="M128.0,160.0 L141.0,160.0 Q151.0,160.0,160.4548456682671,156.74333093648576 L171.5451543317329,152.9233357301809 Q181.0,149.66666666666666,191.0,149.66666666666666 L196.0,149.66666666666666" stroke="#2db572" stroke-width="3.0" fill="none" stroke-linecap="round" stroke-linejoin="round" />
<path d="M196.0,149.66666666666666 L206.0,149.66666666666666" stroke="#2db572" stroke-width="3.0" stroke-linecap="round" />
<path d="M206.0,149.66666666666666 L236.0,146.66666666666666" stroke="#2db572" stroke-width="3.0" stroke-linecap="round" />
<path d="M236.0,146.66666666666666 L241.0,146.66666666666666 Q251.0,146.66666666666666,257.1614659173352,154.54298165208445 L264.8385340826648,164.35671881234967 Q271.0,172.23303379776746,281.0,172.23303379776746 L286.0,172.23303379776746" stroke="#2db572" stroke-width="3.0" fill="none" stroke-linecap="round" stroke-linejoin="round" />
<path d="M196.0,146.66666666666666 L206.0,146.66666666666666" stroke="#0570b0" stroke-width="3.0" stroke-linecap="round" />
<path d="M206.0,146.66666666666666 L206.0,146.66666666666666 Q216.0,146.66666666666666,216.0,156.66666666666666 L216.0,222.23303379776746 Q216.0,235.23303379776746,229.0,235.23303379776746 L996.5,235.23303379776746 Q1009.5,235.23303379776746,1009.5,222.23303379776746 L1009.5,133.0 Q1009.5,123.0,1019.5,123.0 L1033.5,123.0" stroke="#0570b0" stroke-width="3.0" fill="none" stroke-linecap="round" stroke-linejoin="round" />
<path d="M206.0,146.66666666666666 L206.0,146.66666666666666 Q216.0,146.66666666666666,216.0,156.66666666666666 L216.0,222.23303379776746 Q216.0,235.23303379776746,229.0,235.23303379776746 L996.5,235.23303379776746 Q1009.5,235.23303379776746,1009.5,222.23303379776746 L1009.5,133.0 Q1009.5,123.0,1019.5,123.0 L1033.5,123.0" stroke="#0570b0" stroke-width="3.0" fill="none" stroke-linecap="round" stroke-linejoin="round" />
<path d="M442.0,146.11651689888373 L560.5,146.11651689888373" stroke="#2db572" stroke-width="3.0" stroke-linecap="round" />
<path d="M886.5,146.11651689888373 L895.0,146.11651689888373 Q905.0,146.11651689888373,912.5423741105224,139.55049886837836 L927.4576258894776,126.56601803050538 Q935.0,120.0,945.0,120.0 L953.5,120.0" stroke="#2db572" stroke-width="3.0" fill="none" stroke-linecap="round" stroke-linejoin="round" />
<path d="M442.0,146.11651689888373 L490.5,146.11651689888373 Q500.5,146.11651689888373,508.04237411052236,139.55049886837836 L522.9576258894776,126.56601803050538 Q530.5,120.0,540.5,120.0 L627.5,120.0" stroke="#2db572" stroke-width="3.0" fill="none" stroke-linecap="round" stroke-linejoin="round" />
<path d="M442.0,146.11651689888373 L490.5,146.11651689888373 Q500.5,146.11651689888373,508.04237411052236,139.55049886837836 L522.9576258894776,126.56601803050538 Q530.5,120.0,540.5,120.0 L627.5,120.0" stroke="#2db572" stroke-width="3.0" fill="none" stroke-linecap="round" stroke-linejoin="round" />
<path d="M560.5,146.11651689888373 L572.5,146.11651689888373 Q582.5,146.11651689888373,590.0423741105224,139.55049886837836 L604.9576258894776,126.56601803050538 Q612.5,120.0,622.5,120.0 L627.5,120.0" stroke="#2db572" stroke-width="3.0" fill="none" stroke-linecap="round" stroke-linejoin="round" />
<path d="M560.5,146.11651689888373 L572.5,146.11651689888373 Q582.5,146.11651689888373,590.0423741105224,139.55049886837836 L604.9576258894776,126.56601803050538 Q612.5,120.0,622.5,120.0 L627.5,120.0" stroke="#2db572" stroke-width="3.0" fill="none" stroke-linecap="round" stroke-linejoin="round" />
<path d="M128.0,123.0 L141.0,123.0 Q151.0,123.0,158.85106009795783,129.19361407727786 L173.14893990204217,140.4730525893888 Q181.0,146.66666666666666,191.0,146.66666666666666 L196.0,146.66666666666666" stroke="#0570b0" stroke-width="3.0" fill="none" stroke-linecap="round" stroke-linejoin="round" />
<path d="M1033.5,123.0 L1083.5,123.0" stroke="#0570b0" stroke-width="3.0" stroke-linecap="round" />
<path d="M1033.5,123.0 L1083.5,123.0" stroke="#0570b0" stroke-width="3.0" stroke-linecap="round" />
<path d="M286.0,120.0 L310.5,120.0 Q320.5,120.0,325.4804693249598,128.67150075264567 L345.5195306750402,163.5615330451218 Q350.5,172.23303379776746,360.5,172.23303379776746 L382.0,172.23303379776746" stroke="#2db572" stroke-width="3.0" fill="none" stroke-linecap="round" stroke-linejoin="round" />
<path d="M735.5,120.0 L783.5,120.0 Q793.5,120.0,801.0423741105224,126.56601803050538 L815.9576258894776,139.55049886837836 Q823.5,146.11651689888373,833.5,146.11651689888373 L886.5,146.11651689888373" stroke="#2db572" stroke-width="3.0" fill="none" stroke-linecap="round" stroke-linejoin="round" />
<path d="M1033.5,120.0 L1083.5,120.0" stroke="#2db572" stroke-width="3.0" stroke-linecap="round" />
<path d="M677.5,120.0 L735.5,120.0" stroke="#2db572" stroke-width="3.0" stroke-linecap="round" />
<path d="M677.5,120.0 L682.5,120.0 Q692.5,120.0,697.4804693249598,128.67150075264567 L717.5195306750402,163.5615330451218 Q722.5,172.23303379776746,732.5,172.23303379776746 L758.0,172.23303379776746" stroke="#2db572" stroke-width="3.0" fill="none" stroke-linecap="round" stroke-linejoin="round" />
<path d="M677.5,120.0 L735.5,120.0" stroke="#2db572" stroke-width="3.0" stroke-linecap="round" />
<path d="M677.5,120.0 L682.5,120.0 Q692.5,120.0,697.4804693249598,128.67150075264567 L717.5195306750402,163.5615330451218 Q722.5,172.23303379776746,732.5,172.23303379776746 L758.0,172.23303379776746" stroke="#2db572" stroke-width="3.0" fill="none" stroke-linecap="round" stroke-linejoin="round" />
<path d="M953.5,120.0 L1033.5,120.0" stroke="#2db572" stroke-width="3.0" stroke-linecap="round" />
<path d="M627.5,120.0 L677.5,120.0" stroke="#2db572" stroke-width="3.0" stroke-linecap="round" />
<path d="M627.5,120.0 L677.5,120.0" stroke="#2db572" stroke-width="3.0" stroke-linecap="round" />
<path d="M627.5,120.0 L677.5,120.0" stroke="#2db572" stroke-width="3.0" stroke-linecap="round" />
<path d="M627.5,120.0 L677.5,120.0" stroke="#2db572" stroke-width="3.0" stroke-linecap="round" />
<rect x="123.0" y="118.0" width="10.0" height="10.0" rx="5.0" ry="5.0" fill="#ffffff" stroke="#333333" stroke-width="1.5" />
<rect x="123.0" y="155.0" width="10.0" height="13.0" rx="5.0" ry="5.0" fill="#ffffff" stroke="#333333" stroke-width="1.5" />
<rect x="281.0" y="115.0" width="10.0" height="10.0" rx="5.0" ry="5.0" fill="#ffffff" stroke="#333333" stroke-width="1.5" />
<rect x="377.0" y="167.23303379776746" width="10.0" height="10.0" rx="5.0" ry="5.0" fill="#ffffff" stroke="#333333" stroke-width="1.5" />
<rect x="437.0" y="141.11651689888373" width="10.0" height="10.0" rx="5.0" ry="5.0" fill="#ffffff" stroke="#333333" stroke-width="1.5" />
<rect x="555.5" y="141.11651689888373" width="10.0" height="10.0" rx="5.0" ry="5.0" fill="#ffffff" stroke="#333333" stroke-width="1.5" />
<rect x="730.5" y="115.0" width="10.0" height="10.0" rx="5.0" ry="5.0" fill="#ffffff" stroke="#333333" stroke-width="1.5" />
<rect x="753.0" y="167.23303379776746" width="10.0" height="10.0" rx="5.0" ry="5.0" fill="#ffffff" stroke="#333333" stroke-width="1.5" />
<rect x="881.5" y="141.11651689888373" width="10.0" height="10.0" rx="5.0" ry="5.0" fill="#ffffff" stroke="#333333" stroke-width="1.5" />
<rect x="1078.5" y="115.0" width="10.0" height="13.0" rx="5.0" ry="5.0" fill="#ffffff" stroke="#333333" stroke-width="1.5" />
<text x="286.0" y="106.0" font-size="13.0" fill="#e0e0e0" font-family="'Helvetica Neue', Helvetica, Arial, sans-serif" font-weight="bold" text-anchor="middle" dominant-baseline="auto">Bwa Index</text>
<text x="735.5" y="106.0" font-size="13.0" fill="#e0e0e0" font-family="'Helvetica Neue', Helvetica, Arial, sans-serif" font-weight="bold" text-anchor="middle" dominant-baseline="auto">Gatk Haplotypeca</text>
<text x="758.0" y="183.23303379776746" font-size="13.0" fill="#e0e0e0" font-family="'Helvetica Neue', Helvetica, Arial, sans-serif" font-weight="bold" text-anchor="middle" dominant-baseline="hanging">Deepvariant</text>
<text x="128.0" y="109.0" font-size="13.0" fill="#e0e0e0" font-family="'Helvetica Neue', Helvetica, Arial, sans-serif" font-weight="bold" text-anchor="middle" dominant-baseline="auto">Fastqc</text>
<text x="1083.5" y="134.0" font-size="13.0" fill="#e0e0e0" font-family="'Helvetica Neue', Helvetica, Arial, sans-serif" font-weight="bold" text-anchor="middle" dominant-baseline="hanging">Multiqc</text>
<text x="128.0" y="174.0" font-size="13.0" fill="#e0e0e0" font-family="'Helvetica Neue', Helvetica, Arial, sans-serif" font-weight="bold" text-anchor="middle" dominant-baseline="hanging">Fastp</text>
<text x="886.5" y="157.11651689888373" font-size="13.0" fill="#e0e0e0" font-family="'Helvetica Neue', Helvetica, Arial, sans-serif" font-weight="bold" text-anchor="middle" dominant-baseline="hanging">Bcftools Stats</text>
<text x="382.0" y="183.23303379776746" font-size="13.0" fill="#e0e0e0" font-family="'Helvetica Neue', Helvetica, Arial, sans-serif" font-weight="bold" text-anchor="middle" dominant-baseline="hanging">Bwa Mem</text>
<text x="442.0" y="132.11651689888373" font-size="13.0" fill="#e0e0e0" font-family="'Helvetica Neue', Helvetica, Arial, sans-serif" font-weight="bold" text-anchor="middle" dominant-baseline="auto">Samtools Sort</text>
<text x="560.5" y="157.11651689888373" font-size="13.0" fill="#e0e0e0" font-family="'Helvetica Neue', Helvetica, Arial, sans-serif" font-weight="bold" text-anchor="middle" dominant-baseline="hanging">Samtools Index</text>
<rect x="60.0" y="265.23303379776746" width="229.40000000000003" height="72.0" rx="6" ry="6" fill="rgba(0, 0, 0, 0.3)" />
<path d="M72.0,289.23303379776746 L96.0,289.23303379776746" stroke="#2db572" stroke-width="3.0" stroke-linecap="round" />
<text x="108.0" y="289.23303379776746" font-size="14.0" fill="#e0e0e0" font-family="'Helvetica Neue', Helvetica, Arial, sans-serif" dy="0.3em">Main</text>
<path d="M72.0,313.23303379776746 L96.0,313.23303379776746" stroke="#0570b0" stroke-width="3.0" stroke-linecap="round" />
<text x="108.0" y="313.23303379776746" font-size="14.0" fill="#e0e0e0" font-family="'Helvetica Neue', Helvetica, Arial, sans-serif" dy="0.3em">Preprocess - Reporting</text>
<text x="1163.0" y="353.0" font-size="8" fill="rgba(150, 150, 150, 0.6)" font-family="'Helvetica Neue', Helvetica, Arial, sans-serif" text-anchor="end">created with nf-metro v0.6.1+dev</text>
</svg>