<?xml version="1.0" encoding="UTF-8"?>
<svg xmlns="http://www.w3.org/2000/svg" xmlns:xlink="http://www.w3.org/1999/xlink"
     width="1068" height="412" viewBox="0 0 1068 412">
<defs>
</defs>
<rect x="0" y="0" width="1068" height="412" fill="#2b2b2b" />
<text x="60.0" y="30.0" font-size="24.0" fill="#ffffff" font-family="'Helvetica Neue', Helvetica, Arial, sans-serif" font-weight="bold" class="nf-metro-title">Preprocess / Alignment / Quantification Pipeline</text>
<rect x="60.0" y="85.0" width="136.0" height="110.0" rx="8" ry="8" fill="#373737" stroke="#595959" stroke-width="1.0" />
<circle cx="71.0" cy="70.0" r="11" fill="#333333" class="nf-metro-section-num-circle" />
<text x="71.0" y="70.0" font-size="12" fill="#ffffff" font-family="'Helvetica Neue', Helvetica, Arial, sans-serif" font-weight="bold" text-anchor="middle" dy="0.3em">1</text>
<text x="87.0" y="70.0" font-size="16.0" fill="#aaaaaa" font-family="'Helvetica Neue', Helvetica, Arial, sans-serif" font-weight="bold" dy="0.3em" class="nf-metro-section-label">Preprocess</text>
<rect x="236.0" y="85.0" width="426.5" height="122.23303379776745" rx="8" ry="8" fill="#373737" stroke="#595959" stroke-width="1.0" />
<circle cx="247.0" cy="70.0" r="11" fill="#333333" class="nf-metro-section-num-circle" />
<text x="247.0" y="70.0" font-size="12" fill="#ffffff" font-family="'Helvetica Neue', Helvetica, Arial, sans-serif" font-weight="bold" text-anchor="middle" dy="0.3em">2</text>
<text x="263.0" y="70.0" font-size="16.0" fill="#aaaaaa" font-family="'Helvetica Neue', Helvetica, Arial, sans-serif" font-weight="bold" dy="0.3em" class="nf-metro-section-label">Alignment</text>
<rect x="742.5" y="85.0" width="137.5" height="70.0" rx="8" ry="8" fill="#373737" stroke="#595959" stroke-width="1.0" />
<circle cx="753.5" cy="70.0" r="11" fill="#333333" class="nf-metro-section-num-circle" />
<text x="753.5" y="70.0" font-size="12" fill="#ffffff" font-family="'Helvetica Neue', Helvetica, Arial, sans-serif" font-weight="bold" text-anchor="middle" dy="0.3em">3</text>
<text x="769.5" y="70.0" font-size="16.0" fill="#aaaaaa" font-family="'Helvetica Neue', Helvetica, Arial, sans-serif" font-weight="bold" dy="0.3em" class="nf-metro-section-label">Quantification</text>
<rect x="908.5" y="85.0" width="100.0" height="70.0" rx="8" ry="8" fill="#373737" stroke="#595959" stroke-width="1.0" />
<circle cx="919.5" cy="70.0" r="11" fill="#333333" class="nf-metro-section-num-circle" />
<text x="919.5" y="70.0" font-size="12" fill="#ffffff" font-family="'Helvetica Neue', Helvetica, Arial, sans-serif" font-weight="bold" text-anchor="middle" dy="0.3em">4</text>
<text x="935.5" y="70.0" font-size="16.0" fill="#aaaaaa" font-family="'Helvetica Neue', Helvetica, Arial, sans-serif" font-weight="bold" dy="0.3em" class="nf-metro-section-label">Reporting</text>
<path d="M417.0,172.23303379776746 L422.0,172.23303379776746 Q432.0,172.23303379776746,439.54237411052236,165.6670157672621 L454.45762588947764,152.6825349293891 Q462.0,146.11651689888373,472.0,146.11651689888373 L477.0,146.11651689888373" stroke="#2db572" stroke-width="3.0" fill="none" stroke-linecap="round" stroke-linejoin="round" />
<path d="M312.0,172.23303379776746 L417.0,172.23303379776746" stroke="#2db572" stroke-width="3.0" stroke-linecap="round" />
<path d="M128.0,163.0 L141.0,163.0 Q151.0,163.0,159.7826824435205,158.2183173363055 L172.2173175564795,151.44834933036117 Q181.0,146.66666666666666,191.0,146.66666666666666 L196.0,146.66666666666666" stroke="#0570b0" stroke-width="3.0" fill="none" stroke-linecap="round" stroke-linejoin="round" />
<path d="M128.0,160.0 L141.0,160.0 Q151.0,160.0,160.4548456682671,156.74333093648576 L171.5451543317329,152.9233357301809 Q181.0,149.66666666666666,191.0,149.66666666666666 L196.0,149.66666666666666" stroke="#2db572" stroke-width="3.0" fill="none" stroke-linecap="round" stroke-linejoin="round" />
<path d="M477.0,152.11651689888373 L525.5,152.11651689888373 Q535.5,152.11651689888373,543.0423741105224,158.6825349293891 L557.9576258894776,171.6670157672621 Q565.5,178.23303379776746,575.5,178.23303379776746 L595.5,178.23303379776746" stroke="#e63946" stroke-width="3.0" fill="none" stroke-linecap="round" stroke-linejoin="round" />
<path d="M196.0,149.66666666666666 L206.0,149.66666666666666" stroke="#2db572" stroke-width="3.0" stroke-linecap="round" />
<path d="M206.0,149.66666666666666 L236.0,146.66666666666666" stroke="#2db572" stroke-width="3.0" stroke-linecap="round" />
<path d="M477.0,149.11651689888373 L662.5,149.11651689888373" stroke="#f5c542" stroke-width="3.0" stroke-linecap="round" />
<path d="M662.5,149.11651689888373 L672.5,149.11651689888373" stroke="#f5c542" stroke-width="3.0" stroke-linecap="round" />
<path d="M672.5,149.11651689888373 L672.5,149.11651689888373 Q682.5,149.11651689888373,682.5,159.11651689888373 L682.5,170.0 Q682.5,180.0,692.5,180.0 L882.5,180.0 Q892.5,180.0,892.5,170.0 L892.5,139.0 Q892.5,123.0,908.5,123.0 L908.5,123.0" stroke="#f5c542" stroke-width="3.0" fill="none" stroke-linecap="round" stroke-linejoin="round" />
<path d="M236.0,146.66666666666666 L249.0,146.66666666666666 Q259.0,146.66666666666666,266.6110781195695,153.15292058228007 L281.3889218804305,165.74677988215404 Q289.0,172.23303379776746,299.0,172.23303379776746 L312.0,172.23303379776746" stroke="#2db572" stroke-width="3.0" fill="none" stroke-linecap="round" stroke-linejoin="round" />
<path d="M196.0,146.66666666666666 L206.0,146.66666666666666" stroke="#0570b0" stroke-width="3.0" stroke-linecap="round" />
<path d="M206.0,146.66666666666666 L206.0,146.66666666666666 Q216.0,146.66666666666666,216.0,156.66666666666666 L216.0,222.23303379776746 Q216.0,238.23303379776746,232.0,238.23303379776746 L882.5,238.23303379776746 Q898.5,238.23303379776746,898.5,222.23303379776746 L898.5,136.0 Q898.5,126.0,908.5,126.0 L908.5,126.0" stroke="#0570b0" stroke-width="3.0" fill="none" stroke-linecap="round" stroke-linejoin="round" />
<path d="M206.0,146.66666666666666 L206.0,146.66666666666666 Q216.0,146.66666666666666,216.0,156.66666666666666 L216.0,222.23303379776746 Q216.0,238.23303379776746,232.0,238.23303379776746 L882.5,238.23303379776746 Q898.5,238.23303379776746,898.5,222.23303379776746 L898.5,136.0 Q898.5,126.0,908.5,126.0 L908.5,126.0" stroke="#0570b0" stroke-width="3.0" fill="none" stroke-linecap="round" stroke-linejoin="round" />
<path d="M477.0,146.11651689888373 L662.5,146.11651689888373" stroke="#2db572" stroke-width="3.0" stroke-linecap="round" />
<path d="M742.5,146.11651689888373 L747.5,146.11651689888373 Q757.5,146.11651689888373,764.8127430585363,139.29568198226028 L778.1872569414637,126.82083491662345 Q785.5,120.0,795.5,120.0 L822.0,120.0" stroke="#2db572" stroke-width="3.0" fill="none" stroke-linecap="round" stroke-linejoin="round" />
<path d="M662.5,146.11651689888373 L672.5,146.11651689888373" stroke="#2db572" stroke-width="3.0" stroke-linecap="round" />
<path d="M672.5,146.11651689888373 L742.5,146.11651689888373" stroke="#2db572" stroke-width="3.0" stroke-linecap="round" />
<path d="M908.5,126.0 L958.5,126.0" stroke="#0570b0" stroke-width="3.0" stroke-linecap="round" />
<path d="M908.5,126.0 L958.5,126.0" stroke="#0570b0" stroke-width="3.0" stroke-linecap="round" />
<path d="M128.0,123.0 L141.0,123.0 Q151.0,123.0,158.85106009795783,129.19361407727786 L173.14893990204217,140.4730525893888 Q181.0,146.66666666666666,191.0,146.66666666666666 L196.0,146.66666666666666" stroke="#0570b0" stroke-width="3.0" fill="none" stroke-linecap="round" stroke-linejoin="round" />
<path d="M908.5,123.0 L958.5,123.0" stroke="#f5c542" stroke-width="3.0" stroke-linecap="round" />
<path d="M312.0,120.0 L332.0,120.0 Q342.0,120.0,346.9804693249598,128.67150075264567 L367.0195306750402,163.5615330451218 Q372.0,172.23303379776746,382.0,172.23303379776746 L417.0,172.23303379776746" stroke="#2db572" stroke-width="3.0" fill="none" stroke-linecap="round" stroke-linejoin="round" />
<path d="M822.0,120.0 L858.5,120.0" stroke="#2db572" stroke-width="3.0" stroke-linecap="round" />
<path d="M908.5,120.0 L958.5,120.0" stroke="#2db572" stroke-width="3.0" stroke-linecap="round" />
<path d="M858.5,120.0 L908.5,120.0" stroke="#2db572" stroke-width="3.0" stroke-linecap="round" />
<rect x="123.0" y="118.0" width="10.0" height="10.0" rx="5.0" ry="5.0" fill="#ffffff" stroke="#333333" stroke-width="1.5" />
<rect x="123.0" y="155.0" width="10.0" height="13.0" rx="5.0" ry="5.0" fill="#ffffff" stroke="#333333" stroke-width="1.5" />
<rect x="307.0" y="115.0" width="10.0" height="10.0" rx="5.0" ry="5.0" fill="#ffffff" stroke="#333333" stroke-width="1.5" />
<rect x="412.0" y="167.23303379776746" width="10.0" height="10.0" rx="5.0" ry="5.0" fill="#ffffff" stroke="#333333" stroke-width="1.5" />
<rect x="472.0" y="141.11651689888373" width="10.0" height="16.0" rx="5.0" ry="5.0" fill="#ffffff" stroke="#333333" stroke-width="1.5" />
<rect x="590.5" y="173.23303379776746" width="10.0" height="10.0" rx="5.0" ry="5.0" fill="#ffffff" stroke="#333333" stroke-width="1.5" />
<rect x="817.0" y="115.0" width="10.0" height="10.0" rx="5.0" ry="5.0" fill="#ffffff" stroke="#333333" stroke-width="1.5" />
<rect x="953.5" y="115.0" width="10.0" height="16.0" rx="5.0" ry="5.0" fill="#ffffff" stroke="#333333" stroke-width="1.5" />
<text x="312.0" y="106.0" font-size="13.0" fill="#e0e0e0" font-family="'Helvetica Neue', Helvetica, Arial, sans-serif" font-weight="bold" text-anchor="middle" dominant-baseline="auto">Star Genomegener</text>
<text x="128.0" y="109.0" font-size="13.0" fill="#e0e0e0" font-family="'Helvetica Neue', Helvetica, Arial, sans-serif" font-weight="bold" text-anchor="middle" dominant-baseline="auto">Fastqc</text>
<text x="822.0" y="106.0" font-size="13.0" fill="#e0e0e0" font-family="'Helvetica Neue', Helvetica, Arial, sans-serif" font-weight="bold" text-anchor="middle" dominant-baseline="auto">Salmon Quant</text>
<text x="958.5" y="137.0" font-size="13.0" fill="#e0e0e0" font-family="'Helvetica Neue', Helvetica, Arial, sans-serif" font-weight="bold" text-anchor="middle" dominant-baseline="hanging">Multiqc</text>
<text x="128.0" y="174.0" font-size="13.0" fill="#e0e0e0" font-family="'Helvetica Neue', Helvetica, Arial, sans-serif" font-weight="bold" text-anchor="middle" dominant-baseline="hanging">Trimgalore</text>
<text x="417.0" y="183.23303379776746" font-size="13.0" fill="#e0e0e0" font-family="'Helvetica Neue', Helvetica, Arial, sans-serif" font-weight="bold" text-anchor="middle" dominant-baseline="hanging">Star Align</text>
<text x="477.0" y="132.11651689888373" font-size="13.0" fill="#e0e0e0" font-family="'Helvetica Neue', Helvetica, Arial, sans-serif" font-weight="bold" text-anchor="middle" dominant-baseline="auto">Samtools Sort</text>
<text x="595.5" y="189.23303379776746" font-size="13.0" fill="#e0e0e0" font-family="'Helvetica Neue', Helvetica, Arial, sans-serif" font-weight="bold" text-anchor="middle" dominant-baseline="hanging">Samtools Index</text>
<rect x="60.0" y="268.23303379776746" width="229.40000000000003" height="120.0" rx="6" ry="6" fill="rgba(0, 0, 0, 0.3)" />
<path d="M72.0,292.23303379776746 L96.0,292.23303379776746" stroke="#2db572" stroke-width="3.0" stroke-linecap="round" />
<text x="108.0" y="292.23303379776746" font-size="14.0" fill="#e0e0e0" font-family="'Helvetica Neue', Helvetica, Arial, sans-serif" dy="0.3em">Main</text>
<path d="M72.0,316.23303379776746 L96.0,316.23303379776746" stroke="#f5c542" stroke-width="3.0" stroke-linecap="round" />
<text x="108.0" y="316.23303379776746" font-size="14.0" fill="#e0e0e0" font-family="'Helvetica Neue', Helvetica, Arial, sans-serif" dy="0.3em">Alignment - Reporting</text>
<path d="M72.0,340.23303379776746 L96.0,340.23303379776746" stroke="#0570b0" stroke-width="3.0" stroke-linecap="round" />
<text x="108.0" y="340.23303379776746" font-size="14.0" fill="#e0e0e0" font-family="'Helvetica Neue', Helvetica, Arial, sans-serif" dy="0.3em">Preprocess - Reporting</text>
<path d="M72.0,364.23303379776746 L96.0,364.23303379776746" stroke="#e63946" stroke-width="3.0" stroke-linecap="round" />
<text x="108.0" y="364.23303379776746" font-size="14.0" fill="#e0e0e0" font-family="'Helvetica Neue', Helvetica, Arial, sans-serif" dy="0.3em">Spur</text>
<text x="1038.0" y="404.0" font-size="8" fill="rgba(150, 150, 150, 0.6)" font-family="'Helvetica Neue', Helvetica, Arial, sans-serif" text-anchor="end">created with nf-metro v0.6.0+dev</text>
</svg>