<?xml version="1.0" encoding="UTF-8"?>
<svg xmlns="http://www.w3.org/2000/svg" xmlns:xlink="http://www.w3.org/1999/xlink"
     width="611" height="336" viewBox="0 0 611 336">
<defs>
</defs>
<style>.nf-metro-bg { fill: var(--nfm-bg, #2b2b2b); }
.nf-metro-title { fill: var(--nfm-title-color, #ffffff); }
.nf-metro-station-label { fill: var(--nfm-label-color, #e0e0e0); }
.nf-metro-section-box { fill: var(--nfm-section-fill, #373737); stroke: var(--nfm-section-stroke, #595959); }
.nf-metro-section-label { fill: var(--nfm-section-label-color, #c8c8c8); }
.nf-metro-group-label { fill: var(--nfm-section-label-color, #c8c8c8); }
.nf-metro-group-underline { stroke: var(--nfm-section-label-color, #c8c8c8); }
.nf-metro-legend-bg { fill: var(--nfm-legend-bg, rgba(0, 0, 0, 0.3)); }
.nf-metro-legend-text { fill: var(--nfm-legend-text-color, #e0e0e0); }</style>
<rect x="0" y="0" width="611" height="336" fill="#2b2b2b" class="nf-metro-bg" />
<text x="60.0" y="30.0" font-size="24.0" fill="#ffffff" font-family="'Helvetica Neue', Helvetica, Arial, sans-serif" font-weight="bold" class="nf-metro-title">TB Right Exit</text>
<rect x="30.0" y="70.0" width="160.0" height="100.0" rx="8" ry="8" fill="#373737" stroke="#595959" stroke-width="1.0" class="nf-metro-section-box" data-section-id="prep" data-section-lines="a,b" />
<circle cx="41.0" cy="55.0" r="11" fill="#333333" class="nf-metro-section-num-circle" data-section-id="prep" />
<text x="41.0" y="55.0" font-size="12" fill="#ffffff" font-family="'Helvetica Neue', Helvetica, Arial, sans-serif" font-weight="bold" text-anchor="middle" dy="0.3em" data-section-id="prep">1</text>
<text x="57.0" y="55.0" font-size="16.0" fill="#c8c8c8" font-family="'Helvetica Neue', Helvetica, Arial, sans-serif" font-weight="bold" dy="0.3em" class="nf-metro-section-label" data-section-id="prep">Prep</text>
<rect x="240.0" y="70.0" width="131.5" height="140.0" rx="8" ry="8" fill="#373737" stroke="#595959" stroke-width="1.0" class="nf-metro-section-box" data-section-id="work" data-section-lines="a,b" />
<circle cx="251.0" cy="225.0" r="11" fill="#333333" class="nf-metro-section-num-circle" data-section-id="work" />
<text x="251.0" y="225.0" font-size="12" fill="#ffffff" font-family="'Helvetica Neue', Helvetica, Arial, sans-serif" font-weight="bold" text-anchor="middle" dy="0.3em" data-section-id="work">2</text>
<text x="267.0" y="225.0" font-size="16.0" fill="#c8c8c8" font-family="'Helvetica Neue', Helvetica, Arial, sans-serif" font-weight="bold" dy="0.3em" class="nf-metro-section-label" data-section-id="work">Work</text>
<rect x="451.5" y="70.0" width="100.0" height="106.0" rx="8" ry="8" fill="#373737" stroke="#595959" stroke-width="1.0" class="nf-metro-section-box" data-section-id="report" data-section-lines="a,b" />
<circle cx="462.5" cy="55.0" r="11" fill="#333333" class="nf-metro-section-num-circle" data-section-id="report" />
<text x="462.5" y="55.0" font-size="12" fill="#ffffff" font-family="'Helvetica Neue', Helvetica, Arial, sans-serif" font-weight="bold" text-anchor="middle" dy="0.3em" data-section-id="report">3</text>
<text x="478.5" y="55.0" font-size="16.0" fill="#c8c8c8" font-family="'Helvetica Neue', Helvetica, Arial, sans-serif" font-weight="bold" dy="0.3em" class="nf-metro-section-label" data-section-id="report">Report</text>
<path d="M80.0,124.0 L140.0,124.0" stroke="#0570b0" stroke-width="3.0" stroke-linecap="round" class="metro-line-b" data-line-id="b" />
<path d="M321.5,120.0 L321.5,160.0" stroke="#0570b0" stroke-width="3.0" stroke-linecap="round" class="metro-line-b" data-line-id="b" />
<path d="M140.0,124.0 L190.0,124.0" stroke="#0570b0" stroke-width="3.0" stroke-linecap="round" class="metro-line-b" data-line-id="b" />
<path d="M321.5,70.0 L321.5,120.0" stroke="#0570b0" stroke-width="3.0" stroke-linecap="round" class="metro-line-b" data-line-id="b" />
<path d="M321.5,160.0 L321.5,176.0 Q321.5,190.0,335.5,190.0 L371.5,190.0" stroke="#0570b0" stroke-width="3.0" fill="none" stroke-linecap="round" stroke-linejoin="round" class="metro-line-b" data-line-id="b" />
<path d="M451.5,164.0 L457.7360679774998,164.0 Q467.7360679774998,164.0,472.2082039324994,155.05572809000085 L483.26393202250017,132.94427190999915 Q487.7360679774998,124.0,497.7360679774998,124.0 L501.5,124.0" stroke="#0570b0" stroke-width="3.0" fill="none" stroke-linecap="round" stroke-linejoin="round" class="metro-line-b" data-line-id="b" />
<path d="M190.0,124.0 L190.0,124.0 Q204.0,124.0,204.0,110.0 L204.0,58.0 Q204.0,48.0,214.0,48.0 L311.5,48.0 Q321.5,48.0,321.5,58.0 L321.5,70.0" stroke="#0570b0" stroke-width="3.0" fill="none" stroke-linecap="round" stroke-linejoin="round" class="metro-line-b" data-line-id="b" />
<path d="M371.5,190.0 L399.5,190.0 Q413.5,190.0,413.5,176.0 L413.5,174.0 Q413.5,164.0,423.5,164.0 L451.5,164.0" stroke="#0570b0" stroke-width="3.0" fill="none" stroke-linecap="round" stroke-linejoin="round" class="metro-line-b" data-line-id="b" />
<path d="M80.0,120.0 L140.0,120.0" stroke="#e63946" stroke-width="3.0" stroke-linecap="round" class="metro-line-a" data-line-id="a" />
<path d="M325.5,120.0 L325.5,160.0" stroke="#e63946" stroke-width="3.0" stroke-linecap="round" class="metro-line-a" data-line-id="a" />
<path d="M140.0,120.0 L190.0,120.0" stroke="#e63946" stroke-width="3.0" stroke-linecap="round" class="metro-line-a" data-line-id="a" />
<path d="M325.5,70.0 L325.5,120.0" stroke="#e63946" stroke-width="3.0" stroke-linecap="round" class="metro-line-a" data-line-id="a" />
<path d="M325.5,160.0 L325.5,176.0 Q325.5,186.0,335.5,186.0 L371.5,186.0" stroke="#e63946" stroke-width="3.0" fill="none" stroke-linecap="round" stroke-linejoin="round" class="metro-line-a" data-line-id="a" />
<path d="M451.5,160.0 L455.2639320225002,160.0 Q465.2639320225002,160.0,469.73606797749983,151.05572809000085 L480.7917960675006,128.94427190999915 Q485.2639320225002,120.0,495.2639320225002,120.0 L501.5,120.0" stroke="#e63946" stroke-width="3.0" fill="none" stroke-linecap="round" stroke-linejoin="round" class="metro-line-a" data-line-id="a" />
<path d="M190.0,120.0 L190.0,120.0 Q200.0,120.0,200.0,110.0 L200.0,58.0 Q200.0,44.0,214.0,44.0 L311.5,44.0 Q325.5,44.0,325.5,58.0 L325.5,70.0" stroke="#e63946" stroke-width="3.0" fill="none" stroke-linecap="round" stroke-linejoin="round" class="metro-line-a" data-line-id="a" />
<path d="M371.5,186.0 L399.5,186.0 Q409.5,186.0,409.5,176.0 L409.5,174.0 Q409.5,160.0,423.5,160.0 L451.5,160.0" stroke="#e63946" stroke-width="3.0" fill="none" stroke-linecap="round" stroke-linejoin="round" class="metro-line-a" data-line-id="a" />
<rect x="75.0" y="115.0" width="10.0" height="14.0" rx="5.0" ry="5.0" fill="#ffffff" stroke="#333333" stroke-width="1.5" class="nf-metro-station" data-station-id="p1" data-station-lines="a,b" data-station-label="Start" data-section-id="prep" data-section-name="Prep" />
<rect x="135.0" y="115.0" width="10.0" height="14.0" rx="5.0" ry="5.0" fill="#ffffff" stroke="#333333" stroke-width="1.5" class="nf-metro-station" data-station-id="p2" data-station-lines="a,b" data-station-label="End" data-section-id="prep" data-section-name="Prep" />
<rect x="316.5" y="115.0" width="14.0" height="10.0" rx="5.0" ry="5.0" fill="#ffffff" stroke="#333333" stroke-width="1.5" class="nf-metro-station" data-station-id="w1" data-station-lines="a,b" data-station-label="Process" data-section-id="work" data-section-name="Work" />
<rect x="316.5" y="155.0" width="14.0" height="10.0" rx="5.0" ry="5.0" fill="#ffffff" stroke="#333333" stroke-width="1.5" class="nf-metro-station" data-station-id="w2" data-station-lines="a,b" data-station-label="Collect" data-section-id="work" data-section-name="Work" />
<rect x="496.5" y="115.0" width="10.0" height="14.0" rx="5.0" ry="5.0" fill="#ffffff" stroke="#333333" stroke-width="1.5" class="nf-metro-station" data-station-id="r1" data-station-lines="a,b" data-station-label="Publish" data-section-id="report" data-section-name="Report" />
<text x="80.0" y="135.0" font-size="13.0" fill="#2b2b2b" stroke="#2b2b2b" stroke-width="3.0" stroke-linejoin="round" font-family="'Helvetica Neue', Helvetica, Arial, sans-serif" font-weight="bold" aria-hidden="true" text-anchor="middle" dominant-baseline="hanging">Start</text>
<text x="80.0" y="135.0" font-size="13.0" fill="#e0e0e0" font-family="'Helvetica Neue', Helvetica, Arial, sans-serif" font-weight="bold" text-anchor="middle" dominant-baseline="hanging" data-station-id="p1" class="nf-metro-station-label">Start</text>
<text x="309.0" y="120.0" font-size="13.0" fill="#2b2b2b" stroke="#2b2b2b" stroke-width="3.0" stroke-linejoin="round" font-family="'Helvetica Neue', Helvetica, Arial, sans-serif" font-weight="bold" aria-hidden="true" text-anchor="end" dominant-baseline="central">Process</text>
<text x="309.0" y="120.0" font-size="13.0" fill="#e0e0e0" font-family="'Helvetica Neue', Helvetica, Arial, sans-serif" font-weight="bold" text-anchor="end" dominant-baseline="central" data-station-id="w1" class="nf-metro-station-label">Process</text>
<text x="501.5" y="106.0" font-size="13.0" fill="#2b2b2b" stroke="#2b2b2b" stroke-width="3.0" stroke-linejoin="round" font-family="'Helvetica Neue', Helvetica, Arial, sans-serif" font-weight="bold" aria-hidden="true" text-anchor="middle" dominant-baseline="auto">Publish</text>
<text x="501.5" y="106.0" font-size="13.0" fill="#e0e0e0" font-family="'Helvetica Neue', Helvetica, Arial, sans-serif" font-weight="bold" text-anchor="middle" dominant-baseline="auto" data-station-id="r1" class="nf-metro-station-label">Publish</text>
<text x="140.0" y="106.0" font-size="13.0" fill="#2b2b2b" stroke="#2b2b2b" stroke-width="3.0" stroke-linejoin="round" font-family="'Helvetica Neue', Helvetica, Arial, sans-serif" font-weight="bold" aria-hidden="true" text-anchor="middle" dominant-baseline="auto">End</text>
<text x="140.0" y="106.0" font-size="13.0" fill="#e0e0e0" font-family="'Helvetica Neue', Helvetica, Arial, sans-serif" font-weight="bold" text-anchor="middle" dominant-baseline="auto" data-station-id="p2" class="nf-metro-station-label">End</text>
<text x="309.0" y="160.0" font-size="13.0" fill="#2b2b2b" stroke="#2b2b2b" stroke-width="3.0" stroke-linejoin="round" font-family="'Helvetica Neue', Helvetica, Arial, sans-serif" font-weight="bold" aria-hidden="true" text-anchor="end" dominant-baseline="central">Collect</text>
<text x="309.0" y="160.0" font-size="13.0" fill="#e0e0e0" font-family="'Helvetica Neue', Helvetica, Arial, sans-serif" font-weight="bold" text-anchor="end" dominant-baseline="central" data-station-id="w2" class="nf-metro-station-label">Collect</text>
<circle cx="325.5" cy="186.0" r="3.0" fill="rgba(255, 200, 50, 0.6)" />
<circle cx="465.2639320225002" cy="160.0" r="3.0" fill="rgba(255, 200, 50, 0.6)" />
<circle cx="485.2639320225002" cy="120.0" r="3.0" fill="rgba(255, 200, 50, 0.6)" />
<circle cx="321.5" cy="190.0" r="3.0" fill="rgba(255, 200, 50, 0.6)" />
<circle cx="467.7360679774998" cy="164.0" r="3.0" fill="rgba(255, 200, 50, 0.6)" />
<circle cx="487.7360679774998" cy="124.0" r="3.0" fill="rgba(255, 200, 50, 0.6)" />
<circle cx="200.0" cy="120.0" r="3.0" fill="rgba(255, 200, 50, 0.6)" />
<circle cx="200.0" cy="44.0" r="3.0" fill="rgba(255, 200, 50, 0.6)" />
<circle cx="325.5" cy="44.0" r="3.0" fill="rgba(255, 200, 50, 0.6)" />
<circle cx="204.0" cy="124.0" r="3.0" fill="rgba(255, 200, 50, 0.6)" />
<circle cx="204.0" cy="48.0" r="3.0" fill="rgba(255, 200, 50, 0.6)" />
<circle cx="321.5" cy="48.0" r="3.0" fill="rgba(255, 200, 50, 0.6)" />
<circle cx="409.5" cy="186.0" r="3.0" fill="rgba(255, 200, 50, 0.6)" />
<circle cx="409.5" cy="160.0" r="3.0" fill="rgba(255, 200, 50, 0.6)" />
<circle cx="413.5" cy="190.0" r="3.0" fill="rgba(255, 200, 50, 0.6)" />
<circle cx="413.5" cy="164.0" r="3.0" fill="rgba(255, 200, 50, 0.6)" />
<path d="M190.0,115.0 L195.0,120.0 L190.0,125.0 L185.0,120.0 Z" fill="rgba(80, 180, 255, 0.7)" stroke="none" />
<text x="190.0" y="112.0" font-size="7" fill="rgba(80, 180, 255, 0.7)" font-family="'Helvetica Neue', Helvetica, Arial, sans-serif" text-anchor="middle" dominant-baseline="auto">prep__exit_right_0 (right)</text>
<path d="M371.5,181.0 L376.5,186.0 L371.5,191.0 L366.5,186.0 Z" fill="rgba(80, 180, 255, 0.7)" stroke="none" />
<text x="371.5" y="178.0" font-size="7" fill="rgba(80, 180, 255, 0.7)" font-family="'Helvetica Neue', Helvetica, Arial, sans-serif" text-anchor="middle" dominant-baseline="auto">work__exit_right_1 (right)</text>
<path d="M321.5,65.0 L326.5,70.0 L321.5,75.0 L316.5,70.0 Z" fill="rgba(255, 80, 80, 0.7)" stroke="none" />
<text x="321.5" y="62.0" font-size="7" fill="rgba(255, 80, 80, 0.7)" font-family="'Helvetica Neue', Helvetica, Arial, sans-serif" text-anchor="middle" dominant-baseline="auto">work__entry_top_2 (top)</text>
<path d="M451.5,155.0 L456.5,160.0 L451.5,165.0 L446.5,160.0 Z" fill="rgba(255, 80, 80, 0.7)" stroke="none" />
<text x="451.5" y="152.0" font-size="7" fill="rgba(255, 80, 80, 0.7)" font-family="'Helvetica Neue', Helvetica, Arial, sans-serif" text-anchor="middle" dominant-baseline="auto">report__entry_left_3 (left)</text>
<path d="M215.0,50.0 L215.0,230.0" stroke="rgba(255, 255, 0, 0.5)" stroke-width="1" stroke-dasharray="6,4" />
<text x="215.0" y="46.0" font-size="7" fill="rgba(255, 255, 0, 0.5)" font-family="'Helvetica Neue', Helvetica, Arial, sans-serif" text-anchor="middle">col 0|1</text>
<path d="M411.5,50.0 L411.5,230.0" stroke="rgba(255, 255, 0, 0.5)" stroke-width="1" stroke-dasharray="6,4" />
<text x="411.5" y="46.0" font-size="7" fill="rgba(255, 255, 0, 0.5)" font-family="'Helvetica Neue', Helvetica, Arial, sans-serif" text-anchor="middle">col 1|2</text>
<path d="M20.0,120.0 L200.0,120.0" stroke="rgba(80, 255, 180, 0.5)" stroke-width="0.75" stroke-dasharray="4,6" />
<text x="16.0" y="120.0" font-size="7" fill="rgba(80, 255, 180, 0.5)" font-family="'Helvetica Neue', Helvetica, Arial, sans-serif" text-anchor="end">row 0 grid</text>
<path d="M230.0,120.0 L381.5,120.0" stroke="rgba(80, 255, 180, 0.5)" stroke-width="0.75" stroke-dasharray="4,6" />
<text x="226.0" y="120.0" font-size="7" fill="rgba(80, 255, 180, 0.5)" font-family="'Helvetica Neue', Helvetica, Arial, sans-serif" text-anchor="end">row 0 grid</text>
<path d="M230.0,160.0 L381.5,160.0" stroke="rgba(80, 255, 180, 0.5)" stroke-width="0.75" stroke-dasharray="4,6" />
<path d="M441.5,120.0 L561.5,120.0" stroke="rgba(80, 255, 180, 0.5)" stroke-width="0.75" stroke-dasharray="4,6" />
<text x="437.5" y="120.0" font-size="7" fill="rgba(80, 255, 180, 0.5)" font-family="'Helvetica Neue', Helvetica, Arial, sans-serif" text-anchor="end">row 0 grid</text>
<rect x="30.0" y="240.0" width="67.7" height="72.0" rx="6" ry="6" fill="rgba(0, 0, 0, 0.3)" class="nf-metro-legend-bg" />
<path d="M42.0,264.0 L66.0,264.0" stroke="#e63946" stroke-width="3.0" stroke-linecap="round" />
<text x="78.0" y="264.0" font-size="14.0" fill="#e0e0e0" font-family="'Helvetica Neue', Helvetica, Arial, sans-serif" dy="0.3em" class="nf-metro-legend-text">A</text>
<path d="M42.0,288.0 L66.0,288.0" stroke="#0570b0" stroke-width="3.0" stroke-linecap="round" />
<text x="78.0" y="288.0" font-size="14.0" fill="#e0e0e0" font-family="'Helvetica Neue', Helvetica, Arial, sans-serif" dy="0.3em" class="nf-metro-legend-text">B</text>
<text x="581.0" y="328.0" font-size="8" fill="rgba(150, 150, 150, 0.6)" font-family="'Helvetica Neue', Helvetica, Arial, sans-serif" text-anchor="end">created with nf-metro v0.7.2+dev</text>
</svg>