<?xml version="1.0" encoding="UTF-8"?>
<svg xmlns="http://www.w3.org/2000/svg" xmlns:xlink="http://www.w3.org/1999/xlink"
     width="610" height="296" viewBox="0 0 610 296">
<defs>
</defs>
<rect x="0" y="0" width="610" height="296" fill="#2b2b2b" />
<text x="60.0" y="30.0" font-size="24.0" fill="#ffffff" font-family="'Helvetica Neue', Helvetica, Arial, sans-serif" font-weight="bold" class="nf-metro-title">LR Perp Top Exit into Side Entry</text>
<rect x="60.0" y="70.0" width="100.0" height="100.0" rx="8" ry="8" fill="#373737" stroke="#595959" stroke-width="1.0" class="nf-metro-section-box" data-section-id="src" data-section-lines="a,b" />
<circle cx="71.0" cy="55.0" r="11" fill="#333333" class="nf-metro-section-num-circle" data-section-id="src" />
<text x="71.0" y="55.0" font-size="12" fill="#ffffff" font-family="'Helvetica Neue', Helvetica, Arial, sans-serif" font-weight="bold" text-anchor="middle" dy="0.3em" data-section-id="src">1</text>
<text x="87.0" y="55.0" font-size="16.0" fill="#aaaaaa" font-family="'Helvetica Neue', Helvetica, Arial, sans-serif" font-weight="bold" dy="0.3em" class="nf-metro-section-label" data-section-id="src">Source</text>
<rect x="210.0" y="70.0" width="160.0" height="100.0" rx="8" ry="8" fill="#373737" stroke="#595959" stroke-width="1.0" class="nf-metro-section-box" data-section-id="mid" data-section-lines="a,b" />
<circle cx="221.0" cy="55.0" r="11" fill="#333333" class="nf-metro-section-num-circle" data-section-id="mid" />
<text x="221.0" y="55.0" font-size="12" fill="#ffffff" font-family="'Helvetica Neue', Helvetica, Arial, sans-serif" font-weight="bold" text-anchor="middle" dy="0.3em" data-section-id="mid">2</text>
<text x="237.0" y="55.0" font-size="16.0" fill="#aaaaaa" font-family="'Helvetica Neue', Helvetica, Arial, sans-serif" font-weight="bold" dy="0.3em" class="nf-metro-section-label" data-section-id="mid">Middle</text>
<rect x="450.0" y="70.0" width="100.0" height="100.0" rx="8" ry="8" fill="#373737" stroke="#595959" stroke-width="1.0" class="nf-metro-section-box" data-section-id="dst" data-section-lines="a,b" />
<circle cx="461.0" cy="55.0" r="11" fill="#333333" class="nf-metro-section-num-circle" data-section-id="dst" />
<text x="461.0" y="55.0" font-size="12" fill="#ffffff" font-family="'Helvetica Neue', Helvetica, Arial, sans-serif" font-weight="bold" text-anchor="middle" dy="0.3em" data-section-id="dst">3</text>
<text x="477.0" y="55.0" font-size="16.0" fill="#aaaaaa" font-family="'Helvetica Neue', Helvetica, Arial, sans-serif" font-weight="bold" dy="0.3em" class="nf-metro-section-label" data-section-id="dst">Destination</text>
<path d="M260.0,123.0 L320.0,123.0" stroke="#0570b0" stroke-width="3.0" stroke-linecap="round" class="metro-line-b" data-line-id="b" />
<path d="M110.0,123.0 L160.0,123.0" stroke="#0570b0" stroke-width="3.0" stroke-linecap="round" class="metro-line-b" data-line-id="b" />
<path d="M210.0,123.0 L260.0,123.0" stroke="#0570b0" stroke-width="3.0" stroke-linecap="round" class="metro-line-b" data-line-id="b" />
<path d="M320.0,123.0 L332.0,123.0 Q345.0,123.0,345.0,110.0 L345.0,70.0" stroke="#0570b0" stroke-width="3.0" fill="none" stroke-linecap="round" stroke-linejoin="round" class="metro-line-b" data-line-id="b" />
<path d="M450.0,123.0 L500.0,123.0" stroke="#0570b0" stroke-width="3.0" stroke-linecap="round" class="metro-line-b" data-line-id="b" />
<path d="M160.0,123.0 L210.0,123.0" stroke="#0570b0" stroke-width="3.0" stroke-linecap="round" class="metro-line-b" data-line-id="b" />
<path d="M345.0,70.0 L345.0,54.0 Q345.0,47.0,352.0,47.0 L400.0,47.0 Q407.0,47.0,407.0,54.0 L407.0,110.0 Q407.0,123.0,420.0,123.0 L450.0,123.0" stroke="#0570b0" stroke-width="3.0" fill="none" stroke-linecap="round" stroke-linejoin="round" class="metro-line-b" data-line-id="b" />
<path d="M260.0,120.0 L320.0,120.0" stroke="#e63946" stroke-width="3.0" stroke-linecap="round" class="metro-line-a" data-line-id="a" />
<path d="M110.0,120.0 L160.0,120.0" stroke="#e63946" stroke-width="3.0" stroke-linecap="round" class="metro-line-a" data-line-id="a" />
<path d="M210.0,120.0 L260.0,120.0" stroke="#e63946" stroke-width="3.0" stroke-linecap="round" class="metro-line-a" data-line-id="a" />
<path d="M320.0,120.0 L332.0,120.0 Q342.0,120.0,342.0,110.0 L342.0,70.0" stroke="#e63946" stroke-width="3.0" fill="none" stroke-linecap="round" stroke-linejoin="round" class="metro-line-a" data-line-id="a" />
<path d="M450.0,120.0 L500.0,120.0" stroke="#e63946" stroke-width="3.0" stroke-linecap="round" class="metro-line-a" data-line-id="a" />
<path d="M160.0,120.0 L210.0,120.0" stroke="#e63946" stroke-width="3.0" stroke-linecap="round" class="metro-line-a" data-line-id="a" />
<path d="M342.0,70.0 L342.0,54.0 Q342.0,44.0,352.0,44.0 L400.0,44.0 Q410.0,44.0,410.0,54.0 L410.0,110.0 Q410.0,120.0,420.0,120.0 L450.0,120.0" stroke="#e63946" stroke-width="3.0" fill="none" stroke-linecap="round" stroke-linejoin="round" class="metro-line-a" data-line-id="a" />
<rect x="105.0" y="115.0" width="10.0" height="13.0" rx="5.0" ry="5.0" fill="#ffffff" stroke="#333333" stroke-width="1.5" class="nf-metro-station" data-station-id="s1" data-station-lines="a,b" data-station-label="Start" data-section-id="src" data-section-name="Source" />
<rect x="255.0" y="115.0" width="10.0" height="13.0" rx="5.0" ry="5.0" fill="#ffffff" stroke="#333333" stroke-width="1.5" class="nf-metro-station" data-station-id="m1" data-station-lines="a,b" data-station-label="Step 1" data-section-id="mid" data-section-name="Middle" />
<rect x="315.0" y="115.0" width="10.0" height="13.0" rx="5.0" ry="5.0" fill="#ffffff" stroke="#333333" stroke-width="1.5" class="nf-metro-station" data-station-id="m2" data-station-lines="a,b" data-station-label="Step 2" data-section-id="mid" data-section-name="Middle" />
<rect x="495.0" y="115.0" width="10.0" height="13.0" rx="5.0" ry="5.0" fill="#ffffff" stroke="#333333" stroke-width="1.5" class="nf-metro-station" data-station-id="d1" data-station-lines="a,b" data-station-label="Finish" data-section-id="dst" data-section-name="Destination" />
<text x="260.0" y="134.0" font-size="13.0" fill="#e0e0e0" font-family="'Helvetica Neue', Helvetica, Arial, sans-serif" font-weight="bold" text-anchor="middle" dominant-baseline="hanging" data-station-id="m1" class="nf-metro-station-label">Step 1</text>
<text x="110.0" y="134.0" font-size="13.0" fill="#e0e0e0" font-family="'Helvetica Neue', Helvetica, Arial, sans-serif" font-weight="bold" text-anchor="middle" dominant-baseline="hanging" data-station-id="s1" class="nf-metro-station-label">Start</text>
<text x="500.0" y="134.0" font-size="13.0" fill="#e0e0e0" font-family="'Helvetica Neue', Helvetica, Arial, sans-serif" font-weight="bold" text-anchor="middle" dominant-baseline="hanging" data-station-id="d1" class="nf-metro-station-label">Finish</text>
<text x="320.0" y="134.0" font-size="13.0" fill="#e0e0e0" font-family="'Helvetica Neue', Helvetica, Arial, sans-serif" font-weight="bold" text-anchor="middle" dominant-baseline="hanging" data-station-id="m2" class="nf-metro-station-label">Step 2</text>
<circle cx="342.0" cy="120.0" r="3.0" fill="rgba(255, 200, 50, 0.6)" />
<circle cx="345.0" cy="123.0" r="3.0" fill="rgba(255, 200, 50, 0.6)" />
<circle cx="342.0" cy="44.0" r="3.0" fill="rgba(255, 200, 50, 0.6)" />
<circle cx="410.0" cy="44.0" r="3.0" fill="rgba(255, 200, 50, 0.6)" />
<circle cx="410.0" cy="120.0" r="3.0" fill="rgba(255, 200, 50, 0.6)" />
<circle cx="345.0" cy="47.0" r="3.0" fill="rgba(255, 200, 50, 0.6)" />
<circle cx="407.0" cy="47.0" r="3.0" fill="rgba(255, 200, 50, 0.6)" />
<circle cx="407.0" cy="123.0" r="3.0" fill="rgba(255, 200, 50, 0.6)" />
<path d="M160.0,115.0 L165.0,120.0 L160.0,125.0 L155.0,120.0 Z" fill="rgba(80, 180, 255, 0.7)" stroke="none" />
<text x="160.0" y="112.0" font-size="7" fill="rgba(80, 180, 255, 0.7)" font-family="'Helvetica Neue', Helvetica, Arial, sans-serif" text-anchor="middle" dominant-baseline="auto">src__exit_right_0 (right)</text>
<path d="M342.0,65.0 L347.0,70.0 L342.0,75.0 L337.0,70.0 Z" fill="rgba(80, 180, 255, 0.7)" stroke="none" />
<text x="342.0" y="62.0" font-size="7" fill="rgba(80, 180, 255, 0.7)" font-family="'Helvetica Neue', Helvetica, Arial, sans-serif" text-anchor="middle" dominant-baseline="auto">mid__exit_top_1 (top)</text>
<path d="M210.0,115.0 L215.0,120.0 L210.0,125.0 L205.0,120.0 Z" fill="rgba(255, 80, 80, 0.7)" stroke="none" />
<text x="210.0" y="112.0" font-size="7" fill="rgba(255, 80, 80, 0.7)" font-family="'Helvetica Neue', Helvetica, Arial, sans-serif" text-anchor="middle" dominant-baseline="auto">mid__entry_left_2 (left)</text>
<path d="M450.0,115.0 L455.0,120.0 L450.0,125.0 L445.0,120.0 Z" fill="rgba(255, 80, 80, 0.7)" stroke="none" />
<text x="450.0" y="112.0" font-size="7" fill="rgba(255, 80, 80, 0.7)" font-family="'Helvetica Neue', Helvetica, Arial, sans-serif" text-anchor="middle" dominant-baseline="auto">dst__entry_left_3 (left)</text>
<path d="M185.0,50.0 L185.0,190.0" stroke="rgba(255, 255, 0, 0.5)" stroke-width="1" stroke-dasharray="6,4" />
<text x="185.0" y="46.0" font-size="7" fill="rgba(255, 255, 0, 0.5)" font-family="'Helvetica Neue', Helvetica, Arial, sans-serif" text-anchor="middle">col 0|1</text>
<path d="M410.0,50.0 L410.0,190.0" stroke="rgba(255, 255, 0, 0.5)" stroke-width="1" stroke-dasharray="6,4" />
<text x="410.0" y="46.0" font-size="7" fill="rgba(255, 255, 0, 0.5)" font-family="'Helvetica Neue', Helvetica, Arial, sans-serif" text-anchor="middle">col 1|2</text>
<path d="M50.0,120.0 L170.0,120.0" stroke="rgba(80, 255, 180, 0.5)" stroke-width="0.75" stroke-dasharray="4,6" />
<text x="46.0" y="120.0" font-size="7" fill="rgba(80, 255, 180, 0.5)" font-family="'Helvetica Neue', Helvetica, Arial, sans-serif" text-anchor="end">row 0 grid</text>
<path d="M200.0,120.0 L380.0,120.0" stroke="rgba(80, 255, 180, 0.5)" stroke-width="0.75" stroke-dasharray="4,6" />
<text x="196.0" y="120.0" font-size="7" fill="rgba(80, 255, 180, 0.5)" font-family="'Helvetica Neue', Helvetica, Arial, sans-serif" text-anchor="end">row 0 grid</text>
<path d="M440.0,120.0 L560.0,120.0" stroke="rgba(80, 255, 180, 0.5)" stroke-width="0.75" stroke-dasharray="4,6" />
<text x="436.0" y="120.0" font-size="7" fill="rgba(80, 255, 180, 0.5)" font-family="'Helvetica Neue', Helvetica, Arial, sans-serif" text-anchor="end">row 0 grid</text>
<rect x="60.0" y="200.0" width="106.2" height="72.0" rx="6" ry="6" fill="rgba(0, 0, 0, 0.3)" />
<path d="M72.0,224.0 L96.0,224.0" stroke="#e63946" stroke-width="3.0" stroke-linecap="round" />
<text x="108.0" y="224.0" font-size="14.0" fill="#e0e0e0" font-family="'Helvetica Neue', Helvetica, Arial, sans-serif" dy="0.3em">Line A</text>
<path d="M72.0,248.0 L96.0,248.0" stroke="#0570b0" stroke-width="3.0" stroke-linecap="round" />
<text x="108.0" y="248.0" font-size="14.0" fill="#e0e0e0" font-family="'Helvetica Neue', Helvetica, Arial, sans-serif" dy="0.3em">Line B</text>
<text x="580.0" y="288.0" font-size="8" fill="rgba(150, 150, 150, 0.6)" font-family="'Helvetica Neue', Helvetica, Arial, sans-serif" text-anchor="end">created with nf-metro v0.7.2+dev</text>
</svg>