<?xml version="1.0" encoding="UTF-8"?>
<svg xmlns="http://www.w3.org/2000/svg" xmlns:xlink="http://www.w3.org/1999/xlink"
     width="880" height="324" viewBox="0 0 880 324">
<defs>
</defs>
<rect x="0" y="0" width="880" height="324" fill="#2b2b2b" />
<text x="60.0" y="30.0" font-size="24.0" fill="#ffffff" font-family="'Helvetica Neue', Helvetica, Arial, sans-serif" font-weight="bold" class="nf-metro-title">Fan-In Merge</text>
<rect x="30.0" y="70.0" width="160.0" height="100.0" rx="8" ry="8" fill="#373737" stroke="#595959" stroke-width="1.0" class="nf-metro-section-box" data-section-id="source" data-section-lines="aux,main" />
<circle cx="41.0" cy="55.0" r="11" fill="#333333" class="nf-metro-section-num-circle" data-section-id="source" />
<text x="41.0" y="55.0" font-size="12" fill="#ffffff" font-family="'Helvetica Neue', Helvetica, Arial, sans-serif" font-weight="bold" text-anchor="middle" dy="0.3em" data-section-id="source">1</text>
<text x="57.0" y="55.0" font-size="16.0" fill="#aaaaaa" font-family="'Helvetica Neue', Helvetica, Arial, sans-serif" font-weight="bold" dy="0.3em" class="nf-metro-section-label" data-section-id="source">Source</text>
<rect x="240.0" y="70.0" width="160.0" height="100.0" rx="8" ry="8" fill="#373737" stroke="#595959" stroke-width="1.0" class="nf-metro-section-box" data-section-id="step_a" data-section-lines="main" />
<circle cx="251.0" cy="55.0" r="11" fill="#333333" class="nf-metro-section-num-circle" data-section-id="step_a" />
<text x="251.0" y="55.0" font-size="12" fill="#ffffff" font-family="'Helvetica Neue', Helvetica, Arial, sans-serif" font-weight="bold" text-anchor="middle" dy="0.3em" data-section-id="step_a">2</text>
<text x="267.0" y="55.0" font-size="16.0" fill="#aaaaaa" font-family="'Helvetica Neue', Helvetica, Arial, sans-serif" font-weight="bold" dy="0.3em" class="nf-metro-section-label" data-section-id="step_a">Step A</text>
<rect x="450.0" y="70.0" width="160.0" height="100.0" rx="8" ry="8" fill="#373737" stroke="#595959" stroke-width="1.0" class="nf-metro-section-box" data-section-id="step_b" data-section-lines="main" />
<circle cx="461.0" cy="55.0" r="11" fill="#333333" class="nf-metro-section-num-circle" data-section-id="step_b" />
<text x="461.0" y="55.0" font-size="12" fill="#ffffff" font-family="'Helvetica Neue', Helvetica, Arial, sans-serif" font-weight="bold" text-anchor="middle" dy="0.3em" data-section-id="step_b">3</text>
<text x="477.0" y="55.0" font-size="16.0" fill="#aaaaaa" font-family="'Helvetica Neue', Helvetica, Arial, sans-serif" font-weight="bold" dy="0.3em" class="nf-metro-section-label" data-section-id="step_b">Step B</text>
<rect x="660.0" y="70.0" width="160.0" height="100.0" rx="8" ry="8" fill="#373737" stroke="#595959" stroke-width="1.0" class="nf-metro-section-box" data-section-id="sink" data-section-lines="aux,main" />
<circle cx="671.0" cy="55.0" r="11" fill="#333333" class="nf-metro-section-num-circle" data-section-id="sink" />
<text x="671.0" y="55.0" font-size="12" fill="#ffffff" font-family="'Helvetica Neue', Helvetica, Arial, sans-serif" font-weight="bold" text-anchor="middle" dy="0.3em" data-section-id="sink">4</text>
<text x="687.0" y="55.0" font-size="16.0" fill="#aaaaaa" font-family="'Helvetica Neue', Helvetica, Arial, sans-serif" font-weight="bold" dy="0.3em" class="nf-metro-section-label" data-section-id="sink">Sink</text>
<path d="M80.0,123.0 L140.0,123.0" stroke="#2db572" stroke-width="3.0" stroke-linecap="round" class="metro-line-aux" data-line-id="aux" />
<path d="M710.0,123.0 L770.0,123.0" stroke="#2db572" stroke-width="3.0" stroke-linecap="round" class="metro-line-aux" data-line-id="aux" />
<path d="M140.0,123.0 L190.0,123.0" stroke="#2db572" stroke-width="3.0" stroke-linecap="round" class="metro-line-aux" data-line-id="aux" />
<path d="M660.0,123.0 L710.0,123.0" stroke="#2db572" stroke-width="3.0" stroke-linecap="round" class="metro-line-aux" data-line-id="aux" />
<path d="M190.0,123.0 L200.0,123.0" stroke="#2db572" stroke-width="3.0" stroke-linecap="round" class="metro-line-aux" data-line-id="aux" />
<path d="M200.0,123.0 L200.0,123.0 Q210.0,123.0,210.0,133.0 L210.0,185.0 Q210.0,198.0,223.0,198.0 L637.0,198.0 Q650.0,198.0,650.0,185.0 L650.0,133.0 Q650.0,123.0,660.0,123.0 L660.0,123.0" stroke="#2db572" stroke-width="3.0" fill="none" stroke-linecap="round" stroke-linejoin="round" class="metro-line-aux" data-line-id="aux" />
<path d="M80.0,120.0 L140.0,120.0" stroke="#0570b0" stroke-width="3.0" stroke-linecap="round" class="metro-line-main" data-line-id="main" />
<path d="M290.0,120.0 L350.0,120.0" stroke="#0570b0" stroke-width="3.0" stroke-linecap="round" class="metro-line-main" data-line-id="main" />
<path d="M500.0,120.0 L560.0,120.0" stroke="#0570b0" stroke-width="3.0" stroke-linecap="round" class="metro-line-main" data-line-id="main" />
<path d="M710.0,120.0 L770.0,120.0" stroke="#0570b0" stroke-width="3.0" stroke-linecap="round" class="metro-line-main" data-line-id="main" />
<path d="M140.0,120.0 L190.0,120.0" stroke="#0570b0" stroke-width="3.0" stroke-linecap="round" class="metro-line-main" data-line-id="main" />
<path d="M240.0,120.0 L290.0,120.0" stroke="#0570b0" stroke-width="3.0" stroke-linecap="round" class="metro-line-main" data-line-id="main" />
<path d="M450.0,120.0 L500.0,120.0" stroke="#0570b0" stroke-width="3.0" stroke-linecap="round" class="metro-line-main" data-line-id="main" />
<path d="M660.0,120.0 L710.0,120.0" stroke="#0570b0" stroke-width="3.0" stroke-linecap="round" class="metro-line-main" data-line-id="main" />
<path d="M350.0,120.0 L400.0,120.0" stroke="#0570b0" stroke-width="3.0" stroke-linecap="round" class="metro-line-main" data-line-id="main" />
<path d="M560.0,120.0 L610.0,120.0" stroke="#0570b0" stroke-width="3.0" stroke-linecap="round" class="metro-line-main" data-line-id="main" />
<path d="M190.0,120.0 L200.0,120.0" stroke="#0570b0" stroke-width="3.0" stroke-linecap="round" class="metro-line-main" data-line-id="main" />
<path d="M200.0,120.0 L240.0,120.0" stroke="#0570b0" stroke-width="3.0" stroke-linecap="round" class="metro-line-main" data-line-id="main" />
<path d="M400.0,120.0 L410.0,120.0" stroke="#0570b0" stroke-width="3.0" stroke-linecap="round" class="metro-line-main" data-line-id="main" />
<path d="M610.0,120.0 L660.0,120.0" stroke="#0570b0" stroke-width="3.0" stroke-linecap="round" class="metro-line-main" data-line-id="main" />
<path d="M200.0,120.0 L200.0,120.0 Q213.0,120.0,213.0,133.0 L213.0,185.0 Q213.0,195.0,223.0,195.0 L428.0,195.0 Q438.0,195.0,438.0,185.0 L438.0,130.0 Q438.0,120.0,448.0,120.0 L450.0,120.0" stroke="#0570b0" stroke-width="3.0" fill="none" stroke-linecap="round" stroke-linejoin="round" class="metro-line-main" data-line-id="main" />
<path d="M410.0,120.0 L420.0,120.0" stroke="#0570b0" stroke-width="3.0" stroke-linecap="round" class="metro-line-main" data-line-id="main" />
<path d="M420.0,120.0 L450.0,120.0" stroke="#0570b0" stroke-width="3.0" stroke-linecap="round" class="metro-line-main" data-line-id="main" />
<path d="M200.0,120.0 L200.0,120.0 Q213.0,120.0,213.0,133.0 L213.0,185.0 Q213.0,195.0,223.0,195.0 L637.0,195.0 Q647.0,195.0,647.0,185.0 L647.0,133.0 Q647.0,120.0,660.0,120.0 L660.0,120.0" stroke="#0570b0" stroke-width="3.0" fill="none" stroke-linecap="round" stroke-linejoin="round" class="metro-line-main" data-line-id="main" />
<path d="M410.0,120.0 L410.0,120.0 Q420.0,120.0,420.0,130.0 L420.0,185.0 Q420.0,195.0,430.0,195.0 L440.0,195.0" stroke="#0570b0" stroke-width="3.0" fill="none" stroke-linecap="round" stroke-linejoin="round" class="metro-line-main" data-line-id="main" />
<rect x="75.0" y="115.0" width="10.0" height="13.0" rx="5.0" ry="5.0" fill="#ffffff" stroke="#333333" stroke-width="1.5" class="nf-metro-station" data-station-id="s1" data-station-lines="aux,main" data-station-label="Produce" data-section-id="source" data-section-name="Source" />
<rect x="135.0" y="115.0" width="10.0" height="13.0" rx="5.0" ry="5.0" fill="#ffffff" stroke="#333333" stroke-width="1.5" class="nf-metro-station" data-station-id="s2" data-station-lines="aux,main" data-station-label="Prepare" data-section-id="source" data-section-name="Source" />
<rect x="285.0" y="115.0" width="10.0" height="10.0" rx="5.0" ry="5.0" fill="#ffffff" stroke="#333333" stroke-width="1.5" class="nf-metro-station" data-station-id="a1" data-station-lines="main" data-station-label="Process A" data-section-id="step_a" data-section-name="Step A" />
<rect x="345.0" y="115.0" width="10.0" height="10.0" rx="5.0" ry="5.0" fill="#ffffff" stroke="#333333" stroke-width="1.5" class="nf-metro-station" data-station-id="a2" data-station-lines="main" data-station-label="Refine A" data-section-id="step_a" data-section-name="Step A" />
<rect x="495.0" y="115.0" width="10.0" height="10.0" rx="5.0" ry="5.0" fill="#ffffff" stroke="#333333" stroke-width="1.5" class="nf-metro-station" data-station-id="b1" data-station-lines="main" data-station-label="Process B" data-section-id="step_b" data-section-name="Step B" />
<rect x="555.0" y="115.0" width="10.0" height="10.0" rx="5.0" ry="5.0" fill="#ffffff" stroke="#333333" stroke-width="1.5" class="nf-metro-station" data-station-id="b2" data-station-lines="main" data-station-label="Refine B" data-section-id="step_b" data-section-name="Step B" />
<rect x="705.0" y="115.0" width="10.0" height="13.0" rx="5.0" ry="5.0" fill="#ffffff" stroke="#333333" stroke-width="1.5" class="nf-metro-station" data-station-id="t1" data-station-lines="aux,main" data-station-label="Collect" data-section-id="sink" data-section-name="Sink" />
<rect x="765.0" y="115.0" width="10.0" height="13.0" rx="5.0" ry="5.0" fill="#ffffff" stroke="#333333" stroke-width="1.5" class="nf-metro-station" data-station-id="t2" data-station-lines="aux,main" data-station-label="Report" data-section-id="sink" data-section-name="Sink" />
<text x="80.0" y="134.0" font-size="13.0" fill="#e0e0e0" font-family="'Helvetica Neue', Helvetica, Arial, sans-serif" font-weight="bold" text-anchor="middle" dominant-baseline="hanging" data-station-id="s1" class="nf-metro-station-label">Produce</text>
<text x="290.0" y="131.0" font-size="13.0" fill="#e0e0e0" font-family="'Helvetica Neue', Helvetica, Arial, sans-serif" font-weight="bold" text-anchor="middle" dominant-baseline="hanging" data-station-id="a1" class="nf-metro-station-label">Process A</text>
<text x="500.0" y="131.0" font-size="13.0" fill="#e0e0e0" font-family="'Helvetica Neue', Helvetica, Arial, sans-serif" font-weight="bold" text-anchor="middle" dominant-baseline="hanging" data-station-id="b1" class="nf-metro-station-label">Process B</text>
<text x="710.0" y="134.0" font-size="13.0" fill="#e0e0e0" font-family="'Helvetica Neue', Helvetica, Arial, sans-serif" font-weight="bold" text-anchor="middle" dominant-baseline="hanging" data-station-id="t1" class="nf-metro-station-label">Collect</text>
<text x="140.0" y="106.0" font-size="13.0" fill="#e0e0e0" font-family="'Helvetica Neue', Helvetica, Arial, sans-serif" font-weight="bold" text-anchor="middle" dominant-baseline="auto" data-station-id="s2" class="nf-metro-station-label">Prepare</text>
<text x="350.0" y="106.0" font-size="13.0" fill="#e0e0e0" font-family="'Helvetica Neue', Helvetica, Arial, sans-serif" font-weight="bold" text-anchor="middle" dominant-baseline="auto" data-station-id="a2" class="nf-metro-station-label">Refine A</text>
<text x="560.0" y="106.0" font-size="13.0" fill="#e0e0e0" font-family="'Helvetica Neue', Helvetica, Arial, sans-serif" font-weight="bold" text-anchor="middle" dominant-baseline="auto" data-station-id="b2" class="nf-metro-station-label">Refine B</text>
<text x="770.0" y="106.0" font-size="13.0" fill="#e0e0e0" font-family="'Helvetica Neue', Helvetica, Arial, sans-serif" font-weight="bold" text-anchor="middle" dominant-baseline="auto" data-station-id="t2" class="nf-metro-station-label">Report</text>
<rect x="30.0" y="228.0" width="129.3" height="72.0" rx="6" ry="6" fill="rgba(0, 0, 0, 0.3)" />
<path d="M42.0,252.0 L66.0,252.0" stroke="#0570b0" stroke-width="3.0" stroke-linecap="round" />
<text x="78.0" y="252.0" font-size="14.0" fill="#e0e0e0" font-family="'Helvetica Neue', Helvetica, Arial, sans-serif" dy="0.3em">Main</text>
<path d="M42.0,276.0 L66.0,276.0" stroke="#2db572" stroke-width="3.0" stroke-linecap="round" />
<text x="78.0" y="276.0" font-size="14.0" fill="#e0e0e0" font-family="'Helvetica Neue', Helvetica, Arial, sans-serif" dy="0.3em">Auxiliary</text>
<text x="850.0" y="316.0" font-size="8" fill="rgba(150, 150, 150, 0.6)" font-family="'Helvetica Neue', Helvetica, Arial, sans-serif" text-anchor="end">created with nf-metro v0.7.2+dev</text>
</svg>