<?xml version="1.0" encoding="UTF-8"?>
<svg xmlns="http://www.w3.org/2000/svg" xmlns:xlink="http://www.w3.org/1999/xlink"
     width="736" height="336" viewBox="0 0 736 336">
<defs>
</defs>
<rect x="0" y="0" width="736" height="336" fill="#2b2b2b" />
<text x="60.0" y="30.0" font-size="24.0" fill="#ffffff" font-family="'Helvetica Neue', Helvetica, Arial, sans-serif" font-weight="bold" class="nf-metro-title">Multiple File Icons</text>
<rect x="30.0" y="70.0" width="392.0" height="140.0" rx="8" ry="8" fill="#373737" stroke="#595959" stroke-width="1.0" class="nf-metro-section-box" data-section-id="analysis" data-section-lines="main,qc" />
<circle cx="41.0" cy="55.0" r="11" fill="#333333" class="nf-metro-section-num-circle" data-section-id="analysis" />
<text x="41.0" y="55.0" font-size="12" fill="#ffffff" font-family="'Helvetica Neue', Helvetica, Arial, sans-serif" font-weight="bold" text-anchor="middle" dy="0.3em" data-section-id="analysis">1</text>
<text x="57.0" y="55.0" font-size="16.0" fill="#aaaaaa" font-family="'Helvetica Neue', Helvetica, Arial, sans-serif" font-weight="bold" dy="0.3em" class="nf-metro-section-label" data-section-id="analysis">Analysis</text>
<rect x="472.0" y="70.0" width="204.0" height="140.0" rx="8" ry="8" fill="#373737" stroke="#595959" stroke-width="1.0" class="nf-metro-section-box" data-section-id="reporting" data-section-lines="main,qc" />
<circle cx="483.0" cy="55.0" r="11" fill="#333333" class="nf-metro-section-num-circle" data-section-id="reporting" />
<text x="483.0" y="55.0" font-size="12" fill="#ffffff" font-family="'Helvetica Neue', Helvetica, Arial, sans-serif" font-weight="bold" text-anchor="middle" dy="0.3em" data-section-id="reporting">2</text>
<text x="499.0" y="55.0" font-size="16.0" fill="#aaaaaa" font-family="'Helvetica Neue', Helvetica, Arial, sans-serif" font-weight="bold" dy="0.3em" class="nf-metro-section-label" data-section-id="reporting">Reporting</text>
<path d="M120.0,123.0 L180.0,123.0" stroke="#4CAF50" stroke-width="3.0" stroke-linecap="round" class="metro-line-main" data-line-id="main" />
<path d="M180.0,123.0 L206.0,123.0 Q216.0,123.0,222.0,131.0 L240.0,155.0 Q246.0,163.0,256.0,163.0 L276.0,163.0" stroke="#4CAF50" stroke-width="3.0" fill="none" stroke-linecap="round" stroke-linejoin="round" class="metro-line-main" data-line-id="main" />
<path d="M276.0,163.0 L336.0,163.0" stroke="#4CAF50" stroke-width="3.0" stroke-linecap="round" class="metro-line-main" data-line-id="main" />
<path d="M336.0,163.0 L367.75,163.0 Q377.75,163.0,383.75,155.0 L401.75,131.0 Q407.75,123.0,417.75,123.0 L422.0,123.0" stroke="#4CAF50" stroke-width="3.0" fill="none" stroke-linecap="round" stroke-linejoin="round" class="metro-line-main" data-line-id="main" />
<path d="M472.0,123.0 L477.0,123.0 Q487.0,123.0,493.29801958421217,130.76755748719503 L510.70198041578783,152.23244251280497 Q517.0,160.0,527.0,160.0 L558.0,160.0" stroke="#4CAF50" stroke-width="3.0" fill="none" stroke-linecap="round" stroke-linejoin="round" class="metro-line-main" data-line-id="main" />
<path d="M422.0,123.0 L472.0,123.0" stroke="#4CAF50" stroke-width="3.0" stroke-linecap="round" class="metro-line-main" data-line-id="main" />
<path d="M120.0,120.0 L180.0,120.0" stroke="#2196F3" stroke-width="3.0" stroke-linecap="round" class="metro-line-qc" data-line-id="qc" />
<path d="M558.0,120.0 L618.0,120.0" stroke="#2196F3" stroke-width="3.0" stroke-linecap="round" class="metro-line-qc" data-line-id="qc" />
<path d="M472.0,120.0 L558.0,120.0" stroke="#2196F3" stroke-width="3.0" stroke-linecap="round" class="metro-line-qc" data-line-id="qc" />
<path d="M336.0,160.0 L366.25,160.0 Q376.25,160.0,382.25,152.0 L400.25,128.0 Q406.25,120.0,416.25,120.0 L422.0,120.0" stroke="#2196F3" stroke-width="3.0" fill="none" stroke-linecap="round" stroke-linejoin="round" class="metro-line-qc" data-line-id="qc" />
<path d="M422.0,120.0 L472.0,120.0" stroke="#2196F3" stroke-width="3.0" stroke-linecap="round" class="metro-line-qc" data-line-id="qc" />
<path d="M180.0,120.0 L276.0,120.0" stroke="#2196F3" stroke-width="3.0" stroke-linecap="round" class="metro-line-qc" data-line-id="qc" />
<path d="M276.0,120.0 L422.0,120.0" stroke="#2196F3" stroke-width="3.0" stroke-linecap="round" class="metro-line-qc" data-line-id="qc" />
<rect x="115.0" y="115.0" width="10.0" height="13.0" fill="#ffffff" stroke="#333333" stroke-width="1.5" class="nf-metro-station" data-station-id="reads_in" data-station-lines="main,qc" data-station-label="reads_in" data-section-id="analysis" data-section-name="Analysis" />
<g data-station-id="reads_in">
<path d="M83.0,105.5 L101.0,105.5 L109.0,113.5 L109.0,135.5 Q109.0,137.5,107.0,137.5 L83.0,137.5 Q81.0,137.5,81.0,135.5 L81.0,107.5 Q81.0,105.5,83.0,105.5 Z" fill="#ffffff" stroke="#333333" stroke-width="1.5" stroke-linejoin="round" />
<path d="M101.0,105.5 L101.0,113.5 L109.0,113.5 Z" fill="#333333" opacity="0.15" stroke="none" />
<path d="M101.0,105.5 L101.0,113.5 L109.0,113.5" fill="none" stroke="#333333" stroke-width="0.8999999999999999" />
<text x="95.0" y="122.7" font-size="7.5" fill="#000000" font-family="'Helvetica Neue', Helvetica, Arial, sans-serif" font-weight="bold" text-anchor="middle" dy="0.3em">FASTQ</text>
<path d="M51.0,105.5 L69.0,105.5 L77.0,113.5 L77.0,135.5 Q77.0,137.5,75.0,137.5 L51.0,137.5 Q49.0,137.5,49.0,135.5 L49.0,107.5 Q49.0,105.5,51.0,105.5 Z" fill="#ffffff" stroke="#333333" stroke-width="1.5" stroke-linejoin="round" />
<path d="M69.0,105.5 L69.0,113.5 L77.0,113.5 Z" fill="#333333" opacity="0.15" stroke="none" />
<path d="M69.0,105.5 L69.0,113.5 L77.0,113.5" fill="none" stroke="#333333" stroke-width="0.8999999999999999" />
<text x="63.0" y="122.7" font-size="7.5" fill="#000000" font-family="'Helvetica Neue', Helvetica, Arial, sans-serif" font-weight="bold" text-anchor="middle" dy="0.3em">BAM</text>
</g>
<rect x="175.0" y="115.0" width="10.0" height="13.0" rx="5.0" ry="5.0" fill="#ffffff" stroke="#333333" stroke-width="1.5" class="nf-metro-station" data-station-id="trim" data-station-lines="main,qc" data-station-label="Trimming" data-section-id="analysis" data-section-name="Analysis" />
<rect x="271.0" y="158.0" width="10.0" height="10.0" rx="5.0" ry="5.0" fill="#ffffff" stroke="#333333" stroke-width="1.5" class="nf-metro-station" data-station-id="align" data-station-lines="main" data-station-label="Alignment" data-section-id="analysis" data-section-name="Analysis" />
<rect x="331.0" y="155.0" width="10.0" height="13.0" rx="5.0" ry="5.0" fill="#ffffff" stroke="#333333" stroke-width="1.5" class="nf-metro-station" data-station-id="quant" data-station-lines="main,qc" data-station-label="Quantification" data-section-id="analysis" data-section-name="Analysis" />
<rect x="553.0" y="115.0" width="10.0" height="10.0" rx="5.0" ry="5.0" fill="#ffffff" stroke="#333333" stroke-width="1.5" class="nf-metro-station" data-station-id="multiqc" data-station-lines="qc" data-station-label="MultiQC" data-section-id="reporting" data-section-name="Reporting" />
<rect x="613.0" y="115.0" width="10.0" height="10.0" fill="#ffffff" stroke="#333333" stroke-width="1.5" class="nf-metro-station" data-station-id="report_out" data-station-lines="qc" data-station-label="report_out" data-section-id="reporting" data-section-name="Reporting" />
<g data-station-id="report_out">
<path d="M631.0,104.0 L649.0,104.0 L657.0,112.0 L657.0,134.0 Q657.0,136.0,655.0,136.0 L631.0,136.0 Q629.0,136.0,629.0,134.0 L629.0,106.0 Q629.0,104.0,631.0,104.0 Z" fill="#ffffff" stroke="#333333" stroke-width="1.5" stroke-linejoin="round" />
<path d="M649.0,104.0 L649.0,112.0 L657.0,112.0 Z" fill="#333333" opacity="0.15" stroke="none" />
<path d="M649.0,104.0 L649.0,112.0 L657.0,112.0" fill="none" stroke="#333333" stroke-width="0.8999999999999999" />
<text x="643.0" y="121.2" font-size="7.5" fill="#000000" font-family="'Helvetica Neue', Helvetica, Arial, sans-serif" font-weight="bold" text-anchor="middle" dy="0.3em">HTML</text>
</g>
<rect x="553.0" y="155.0" width="10.0" height="10.0" fill="#ffffff" stroke="#333333" stroke-width="1.5" class="nf-metro-station" data-station-id="counts_out" data-station-lines="main" data-station-label="counts_out" data-section-id="reporting" data-section-name="Reporting" />
<g data-station-id="counts_out">
<path d="M571.0,144.0 L589.0,144.0 L597.0,152.0 L597.0,174.0 Q597.0,176.0,595.0,176.0 L571.0,176.0 Q569.0,176.0,569.0,174.0 L569.0,146.0 Q569.0,144.0,571.0,144.0 Z" fill="#ffffff" stroke="#333333" stroke-width="1.5" stroke-linejoin="round" />
<path d="M589.0,144.0 L589.0,152.0 L597.0,152.0 Z" fill="#333333" opacity="0.15" stroke="none" />
<path d="M589.0,144.0 L589.0,152.0 L597.0,152.0" fill="none" stroke="#333333" stroke-width="0.8999999999999999" />
<text x="583.0" y="161.2" font-size="7.5" fill="#000000" font-family="'Helvetica Neue', Helvetica, Arial, sans-serif" font-weight="bold" text-anchor="middle" dy="0.3em">TSV</text>
<path d="M603.0,144.0 L621.0,144.0 L629.0,152.0 L629.0,174.0 Q629.0,176.0,627.0,176.0 L603.0,176.0 Q601.0,176.0,601.0,174.0 L601.0,146.0 Q601.0,144.0,603.0,144.0 Z" fill="#ffffff" stroke="#333333" stroke-width="1.5" stroke-linejoin="round" />
<path d="M621.0,144.0 L621.0,152.0 L629.0,152.0 Z" fill="#333333" opacity="0.15" stroke="none" />
<path d="M621.0,144.0 L621.0,152.0 L629.0,152.0" fill="none" stroke="#333333" stroke-width="0.8999999999999999" />
<text x="615.0" y="161.2" font-size="7.5" fill="#000000" font-family="'Helvetica Neue', Helvetica, Arial, sans-serif" font-weight="bold" text-anchor="middle" dy="0.3em">H5AD</text>
</g>
<text x="558.0" y="106.0" font-size="13.0" fill="#e0e0e0" font-family="'Helvetica Neue', Helvetica, Arial, sans-serif" font-weight="bold" text-anchor="middle" dominant-baseline="auto" data-station-id="multiqc" class="nf-metro-station-label">MultiQC</text>
<text x="180.0" y="106.0" font-size="13.0" fill="#e0e0e0" font-family="'Helvetica Neue', Helvetica, Arial, sans-serif" font-weight="bold" text-anchor="middle" dominant-baseline="auto" data-station-id="trim" class="nf-metro-station-label">Trimming</text>
<text x="276.0" y="149.0" font-size="13.0" fill="#e0e0e0" font-family="'Helvetica Neue', Helvetica, Arial, sans-serif" font-weight="bold" text-anchor="middle" dominant-baseline="auto" data-station-id="align" class="nf-metro-station-label">Alignment</text>
<text x="336.0" y="174.0" font-size="13.0" fill="#e0e0e0" font-family="'Helvetica Neue', Helvetica, Arial, sans-serif" font-weight="bold" text-anchor="middle" dominant-baseline="hanging" data-station-id="quant" class="nf-metro-station-label">Quantification</text>
<rect x="30.0" y="240.0" width="175.5" height="72.0" rx="6" ry="6" fill="rgba(0, 0, 0, 0.3)" />
<path d="M42.0,264.0 L66.0,264.0" stroke="#2196F3" stroke-width="3.0" stroke-linecap="round" />
<text x="78.0" y="264.0" font-size="14.0" fill="#e0e0e0" font-family="'Helvetica Neue', Helvetica, Arial, sans-serif" dy="0.3em">Quality Control</text>
<path d="M42.0,288.0 L66.0,288.0" stroke="#4CAF50" stroke-width="3.0" stroke-linecap="round" />
<text x="78.0" y="288.0" font-size="14.0" fill="#e0e0e0" font-family="'Helvetica Neue', Helvetica, Arial, sans-serif" dy="0.3em">Main</text>
<text x="706.0" y="328.0" font-size="8" fill="rgba(150, 150, 150, 0.6)" font-family="'Helvetica Neue', Helvetica, Arial, sans-serif" text-anchor="end">created with nf-metro v0.7.2+dev</text>
</svg>