<?xml version="1.0" encoding="UTF-8"?>
<svg xmlns="http://www.w3.org/2000/svg" xmlns:xlink="http://www.w3.org/1999/xlink"
     width="1635" height="904" viewBox="0 0 1635 904">
<defs>
</defs>
<rect x="0" y="0" width="1635" height="904" fill="#2b2b2b" />
<text x="60.0" y="30.0" font-size="24.0" fill="#ffffff" font-family="'Helvetica Neue', Helvetica, Arial, sans-serif" font-weight="bold" class="nf-metro-title">sanger-tol/genomeassembly</text>
<rect x="22.0" y="70.0" width="204.0" height="140.0" rx="8" ry="8" fill="#373737" stroke="#595959" stroke-width="1.0" class="nf-metro-section-box" data-section-id="raw_asm" data-section-lines="assemblies,hic_reads,long_reads" />
<circle cx="33.0" cy="55.0" r="11" fill="#333333" class="nf-metro-section-num-circle" data-section-id="raw_asm" />
<text x="33.0" y="55.0" font-size="12" fill="#ffffff" font-family="'Helvetica Neue', Helvetica, Arial, sans-serif" font-weight="bold" text-anchor="middle" dy="0.3em" data-section-id="raw_asm">1</text>
<text x="49.0" y="55.0" font-size="16.0" fill="#aaaaaa" font-family="'Helvetica Neue', Helvetica, Arial, sans-serif" font-weight="bold" dy="0.3em" class="nf-metro-section-label" data-section-id="raw_asm">Raw assembly</text>
<rect x="326.0" y="260.0" width="160.0" height="100.0" rx="8" ry="8" fill="#373737" stroke="#595959" stroke-width="1.0" class="nf-metro-section-box" data-section-id="purging" data-section-lines="assemblies,long_reads" />
<circle cx="337.0" cy="245.0" r="11" fill="#333333" class="nf-metro-section-num-circle" data-section-id="purging" />
<text x="337.0" y="245.0" font-size="12" fill="#ffffff" font-family="'Helvetica Neue', Helvetica, Arial, sans-serif" font-weight="bold" text-anchor="middle" dy="0.3em" data-section-id="purging">2</text>
<text x="353.0" y="245.0" font-size="16.0" fill="#aaaaaa" font-family="'Helvetica Neue', Helvetica, Arial, sans-serif" font-weight="bold" dy="0.3em" class="nf-metro-section-label" data-section-id="purging">Purging</text>
<rect x="578.0" y="410.0" width="273.0" height="140.0" rx="8" ry="8" fill="#373737" stroke="#595959" stroke-width="1.0" class="nf-metro-section-box" data-section-id="polishing" data-section-lines="assemblies,i10x_reads" />
<circle cx="589.0" cy="395.0" r="11" fill="#333333" class="nf-metro-section-num-circle" data-section-id="polishing" />
<text x="589.0" y="395.0" font-size="12" fill="#ffffff" font-family="'Helvetica Neue', Helvetica, Arial, sans-serif" font-weight="bold" text-anchor="middle" dy="0.3em" data-section-id="polishing">3</text>
<text x="605.0" y="395.0" font-size="16.0" fill="#aaaaaa" font-family="'Helvetica Neue', Helvetica, Arial, sans-serif" font-weight="bold" dy="0.3em" class="nf-metro-section-label" data-section-id="polishing">Polishing</text>
<rect x="951.0" y="600.0" width="328.0" height="188.164" rx="8" ry="8" fill="#373737" stroke="#595959" stroke-width="1.0" class="nf-metro-section-box" data-section-id="scaffolding" data-section-lines="assemblies,hic_reads" />
<circle cx="962.0" cy="585.0" r="11" fill="#333333" class="nf-metro-section-num-circle" data-section-id="scaffolding" />
<text x="962.0" y="585.0" font-size="12" fill="#ffffff" font-family="'Helvetica Neue', Helvetica, Arial, sans-serif" font-weight="bold" text-anchor="middle" dy="0.3em" data-section-id="scaffolding">4</text>
<text x="978.0" y="585.0" font-size="16.0" fill="#aaaaaa" font-family="'Helvetica Neue', Helvetica, Arial, sans-serif" font-weight="bold" dy="0.3em" class="nf-metro-section-label" data-section-id="scaffolding">Scaffolding</text>
<rect x="1379.0" y="700.0" width="196.0" height="180.0" rx="8" ry="8" fill="#373737" stroke="#595959" stroke-width="1.0" class="nf-metro-section-box" data-section-id="genome_statistics" data-section-lines="assemblies" />
<circle cx="1390.0" cy="685.0" r="11" fill="#333333" class="nf-metro-section-num-circle" data-section-id="genome_statistics" />
<text x="1390.0" y="685.0" font-size="12" fill="#ffffff" font-family="'Helvetica Neue', Helvetica, Arial, sans-serif" font-weight="bold" text-anchor="middle" dy="0.3em" data-section-id="genome_statistics">5</text>
<text x="1406.0" y="685.0" font-size="16.0" fill="#aaaaaa" font-family="'Helvetica Neue', Helvetica, Arial, sans-serif" font-weight="bold" dy="0.3em" class="nf-metro-section-label" data-section-id="genome_statistics">Genome QC</text>
<path d="M636.0,500.0 L656.0,500.0 Q666.0,500.0,672.2980195842122,492.23244251280494 L689.7019804157878,470.76755748719506 Q696.0,463.0,706.0,463.0 L741.0,463.0" stroke="#EB7AEB" stroke-width="3.0" fill="none" stroke-linecap="round" stroke-linejoin="round" class="metro-line-i10x_reads" data-line-id="i10x_reads" />
<path d="M741.0,463.0 L801.0,463.0" stroke="#EB7AEB" stroke-width="3.0" stroke-linecap="round" class="metro-line-i10x_reads" data-line-id="i10x_reads" />
<path d="M80.0,160.0 L104.5,160.0 Q114.5,160.0,121.11621637086846,152.50162144634908 L137.88378362913153,133.49837855365092 Q144.5,126.0,154.5,126.0 L176.0,126.0" stroke="#FA6863" stroke-width="3.0" fill="none" stroke-linecap="round" stroke-linejoin="round" class="metro-line-hic_reads" data-line-id="hic_reads" />
<path d="M1040.5,661.164 L1074.25,661.164 Q1084.25,661.164,1090.25,669.164 L1108.25,693.164 Q1114.25,701.164,1124.25,701.164 L1133.0,701.164" stroke="#FA6863" stroke-width="3.0" fill="none" stroke-linecap="round" stroke-linejoin="round" class="metro-line-hic_reads" data-line-id="hic_reads" />
<path d="M1040.5,741.164 L1075.75,741.164 Q1085.75,741.164,1091.75,733.164 L1109.75,709.164 Q1115.75,701.164,1125.75,701.164 L1133.0,701.164" stroke="#FA6863" stroke-width="3.0" fill="none" stroke-linecap="round" stroke-linejoin="round" class="metro-line-hic_reads" data-line-id="hic_reads" />
<path d="M1133.0,701.164 L1141.75,701.164 Q1151.75,701.164,1157.75,693.164 L1175.75,669.164 Q1181.75,661.164,1191.75,661.164 L1229.0,661.164" stroke="#FA6863" stroke-width="3.0" fill="none" stroke-linecap="round" stroke-linejoin="round" class="metro-line-hic_reads" data-line-id="hic_reads" />
<path d="M1133.0,701.164 L1229.0,701.164" stroke="#FA6863" stroke-width="3.0" stroke-linecap="round" class="metro-line-hic_reads" data-line-id="hic_reads" />
<path d="M1133.0,701.164 L1140.0,701.164 Q1150.0,701.164,1156.0,709.164 L1174.0,733.164 Q1180.0,741.164,1190.0,741.164 L1229.0,741.164" stroke="#FA6863" stroke-width="3.0" fill="none" stroke-linecap="round" stroke-linejoin="round" class="metro-line-hic_reads" data-line-id="hic_reads" />
<path d="M176.0,126.0 L226.0,126.0" stroke="#FA6863" stroke-width="3.0" stroke-linecap="round" class="metro-line-hic_reads" data-line-id="hic_reads" />
<path d="M951.0,701.164 L956.75,701.164 Q966.75,701.164,972.75,693.164 L990.75,669.164 Q996.75,661.164,1006.75,661.164 L1040.5,661.164" stroke="#FA6863" stroke-width="3.0" fill="none" stroke-linecap="round" stroke-linejoin="round" class="metro-line-hic_reads" data-line-id="hic_reads" />
<path d="M951.0,701.164 L955.25,701.164 Q965.25,701.164,971.25,709.164 L989.25,733.164 Q995.25,741.164,1005.25,741.164 L1040.5,741.164" stroke="#FA6863" stroke-width="3.0" fill="none" stroke-linecap="round" stroke-linejoin="round" class="metro-line-hic_reads" data-line-id="hic_reads" />
<path d="M226.0,126.0 L236.0,126.0" stroke="#FA6863" stroke-width="3.0" stroke-linecap="round" class="metro-line-hic_reads" data-line-id="hic_reads" />
<path d="M236.0,126.0 L240.5,126.0 Q250.5,126.0,250.5,136.0 L250.5,688.164 Q250.5,701.164,263.5,701.164 L951.0,701.164" stroke="#FA6863" stroke-width="3.0" fill="none" stroke-linecap="round" stroke-linejoin="round" class="metro-line-hic_reads" data-line-id="hic_reads" />
<path d="M80.0,123.0 L176.0,123.0" stroke="#3d95fd" stroke-width="3.0" stroke-linecap="round" class="metro-line-long_reads" data-line-id="long_reads" />
<path d="M376.0,313.0 L436.0,313.0" stroke="#3d95fd" stroke-width="3.0" stroke-linecap="round" class="metro-line-long_reads" data-line-id="long_reads" />
<path d="M176.0,123.0 L226.0,123.0" stroke="#3d95fd" stroke-width="3.0" stroke-linecap="round" class="metro-line-long_reads" data-line-id="long_reads" />
<path d="M326.0,313.0 L376.0,313.0" stroke="#3d95fd" stroke-width="3.0" stroke-linecap="round" class="metro-line-long_reads" data-line-id="long_reads" />
<path d="M226.0,123.0 L236.0,123.0" stroke="#3d95fd" stroke-width="3.0" stroke-linecap="round" class="metro-line-long_reads" data-line-id="long_reads" />
<path d="M236.0,123.0 L240.5,123.0 Q250.5,123.0,250.5,133.0 L250.5,300.0 Q250.5,313.0,263.5,313.0 L326.0,313.0" stroke="#3d95fd" stroke-width="3.0" fill="none" stroke-linecap="round" stroke-linejoin="round" class="metro-line-long_reads" data-line-id="long_reads" />
<path d="M376.0,310.0 L436.0,310.0" stroke="#24B064" stroke-width="3.0" stroke-linecap="round" class="metro-line-assemblies" data-line-id="assemblies" />
<path d="M741.0,460.0 L801.0,460.0" stroke="#24B064" stroke-width="3.0" stroke-linecap="round" class="metro-line-assemblies" data-line-id="assemblies" />
<path d="M1040.5,658.164 L1075.75,658.164 Q1085.75,658.164,1091.75,666.164 L1109.75,690.164 Q1115.75,698.164,1125.75,698.164 L1133.0,698.164" stroke="#24B064" stroke-width="3.0" fill="none" stroke-linecap="round" stroke-linejoin="round" class="metro-line-assemblies" data-line-id="assemblies" />
<path d="M1040.5,738.164 L1074.25,738.164 Q1084.25,738.164,1090.25,730.164 L1108.25,706.164 Q1114.25,698.164,1124.25,698.164 L1133.0,698.164" stroke="#24B064" stroke-width="3.0" fill="none" stroke-linecap="round" stroke-linejoin="round" class="metro-line-assemblies" data-line-id="assemblies" />
<path d="M1133.0,698.164 L1140.25,698.164 Q1150.25,698.164,1156.25,690.164 L1174.25,666.164 Q1180.25,658.164,1190.25,658.164 L1229.0,658.164" stroke="#24B064" stroke-width="3.0" fill="none" stroke-linecap="round" stroke-linejoin="round" class="metro-line-assemblies" data-line-id="assemblies" />
<path d="M1133.0,698.164 L1229.0,698.164" stroke="#24B064" stroke-width="3.0" stroke-linecap="round" class="metro-line-assemblies" data-line-id="assemblies" />
<path d="M1133.0,698.164 L1141.5,698.164 Q1151.5,698.164,1157.5,706.164 L1175.5,730.164 Q1181.5,738.164,1191.5,738.164 L1229.0,738.164" stroke="#24B064" stroke-width="3.0" fill="none" stroke-linecap="round" stroke-linejoin="round" class="metro-line-assemblies" data-line-id="assemblies" />
<path d="M1429.0,790.0 L1455.0,790.0 Q1465.0,790.0,1471.0,782.0 L1489.0,758.0 Q1495.0,750.0,1505.0,750.0 L1525.0,750.0" stroke="#24B064" stroke-width="3.0" fill="none" stroke-linecap="round" stroke-linejoin="round" class="metro-line-assemblies" data-line-id="assemblies" />
<path d="M1429.0,790.0 L1525.0,790.0" stroke="#24B064" stroke-width="3.0" stroke-linecap="round" class="metro-line-assemblies" data-line-id="assemblies" />
<path d="M1429.0,790.0 L1455.0,790.0 Q1465.0,790.0,1471.0,798.0 L1489.0,822.0 Q1495.0,830.0,1505.0,830.0 L1525.0,830.0" stroke="#24B064" stroke-width="3.0" fill="none" stroke-linecap="round" stroke-linejoin="round" class="metro-line-assemblies" data-line-id="assemblies" />
<path d="M176.0,120.0 L226.0,120.0" stroke="#24B064" stroke-width="3.0" stroke-linecap="round" class="metro-line-assemblies" data-line-id="assemblies" />
<path d="M326.0,310.0 L376.0,310.0" stroke="#24B064" stroke-width="3.0" stroke-linecap="round" class="metro-line-assemblies" data-line-id="assemblies" />
<path d="M578.0,460.0 L741.0,460.0" stroke="#24B064" stroke-width="3.0" stroke-linecap="round" class="metro-line-assemblies" data-line-id="assemblies" />
<path d="M951.0,698.164 L955.25,698.164 Q965.25,698.164,971.25,690.164 L989.25,666.164 Q995.25,658.164,1005.25,658.164 L1040.5,658.164" stroke="#24B064" stroke-width="3.0" fill="none" stroke-linecap="round" stroke-linejoin="round" class="metro-line-assemblies" data-line-id="assemblies" />
<path d="M951.0,698.164 L956.75,698.164 Q966.75,698.164,972.75,706.164 L990.75,730.164 Q996.75,738.164,1006.75,738.164 L1040.5,738.164" stroke="#24B064" stroke-width="3.0" fill="none" stroke-linecap="round" stroke-linejoin="round" class="metro-line-assemblies" data-line-id="assemblies" />
<path d="M436.0,310.0 L486.0,310.0" stroke="#24B064" stroke-width="3.0" stroke-linecap="round" class="metro-line-assemblies" data-line-id="assemblies" />
<path d="M801.0,460.0 L851.0,460.0" stroke="#24B064" stroke-width="3.0" stroke-linecap="round" class="metro-line-assemblies" data-line-id="assemblies" />
<path d="M1379.0,790.0 L1429.0,790.0" stroke="#24B064" stroke-width="3.0" stroke-linecap="round" class="metro-line-assemblies" data-line-id="assemblies" />
<path d="M1133.0,698.164 L1141.5,698.164 Q1151.5,698.164,1155.011234415884,707.5272917756904 L1177.988765584116,768.8007082243096 Q1181.5,778.164,1191.5,778.164 L1279.0,778.164" stroke="#24B064" stroke-width="3.0" fill="none" stroke-linecap="round" stroke-linejoin="round" class="metro-line-assemblies" data-line-id="assemblies" />
<path d="M226.0,120.0 L236.0,120.0" stroke="#24B064" stroke-width="3.0" stroke-linecap="round" class="metro-line-assemblies" data-line-id="assemblies" />
<path d="M236.0,120.0 L240.5,120.0 Q253.5,120.0,253.5,133.0 L253.5,300.0 Q253.5,310.0,263.5,310.0 L326.0,310.0" stroke="#24B064" stroke-width="3.0" fill="none" stroke-linecap="round" stroke-linejoin="round" class="metro-line-assemblies" data-line-id="assemblies" />
<path d="M486.0,310.0 L496.0,310.0" stroke="#24B064" stroke-width="3.0" stroke-linecap="round" class="metro-line-assemblies" data-line-id="assemblies" />
<path d="M851.0,460.0 L861.0,460.0" stroke="#24B064" stroke-width="3.0" stroke-linecap="round" class="metro-line-assemblies" data-line-id="assemblies" />
<path d="M1279.0,778.164 L1323.0819999999999,778.164 Q1329.0,778.164,1329.0,784.082 L1329.0,784.082 Q1329.0,790.0,1334.9180000000001,790.0 L1379.0,790.0" stroke="#24B064" stroke-width="3.0" fill="none" stroke-linecap="round" stroke-linejoin="round" class="metro-line-assemblies" data-line-id="assemblies" />
<path d="M236.0,120.0 L240.5,120.0 Q253.5,120.0,253.5,133.0 L253.5,688.164 Q253.5,698.164,263.5,698.164 L951.0,698.164" stroke="#24B064" stroke-width="3.0" fill="none" stroke-linecap="round" stroke-linejoin="round" class="metro-line-assemblies" data-line-id="assemblies" />
<path d="M496.0,310.0 L499.0,310.0 Q509.0,310.0,509.0,320.0 L509.0,688.164 Q509.0,698.164,519.0,698.164 L951.0,698.164" stroke="#24B064" stroke-width="3.0" fill="none" stroke-linecap="round" stroke-linejoin="round" class="metro-line-assemblies" data-line-id="assemblies" />
<path d="M861.0,460.0 L864.0,460.0 Q874.0,460.0,874.0,470.0 L874.0,688.164 Q874.0,698.164,884.0,698.164 L951.0,698.164" stroke="#24B064" stroke-width="3.0" fill="none" stroke-linecap="round" stroke-linejoin="round" class="metro-line-assemblies" data-line-id="assemblies" />
<path d="M871.0,698.164493705614 L951.0,698.164" stroke="#24B064" stroke-width="3.0" stroke-linecap="round" class="metro-line-assemblies" data-line-id="assemblies" />
<path d="M236.0,120.0 L239.0,120.0 Q249.0,120.0,249.0,130.0 L249.0,450.0 Q249.0,460.0,259.0,460.0 L578.0,460.0" stroke="#24B064" stroke-width="3.0" fill="none" stroke-linecap="round" stroke-linejoin="round" class="metro-line-assemblies" data-line-id="assemblies" />
<path d="M496.0,310.0 L499.0,310.0 Q509.0,310.0,509.0,320.0 L509.0,450.0 Q509.0,460.0,519.0,460.0 L578.0,460.0" stroke="#24B064" stroke-width="3.0" fill="none" stroke-linecap="round" stroke-linejoin="round" class="metro-line-assemblies" data-line-id="assemblies" />
<path d="M506.0,460.0 L578.0,460.0" stroke="#24B064" stroke-width="3.0" stroke-linecap="round" class="metro-line-assemblies" data-line-id="assemblies" />
<path d="M236.0,120.0 L239.0,120.0 Q249.0,120.0,249.0,130.0 L249.0,780.0 Q249.0,790.0,259.0,790.0 L1379.0,790.0" stroke="#24B064" stroke-width="3.0" fill="none" stroke-linecap="round" stroke-linejoin="round" class="metro-line-assemblies" data-line-id="assemblies" />
<path d="M496.0,310.0 L499.0,310.0 Q509.0,310.0,509.0,320.0 L509.0,780.0 Q509.0,790.0,519.0,790.0 L1379.0,790.0" stroke="#24B064" stroke-width="3.0" fill="none" stroke-linecap="round" stroke-linejoin="round" class="metro-line-assemblies" data-line-id="assemblies" />
<path d="M861.0,460.0 L864.0,460.0 Q874.0,460.0,874.0,470.0 L874.0,780.0 Q874.0,790.0,884.0,790.0 L1379.0,790.0" stroke="#24B064" stroke-width="3.0" fill="none" stroke-linecap="round" stroke-linejoin="round" class="metro-line-assemblies" data-line-id="assemblies" />
<path d="M871.0,790.0 L1379.0,790.0" stroke="#24B064" stroke-width="3.0" stroke-linecap="round" class="metro-line-assemblies" data-line-id="assemblies" />
<rect x="75.0" y="118.0" width="10.0" height="10.0" fill="#ffffff" stroke="#333333" stroke-width="1.5" class="nf-metro-station" data-station-id="input_long_reads" data-station-lines="long_reads" data-station-label="input_long_reads" data-section-id="raw_asm" data-section-name="Raw assembly" />
<g data-station-id="input_long_reads">
<path d="M43.0,107.0 L61.0,107.0 L69.0,115.0 L69.0,137.0 Q69.0,139.0,67.0,139.0 L43.0,139.0 Q41.0,139.0,41.0,137.0 L41.0,109.0 Q41.0,107.0,43.0,107.0 Z" fill="#ffffff" stroke="#333333" stroke-width="1.5" stroke-linejoin="round" />
<path d="M61.0,107.0 L61.0,115.0 L69.0,115.0 Z" fill="#333333" opacity="0.15" stroke="none" />
<path d="M61.0,107.0 L61.0,115.0 L69.0,115.0" fill="none" stroke="#333333" stroke-width="0.8999999999999999" />
<text x="55.0" y="124.2" font-size="7.5" fill="#000000" font-family="'Helvetica Neue', Helvetica, Arial, sans-serif" font-weight="bold" text-anchor="middle" dy="0.3em">FASTX</text>
</g>
<rect x="75.0" y="155.0" width="10.0" height="10.0" fill="#ffffff" stroke="#333333" stroke-width="1.5" class="nf-metro-station" data-station-id="input_hic_reads" data-station-lines="hic_reads" data-station-label="input_hic_reads" data-section-id="raw_asm" data-section-name="Raw assembly" />
<g data-station-id="input_hic_reads">
<path d="M43.0,144.0 L61.0,144.0 L69.0,152.0 L69.0,174.0 Q69.0,176.0,67.0,176.0 L43.0,176.0 Q41.0,176.0,41.0,174.0 L41.0,146.0 Q41.0,144.0,43.0,144.0 Z" fill="#ffffff" stroke="#333333" stroke-width="1.5" stroke-linejoin="round" />
<path d="M61.0,144.0 L61.0,152.0 L69.0,152.0 Z" fill="#333333" opacity="0.15" stroke="none" />
<path d="M61.0,144.0 L61.0,152.0 L69.0,152.0" fill="none" stroke="#333333" stroke-width="0.8999999999999999" />
<text x="55.0" y="161.2" font-size="7.5" fill="#000000" font-family="'Helvetica Neue', Helvetica, Arial, sans-serif" font-weight="bold" text-anchor="middle" dy="0.3em">CRAM</text>
</g>
<rect x="171.0" y="115.0" width="10.0" height="16.0" rx="5.0" ry="5.0" fill="#ffffff" stroke="#333333" stroke-width="1.5" class="nf-metro-station" data-station-id="hifiasm" data-station-lines="assemblies,hic_reads,long_reads" data-station-label="hifiasm" data-section-id="raw_asm" data-section-name="Raw assembly" />
<rect x="371.0" y="305.0" width="10.0" height="13.0" rx="5.0" ry="5.0" fill="#ffffff" stroke="#333333" stroke-width="1.5" class="nf-metro-station" data-station-id="purging_minimap2" data-station-lines="assemblies,long_reads" data-station-label="minimap2" data-section-id="purging" data-section-name="Purging" />
<rect x="431.0" y="305.0" width="10.0" height="13.0" rx="5.0" ry="5.0" fill="#ffffff" stroke="#333333" stroke-width="1.5" class="nf-metro-station" data-station-id="purge_dups" data-station-lines="assemblies,long_reads" data-station-label="purge_dups" data-section-id="purging" data-section-name="Purging" />
<rect x="631.0" y="495.0" width="10.0" height="10.0" fill="#ffffff" stroke="#333333" stroke-width="1.5" class="nf-metro-station" data-station-id="input_10x_reads" data-station-lines="i10x_reads" data-station-label="input_10x_reads" data-section-id="polishing" data-section-name="Polishing" />
<g data-station-id="input_10x_reads">
<path d="M599.0,484.0 L617.0,484.0 L625.0,492.0 L625.0,514.0 Q625.0,516.0,623.0,516.0 L599.0,516.0 Q597.0,516.0,597.0,514.0 L597.0,486.0 Q597.0,484.0,599.0,484.0 Z" fill="#ffffff" stroke="#333333" stroke-width="1.5" stroke-linejoin="round" />
<path d="M617.0,484.0 L617.0,492.0 L625.0,492.0 Z" fill="#333333" opacity="0.15" stroke="none" />
<path d="M617.0,484.0 L617.0,492.0 L625.0,492.0" fill="none" stroke="#333333" stroke-width="0.8999999999999999" />
<text x="611.0" y="501.2" font-size="7.5" fill="#000000" font-family="'Helvetica Neue', Helvetica, Arial, sans-serif" font-weight="bold" text-anchor="middle" dy="0.3em">FASTQ</text>
</g>
<rect x="736.0" y="455.0" width="10.0" height="13.0" rx="5.0" ry="5.0" fill="#ffffff" stroke="#333333" stroke-width="1.5" class="nf-metro-station" data-station-id="longranger" data-station-lines="assemblies,i10x_reads" data-station-label="Longranger" data-section-id="polishing" data-section-name="Polishing" />
<rect x="796.0" y="455.0" width="10.0" height="13.0" rx="5.0" ry="5.0" fill="#ffffff" stroke="#333333" stroke-width="1.5" class="nf-metro-station" data-station-id="freebayes" data-station-lines="assemblies,i10x_reads" data-station-label="FreeBayes" data-section-id="polishing" data-section-name="Polishing" />
<rect x="1035.5" y="653.164" width="10.0" height="13.0" rx="5.0" ry="5.0" fill="#ffffff" stroke="#333333" stroke-width="1.5" class="nf-metro-station" data-station-id="scaffolding_bwamem2" data-station-lines="assemblies,hic_reads" data-station-label="bwa-mem2" data-section-id="scaffolding" data-section-name="Scaffolding" />
<rect x="1035.5" y="733.164" width="10.0" height="13.0" rx="5.0" ry="5.0" fill="#ffffff" stroke="#333333" stroke-width="1.5" class="nf-metro-station" data-station-id="scaffolding_minimap2" data-station-lines="assemblies,hic_reads" data-station-label="minimap2" data-section-id="scaffolding" data-section-name="Scaffolding" />
<rect x="1128.0" y="693.164" width="10.0" height="13.0" rx="5.0" ry="5.0" fill="#ffffff" stroke="#333333" stroke-width="1.5" class="nf-metro-station" data-station-id="yahs" data-station-lines="assemblies,hic_reads" data-station-label="YaHS" data-section-id="scaffolding" data-section-name="Scaffolding" />
<rect x="1224.0" y="653.164" width="10.0" height="13.0" rx="5.0" ry="5.0" fill="#ffffff" stroke="#333333" stroke-width="1.5" class="nf-metro-station" data-station-id="pretextmap" data-station-lines="assemblies,hic_reads" data-station-label="PretextMap" data-section-id="scaffolding" data-section-name="Scaffolding" />
<rect x="1224.0" y="693.164" width="10.0" height="13.0" rx="5.0" ry="5.0" fill="#ffffff" stroke="#333333" stroke-width="1.5" class="nf-metro-station" data-station-id="juicer" data-station-lines="assemblies,hic_reads" data-station-label="Juicer" data-section-id="scaffolding" data-section-name="Scaffolding" />
<rect x="1224.0" y="733.164" width="10.0" height="13.0" rx="5.0" ry="5.0" fill="#ffffff" stroke="#333333" stroke-width="1.5" class="nf-metro-station" data-station-id="cooler" data-station-lines="assemblies,hic_reads" data-station-label="Cooler" data-section-id="scaffolding" data-section-name="Scaffolding" />
<rect x="1424.0" y="785.0" width="10.0" height="10.0" rx="5.0" ry="5.0" fill="#ffffff" stroke="#333333" stroke-width="1.5" class="nf-metro-station" data-station-id="asmstats" data-station-lines="assemblies" data-station-label="asmstats" data-section-id="genome_statistics" data-section-name="Genome QC" />
<rect x="1520.0" y="745.0" width="10.0" height="10.0" rx="5.0" ry="5.0" fill="#ffffff" stroke="#333333" stroke-width="1.5" class="nf-metro-station" data-station-id="gfastats" data-station-lines="assemblies" data-station-label="GFAStats" data-section-id="genome_statistics" data-section-name="Genome QC" />
<rect x="1520.0" y="785.0" width="10.0" height="10.0" rx="5.0" ry="5.0" fill="#ffffff" stroke="#333333" stroke-width="1.5" class="nf-metro-station" data-station-id="busco" data-station-lines="assemblies" data-station-label="BUSCO" data-section-id="genome_statistics" data-section-name="Genome QC" />
<rect x="1520.0" y="825.0" width="10.0" height="10.0" rx="5.0" ry="5.0" fill="#ffffff" stroke="#333333" stroke-width="1.5" class="nf-metro-station" data-station-id="merquryfk" data-station-lines="assemblies" data-station-label="MerquryFK" data-section-id="genome_statistics" data-section-name="Genome QC" />
<text x="1040.5" y="644.164" font-size="13.0" fill="#e0e0e0" font-family="'Helvetica Neue', Helvetica, Arial, sans-serif" font-weight="bold" text-anchor="middle" dominant-baseline="auto" data-station-id="scaffolding_bwamem2" class="nf-metro-station-label">bwa-mem2</text>
<text x="376.0" y="324.0" font-size="13.0" fill="#e0e0e0" font-family="'Helvetica Neue', Helvetica, Arial, sans-serif" font-weight="bold" text-anchor="middle" dominant-baseline="hanging" data-station-id="purging_minimap2" class="nf-metro-station-label">minimap2</text>
<text x="1429.0" y="801.0" font-size="13.0" fill="#e0e0e0" font-family="'Helvetica Neue', Helvetica, Arial, sans-serif" font-weight="bold" text-anchor="middle" dominant-baseline="hanging" data-station-id="asmstats" class="nf-metro-station-label">asmstats</text>
<text x="1040.5" y="724.164" font-size="13.0" fill="#e0e0e0" font-family="'Helvetica Neue', Helvetica, Arial, sans-serif" font-weight="bold" text-anchor="middle" dominant-baseline="auto" data-station-id="scaffolding_minimap2" class="nf-metro-station-label">minimap2</text>
<text x="1525.0" y="736.0" font-size="13.0" fill="#e0e0e0" font-family="'Helvetica Neue', Helvetica, Arial, sans-serif" font-weight="bold" text-anchor="middle" dominant-baseline="auto" data-station-id="gfastats" class="nf-metro-station-label">GFAStats</text>
<text x="436.0" y="296.0" font-size="13.0" fill="#e0e0e0" font-family="'Helvetica Neue', Helvetica, Arial, sans-serif" font-weight="bold" text-anchor="middle" dominant-baseline="auto" data-station-id="purge_dups" class="nf-metro-station-label">purge_dups</text>
<text x="741.0" y="446.0" font-size="13.0" fill="#e0e0e0" font-family="'Helvetica Neue', Helvetica, Arial, sans-serif" font-weight="bold" text-anchor="middle" dominant-baseline="auto" data-station-id="longranger" class="nf-metro-station-label">Longranger</text>
<text x="1133.0" y="712.164" font-size="13.0" fill="#e0e0e0" font-family="'Helvetica Neue', Helvetica, Arial, sans-serif" font-weight="bold" text-anchor="middle" dominant-baseline="hanging" data-station-id="yahs" class="nf-metro-station-label">YaHS</text>
<text x="1525.0" y="776.6" font-size="13.0" fill="#e0e0e0" font-family="'Helvetica Neue', Helvetica, Arial, sans-serif" font-weight="bold" text-anchor="middle" dominant-baseline="auto" data-station-id="busco" class="nf-metro-station-label">BUSCO</text>
<text x="176.0" y="106.0" font-size="13.0" fill="#e0e0e0" font-family="'Helvetica Neue', Helvetica, Arial, sans-serif" font-weight="bold" text-anchor="middle" dominant-baseline="auto" data-station-id="hifiasm" class="nf-metro-station-label">hifiasm</text>
<text x="1525.0" y="841.0" font-size="13.0" fill="#e0e0e0" font-family="'Helvetica Neue', Helvetica, Arial, sans-serif" font-weight="bold" text-anchor="middle" dominant-baseline="hanging" data-station-id="merquryfk" class="nf-metro-station-label">MerquryFK</text>
<text x="1229.0" y="644.164" font-size="13.0" fill="#e0e0e0" font-family="'Helvetica Neue', Helvetica, Arial, sans-serif" font-weight="bold" text-anchor="middle" dominant-baseline="auto" data-station-id="pretextmap" class="nf-metro-station-label">PretextMap</text>
<text x="801.0" y="474.0" font-size="13.0" fill="#e0e0e0" font-family="'Helvetica Neue', Helvetica, Arial, sans-serif" font-weight="bold" text-anchor="middle" dominant-baseline="hanging" data-station-id="freebayes" class="nf-metro-station-label">FreeBayes</text>
<text x="1229.0" y="685.9639999999999" font-size="13.0" fill="#e0e0e0" font-family="'Helvetica Neue', Helvetica, Arial, sans-serif" font-weight="bold" text-anchor="middle" dominant-baseline="auto" data-station-id="juicer" class="nf-metro-station-label">Juicer</text>
<text x="1229.0" y="725.9639999999999" font-size="13.0" fill="#e0e0e0" font-family="'Helvetica Neue', Helvetica, Arial, sans-serif" font-weight="bold" text-anchor="middle" dominant-baseline="auto" data-station-id="cooler" class="nf-metro-station-label">Cooler</text>
<rect x="22.0" y="760.0" width="137.0" height="120.0" rx="6" ry="6" fill="rgba(0, 0, 0, 0.3)" />
<path d="M34.0,784.0 L58.0,784.0" stroke="#24B064" stroke-width="3.0" stroke-linecap="round" />
<text x="70.0" y="784.0" font-size="14.0" fill="#e0e0e0" font-family="'Helvetica Neue', Helvetica, Arial, sans-serif" dy="0.3em">Assembly</text>
<path d="M34.0,808.0 L58.0,808.0" stroke="#3d95fd" stroke-width="3.0" stroke-linecap="round" />
<text x="70.0" y="808.0" font-size="14.0" fill="#e0e0e0" font-family="'Helvetica Neue', Helvetica, Arial, sans-serif" dy="0.3em">Long reads</text>
<path d="M34.0,832.0 L58.0,832.0" stroke="#FA6863" stroke-width="3.0" stroke-linecap="round" />
<text x="70.0" y="832.0" font-size="14.0" fill="#e0e0e0" font-family="'Helvetica Neue', Helvetica, Arial, sans-serif" dy="0.3em">Hi-C reads</text>
<path d="M34.0,856.0 L58.0,856.0" stroke="#EB7AEB" stroke-width="3.0" stroke-linecap="round" />
<text x="70.0" y="856.0" font-size="14.0" fill="#e0e0e0" font-family="'Helvetica Neue', Helvetica, Arial, sans-serif" dy="0.3em">10X reads</text>
<text x="1605.0" y="896.0" font-size="8" fill="rgba(150, 150, 150, 0.6)" font-family="'Helvetica Neue', Helvetica, Arial, sans-serif" text-anchor="end">created with nf-metro v0.7.2+dev</text>
</svg>