<?xml version="1.0" encoding="UTF-8"?>
<svg xmlns="http://www.w3.org/2000/svg" xmlns:xlink="http://www.w3.org/1999/xlink"
     width="1003" height="519" viewBox="0 0 1003 519">
<defs>
</defs>
<rect x="0" y="0" width="1003" height="519" fill="#2b2b2b" />
<text x="60.0" y="30.0" font-size="24.0" fill="#ffffff" font-family="'Helvetica Neue', Helvetica, Arial, sans-serif" font-weight="bold" class="nf-metro-title">Complex Multipath</text>
<rect x="30.0" y="70.0" width="160.0" height="100.0" rx="8" ry="8" fill="#373737" stroke="#595959" stroke-width="1.0" class="nf-metro-section-box" data-section-id="input_sec" data-section-lines="detailed,fast,legacy,standard" />
<circle cx="41.0" cy="55.0" r="11" fill="#333333" class="nf-metro-section-num-circle" data-section-id="input_sec" />
<text x="41.0" y="55.0" font-size="12" fill="#ffffff" font-family="'Helvetica Neue', Helvetica, Arial, sans-serif" font-weight="bold" text-anchor="middle" dy="0.3em" data-section-id="input_sec">1</text>
<text x="57.0" y="55.0" font-size="16.0" fill="#aaaaaa" font-family="'Helvetica Neue', Helvetica, Arial, sans-serif" font-weight="bold" dy="0.3em" class="nf-metro-section-label" data-section-id="input_sec">Input</text>
<rect x="240.0" y="70.0" width="167.0" height="100.0" rx="8" ry="8" fill="#373737" stroke="#595959" stroke-width="1.0" class="nf-metro-section-box" data-section-id="fast_track" data-section-lines="fast" />
<circle cx="251.0" cy="55.0" r="11" fill="#333333" class="nf-metro-section-num-circle" data-section-id="fast_track" />
<text x="251.0" y="55.0" font-size="12" fill="#ffffff" font-family="'Helvetica Neue', Helvetica, Arial, sans-serif" font-weight="bold" text-anchor="middle" dy="0.3em" data-section-id="fast_track">2</text>
<text x="267.0" y="55.0" font-size="16.0" fill="#aaaaaa" font-family="'Helvetica Neue', Helvetica, Arial, sans-serif" font-weight="bold" dy="0.3em" class="nf-metro-section-label" data-section-id="fast_track">Fast Track</text>
<rect x="240.0" y="245.0" width="220.0" height="100.0" rx="8" ry="8" fill="#373737" stroke="#595959" stroke-width="1.0" class="nf-metro-section-box" data-section-id="full_preprocess" data-section-lines="detailed,legacy,standard" />
<circle cx="251.0" cy="230.0" r="11" fill="#333333" class="nf-metro-section-num-circle" data-section-id="full_preprocess" />
<text x="251.0" y="230.0" font-size="12" fill="#ffffff" font-family="'Helvetica Neue', Helvetica, Arial, sans-serif" font-weight="bold" text-anchor="middle" dy="0.3em" data-section-id="full_preprocess">3</text>
<text x="267.0" y="230.0" font-size="16.0" fill="#aaaaaa" font-family="'Helvetica Neue', Helvetica, Arial, sans-serif" font-weight="bold" dy="0.3em" class="nf-metro-section-label" data-section-id="full_preprocess">Full Pre-process</text>
<rect x="510.0" y="70.0" width="160.0" height="100.0" rx="8" ry="8" fill="#373737" stroke="#595959" stroke-width="1.0" class="nf-metro-section-box" data-section-id="standard_analysis" data-section-lines="legacy,standard" />
<circle cx="521.0" cy="55.0" r="11" fill="#333333" class="nf-metro-section-num-circle" data-section-id="standard_analysis" />
<text x="521.0" y="55.0" font-size="12" fill="#ffffff" font-family="'Helvetica Neue', Helvetica, Arial, sans-serif" font-weight="bold" text-anchor="middle" dy="0.3em" data-section-id="standard_analysis">4</text>
<text x="537.0" y="55.0" font-size="16.0" fill="#aaaaaa" font-family="'Helvetica Neue', Helvetica, Arial, sans-serif" font-weight="bold" dy="0.3em" class="nf-metro-section-label" data-section-id="standard_analysis">Standard Analysis</text>
<rect x="510.0" y="245.0" width="223.5" height="100.0" rx="8" ry="8" fill="#373737" stroke="#595959" stroke-width="1.0" class="nf-metro-section-box" data-section-id="deep_analysis" data-section-lines="detailed" />
<circle cx="521.0" cy="230.0" r="11" fill="#333333" class="nf-metro-section-num-circle" data-section-id="deep_analysis" />
<text x="521.0" y="230.0" font-size="12" fill="#ffffff" font-family="'Helvetica Neue', Helvetica, Arial, sans-serif" font-weight="bold" text-anchor="middle" dy="0.3em" data-section-id="deep_analysis">5</text>
<text x="537.0" y="230.0" font-size="16.0" fill="#aaaaaa" font-family="'Helvetica Neue', Helvetica, Arial, sans-serif" font-weight="bold" dy="0.3em" class="nf-metro-section-label" data-section-id="deep_analysis">Deep Analysis</text>
<rect x="783.5" y="70.0" width="160.0" height="100.0" rx="8" ry="8" fill="#373737" stroke="#595959" stroke-width="1.0" class="nf-metro-section-box" data-section-id="output_sec" data-section-lines="detailed,fast,legacy,standard" />
<circle cx="794.5" cy="55.0" r="11" fill="#333333" class="nf-metro-section-num-circle" data-section-id="output_sec" />
<text x="794.5" y="55.0" font-size="12" fill="#ffffff" font-family="'Helvetica Neue', Helvetica, Arial, sans-serif" font-weight="bold" text-anchor="middle" dy="0.3em" data-section-id="output_sec">6</text>
<text x="810.5" y="55.0" font-size="16.0" fill="#aaaaaa" font-family="'Helvetica Neue', Helvetica, Arial, sans-serif" font-weight="bold" dy="0.3em" class="nf-metro-section-label" data-section-id="output_sec">Output</text>
<path d="M80.0,129.0 L140.0,129.0" stroke="#f5c542" stroke-width="3.0" stroke-linecap="round" class="metro-line-legacy" data-line-id="legacy" />
<path d="M290.0,304.0 L350.0,304.0" stroke="#f5c542" stroke-width="3.0" stroke-linecap="round" class="metro-line-legacy" data-line-id="legacy" />
<path d="M350.0,304.0 L410.0,304.0" stroke="#f5c542" stroke-width="3.0" stroke-linecap="round" class="metro-line-legacy" data-line-id="legacy" />
<path d="M560.0,123.0 L620.0,123.0" stroke="#f5c542" stroke-width="3.0" stroke-linecap="round" class="metro-line-legacy" data-line-id="legacy" />
<path d="M833.5,123.0 L893.5,123.0" stroke="#f5c542" stroke-width="3.0" stroke-linecap="round" class="metro-line-legacy" data-line-id="legacy" />
<path d="M140.0,129.0 L190.0,129.0" stroke="#f5c542" stroke-width="3.0" stroke-linecap="round" class="metro-line-legacy" data-line-id="legacy" />
<path d="M240.0,304.0 L290.0,304.0" stroke="#f5c542" stroke-width="3.0" stroke-linecap="round" class="metro-line-legacy" data-line-id="legacy" />
<path d="M410.0,304.0 L460.0,304.0" stroke="#f5c542" stroke-width="3.0" stroke-linecap="round" class="metro-line-legacy" data-line-id="legacy" />
<path d="M510.0,123.0 L560.0,123.0" stroke="#f5c542" stroke-width="3.0" stroke-linecap="round" class="metro-line-legacy" data-line-id="legacy" />
<path d="M620.0,123.0 L670.0,123.0" stroke="#f5c542" stroke-width="3.0" stroke-linecap="round" class="metro-line-legacy" data-line-id="legacy" />
<path d="M783.5,123.0 L833.5,123.0" stroke="#f5c542" stroke-width="3.0" stroke-linecap="round" class="metro-line-legacy" data-line-id="legacy" />
<path d="M190.0,129.0 L200.0,129.0" stroke="#f5c542" stroke-width="3.0" stroke-linecap="round" class="metro-line-legacy" data-line-id="legacy" />
<path d="M200.0,129.0 L206.0,129.0 Q216.0,129.0,216.0,139.0 L216.0,288.0 Q216.0,304.0,232.0,304.0 L240.0,304.0" stroke="#f5c542" stroke-width="3.0" fill="none" stroke-linecap="round" stroke-linejoin="round" class="metro-line-legacy" data-line-id="legacy" />
<path d="M460.0,304.0 L466.5,304.0 Q482.0,304.0,482.0,288.5 L482.0,288.5 Q482.0,279.0,472.5,279.0 L470.0,279.0" stroke="#f5c542" stroke-width="3.0" fill="none" stroke-linecap="round" stroke-linejoin="round" class="metro-line-legacy" data-line-id="legacy" />
<path d="M470.0,279.0 L474.5,279.0 Q487.5,279.0,487.5,266.0 L487.5,133.0 Q487.5,123.0,497.5,123.0 L510.0,123.0" stroke="#f5c542" stroke-width="3.0" fill="none" stroke-linecap="round" stroke-linejoin="round" class="metro-line-legacy" data-line-id="legacy" />
<path d="M670.0,123.0 L783.5,123.0" stroke="#f5c542" stroke-width="3.0" stroke-linecap="round" class="metro-line-legacy" data-line-id="legacy" />
<path d="M80.0,126.0 L140.0,126.0" stroke="#0570b0" stroke-width="3.0" stroke-linecap="round" class="metro-line-detailed" data-line-id="detailed" />
<path d="M290.0,301.0 L350.0,301.0" stroke="#0570b0" stroke-width="3.0" stroke-linecap="round" class="metro-line-detailed" data-line-id="detailed" />
<path d="M350.0,301.0 L410.0,301.0" stroke="#0570b0" stroke-width="3.0" stroke-linecap="round" class="metro-line-detailed" data-line-id="detailed" />
<path d="M560.0,301.0 L620.0,301.0" stroke="#0570b0" stroke-width="3.0" stroke-linecap="round" class="metro-line-detailed" data-line-id="detailed" />
<path d="M620.0,301.0 L680.0,301.0" stroke="#0570b0" stroke-width="3.0" stroke-linecap="round" class="metro-line-detailed" data-line-id="detailed" />
<path d="M833.5,129.0 L893.5,129.0" stroke="#0570b0" stroke-width="3.0" stroke-linecap="round" class="metro-line-detailed" data-line-id="detailed" />
<path d="M140.0,126.0 L190.0,126.0" stroke="#0570b0" stroke-width="3.0" stroke-linecap="round" class="metro-line-detailed" data-line-id="detailed" />
<path d="M240.0,301.0 L290.0,301.0" stroke="#0570b0" stroke-width="3.0" stroke-linecap="round" class="metro-line-detailed" data-line-id="detailed" />
<path d="M410.0,301.0 L460.0,301.0" stroke="#0570b0" stroke-width="3.0" stroke-linecap="round" class="metro-line-detailed" data-line-id="detailed" />
<path d="M510.0,301.0 L560.0,301.0" stroke="#0570b0" stroke-width="3.0" stroke-linecap="round" class="metro-line-detailed" data-line-id="detailed" />
<path d="M680.0,301.0 L733.5,301.0" stroke="#0570b0" stroke-width="3.0" stroke-linecap="round" class="metro-line-detailed" data-line-id="detailed" />
<path d="M783.5,129.0 L833.5,129.0" stroke="#0570b0" stroke-width="3.0" stroke-linecap="round" class="metro-line-detailed" data-line-id="detailed" />
<path d="M190.0,126.0 L200.0,126.0" stroke="#0570b0" stroke-width="3.0" stroke-linecap="round" class="metro-line-detailed" data-line-id="detailed" />
<path d="M200.0,126.0 L206.0,126.0 Q219.0,126.0,219.0,139.0 L219.0,288.0 Q219.0,301.0,232.0,301.0 L240.0,301.0" stroke="#0570b0" stroke-width="3.0" fill="none" stroke-linecap="round" stroke-linejoin="round" class="metro-line-detailed" data-line-id="detailed" />
<path d="M460.0,301.0 L466.5,301.0 Q479.0,301.0,479.0,288.5 L479.0,285.0 Q479.0,276.0,470.0,276.0 L470.0,276.0" stroke="#0570b0" stroke-width="3.0" fill="none" stroke-linecap="round" stroke-linejoin="round" class="metro-line-detailed" data-line-id="detailed" />
<path d="M470.0,276.0 L473.0,276.0 Q483.0,276.0,483.0,286.0 L483.0,291.0 Q483.0,301.0,493.0,301.0 L510.0,301.0" stroke="#0570b0" stroke-width="3.0" fill="none" stroke-linecap="round" stroke-linejoin="round" class="metro-line-detailed" data-line-id="detailed" />
<path d="M733.5,301.0 L748.5,301.0 Q758.5,301.0,758.5,291.0 L758.5,139.0 Q758.5,129.0,768.5,129.0 L783.5,129.0" stroke="#0570b0" stroke-width="3.0" fill="none" stroke-linecap="round" stroke-linejoin="round" class="metro-line-detailed" data-line-id="detailed" />
<path d="M80.0,123.0 L140.0,123.0" stroke="#2db572" stroke-width="3.0" stroke-linecap="round" class="metro-line-standard" data-line-id="standard" />
<path d="M290.0,298.0 L350.0,298.0" stroke="#2db572" stroke-width="3.0" stroke-linecap="round" class="metro-line-standard" data-line-id="standard" />
<path d="M350.0,298.0 L410.0,298.0" stroke="#2db572" stroke-width="3.0" stroke-linecap="round" class="metro-line-standard" data-line-id="standard" />
<path d="M560.0,120.0 L620.0,120.0" stroke="#2db572" stroke-width="3.0" stroke-linecap="round" class="metro-line-standard" data-line-id="standard" />
<path d="M833.5,120.0 L893.5,120.0" stroke="#2db572" stroke-width="3.0" stroke-linecap="round" class="metro-line-standard" data-line-id="standard" />
<path d="M140.0,123.0 L190.0,123.0" stroke="#2db572" stroke-width="3.0" stroke-linecap="round" class="metro-line-standard" data-line-id="standard" />
<path d="M240.0,298.0 L290.0,298.0" stroke="#2db572" stroke-width="3.0" stroke-linecap="round" class="metro-line-standard" data-line-id="standard" />
<path d="M410.0,298.0 L460.0,298.0" stroke="#2db572" stroke-width="3.0" stroke-linecap="round" class="metro-line-standard" data-line-id="standard" />
<path d="M510.0,120.0 L560.0,120.0" stroke="#2db572" stroke-width="3.0" stroke-linecap="round" class="metro-line-standard" data-line-id="standard" />
<path d="M620.0,120.0 L670.0,120.0" stroke="#2db572" stroke-width="3.0" stroke-linecap="round" class="metro-line-standard" data-line-id="standard" />
<path d="M783.5,120.0 L833.5,120.0" stroke="#2db572" stroke-width="3.0" stroke-linecap="round" class="metro-line-standard" data-line-id="standard" />
<path d="M190.0,123.0 L200.0,123.0" stroke="#2db572" stroke-width="3.0" stroke-linecap="round" class="metro-line-standard" data-line-id="standard" />
<path d="M200.0,123.0 L206.0,123.0 Q222.0,123.0,222.0,139.0 L222.0,288.0 Q222.0,298.0,232.0,298.0 L240.0,298.0" stroke="#2db572" stroke-width="3.0" fill="none" stroke-linecap="round" stroke-linejoin="round" class="metro-line-standard" data-line-id="standard" />
<path d="M460.0,298.0 L466.5,298.0 Q476.0,298.0,476.0,288.5 L476.0,279.0 Q476.0,273.0,470.0,273.0 L470.0,273.0" stroke="#2db572" stroke-width="3.0" fill="none" stroke-linecap="round" stroke-linejoin="round" class="metro-line-standard" data-line-id="standard" />
<path d="M470.0,273.0 L474.5,273.0 Q484.5,273.0,484.5,263.0 L484.5,133.0 Q484.5,120.0,497.5,120.0 L510.0,120.0" stroke="#2db572" stroke-width="3.0" fill="none" stroke-linecap="round" stroke-linejoin="round" class="metro-line-standard" data-line-id="standard" />
<path d="M670.0,120.0 L783.5,120.0" stroke="#2db572" stroke-width="3.0" stroke-linecap="round" class="metro-line-standard" data-line-id="standard" />
<path d="M80.0,120.0 L140.0,120.0" stroke="#e63946" stroke-width="3.0" stroke-linecap="round" class="metro-line-fast" data-line-id="fast" />
<path d="M293.5,120.0 L353.5,120.0" stroke="#e63946" stroke-width="3.0" stroke-linecap="round" class="metro-line-fast" data-line-id="fast" />
<path d="M833.5,126.0 L893.5,126.0" stroke="#e63946" stroke-width="3.0" stroke-linecap="round" class="metro-line-fast" data-line-id="fast" />
<path d="M140.0,120.0 L190.0,120.0" stroke="#e63946" stroke-width="3.0" stroke-linecap="round" class="metro-line-fast" data-line-id="fast" />
<path d="M240.0,120.0 L293.5,120.0" stroke="#e63946" stroke-width="3.0" stroke-linecap="round" class="metro-line-fast" data-line-id="fast" />
<path d="M353.5,120.0 L407.0,120.0" stroke="#e63946" stroke-width="3.0" stroke-linecap="round" class="metro-line-fast" data-line-id="fast" />
<path d="M783.5,126.0 L833.5,126.0" stroke="#e63946" stroke-width="3.0" stroke-linecap="round" class="metro-line-fast" data-line-id="fast" />
<path d="M190.0,120.0 L200.0,120.0" stroke="#e63946" stroke-width="3.0" stroke-linecap="round" class="metro-line-fast" data-line-id="fast" />
<path d="M200.0,120.0 L240.0,120.0" stroke="#e63946" stroke-width="3.0" stroke-linecap="round" class="metro-line-fast" data-line-id="fast" />
<path d="M407.0,120.0 L462.0,120.0 Q472.0,120.0,472.0,130.0 L472.0,179.0 Q472.0,189.0,482.0,189.0 L761.5,189.0 Q771.5,189.0,771.5,179.0 L771.5,136.0 Q771.5,126.0,781.5,126.0 L783.5,126.0" stroke="#e63946" stroke-width="3.0" fill="none" stroke-linecap="round" stroke-linejoin="round" class="metro-line-fast" data-line-id="fast" />
<rect x="75.0" y="115.0" width="10.0" height="19.0" rx="5.0" ry="5.0" fill="#ffffff" stroke="#333333" stroke-width="1.5" class="nf-metro-station" data-station-id="raw" data-station-lines="detailed,fast,legacy,standard" data-station-label="Raw Data" data-section-id="input_sec" data-section-name="Input" />
<rect x="135.0" y="115.0" width="10.0" height="19.0" rx="5.0" ry="5.0" fill="#ffffff" stroke="#333333" stroke-width="1.5" class="nf-metro-station" data-station-id="validate" data-station-lines="detailed,fast,legacy,standard" data-station-label="Validate" data-section-id="input_sec" data-section-name="Input" />
<rect x="288.5" y="115.0" width="10.0" height="10.0" rx="5.0" ry="5.0" fill="#ffffff" stroke="#333333" stroke-width="1.5" class="nf-metro-station" data-station-id="quick_align" data-station-lines="fast" data-station-label="Quick Align" data-section-id="fast_track" data-section-name="Fast Track" />
<rect x="348.5" y="115.0" width="10.0" height="10.0" rx="5.0" ry="5.0" fill="#ffffff" stroke="#333333" stroke-width="1.5" class="nf-metro-station" data-station-id="quick_quant" data-station-lines="fast" data-station-label="Quick Quant" data-section-id="fast_track" data-section-name="Fast Track" />
<rect x="285.0" y="293.0" width="10.0" height="16.0" rx="5.0" ry="5.0" fill="#ffffff" stroke="#333333" stroke-width="1.5" class="nf-metro-station" data-station-id="trim" data-station-lines="detailed,legacy,standard" data-station-label="Trim" data-section-id="full_preprocess" data-section-name="Full Pre-process" />
<rect x="345.0" y="293.0" width="10.0" height="16.0" rx="5.0" ry="5.0" fill="#ffffff" stroke="#333333" stroke-width="1.5" class="nf-metro-station" data-station-id="filter" data-station-lines="detailed,legacy,standard" data-station-label="Filter" data-section-id="full_preprocess" data-section-name="Full Pre-process" />
<rect x="405.0" y="293.0" width="10.0" height="16.0" rx="5.0" ry="5.0" fill="#ffffff" stroke="#333333" stroke-width="1.5" class="nf-metro-station" data-station-id="qc_check" data-station-lines="detailed,legacy,standard" data-station-label="QC Check" data-section-id="full_preprocess" data-section-name="Full Pre-process" />
<rect x="555.0" y="115.0" width="10.0" height="13.0" rx="5.0" ry="5.0" fill="#ffffff" stroke="#333333" stroke-width="1.5" class="nf-metro-station" data-station-id="align" data-station-lines="legacy,standard" data-station-label="Align" data-section-id="standard_analysis" data-section-name="Standard Analysis" />
<rect x="615.0" y="115.0" width="10.0" height="13.0" rx="5.0" ry="5.0" fill="#ffffff" stroke="#333333" stroke-width="1.5" class="nf-metro-station" data-station-id="quant" data-station-lines="legacy,standard" data-station-label="Quantify" data-section-id="standard_analysis" data-section-name="Standard Analysis" />
<rect x="555.0" y="296.0" width="10.0" height="10.0" rx="5.0" ry="5.0" fill="#ffffff" stroke="#333333" stroke-width="1.5" class="nf-metro-station" data-station-id="hq_align" data-station-lines="detailed" data-station-label="HQ Align" data-section-id="deep_analysis" data-section-name="Deep Analysis" />
<rect x="615.0" y="296.0" width="10.0" height="10.0" rx="5.0" ry="5.0" fill="#ffffff" stroke="#333333" stroke-width="1.5" class="nf-metro-station" data-station-id="dedup" data-station-lines="detailed" data-station-label="Dedup" data-section-id="deep_analysis" data-section-name="Deep Analysis" />
<rect x="675.0" y="296.0" width="10.0" height="10.0" rx="5.0" ry="5.0" fill="#ffffff" stroke="#333333" stroke-width="1.5" class="nf-metro-station" data-station-id="hq_quant" data-station-lines="detailed" data-station-label="HQ Quantify" data-section-id="deep_analysis" data-section-name="Deep Analysis" />
<rect x="828.5" y="115.0" width="10.0" height="19.0" rx="5.0" ry="5.0" fill="#ffffff" stroke="#333333" stroke-width="1.5" class="nf-metro-station" data-station-id="aggregate" data-station-lines="detailed,fast,legacy,standard" data-station-label="Aggregate" data-section-id="output_sec" data-section-name="Output" />
<rect x="888.5" y="115.0" width="10.0" height="19.0" rx="5.0" ry="5.0" fill="#ffffff" stroke="#333333" stroke-width="1.5" class="nf-metro-station" data-station-id="report" data-station-lines="detailed,fast,legacy,standard" data-station-label="Report" data-section-id="output_sec" data-section-name="Output" />
<text x="80.0" y="140.0" font-size="13.0" fill="#e0e0e0" font-family="'Helvetica Neue', Helvetica, Arial, sans-serif" font-weight="bold" text-anchor="middle" dominant-baseline="hanging" data-station-id="raw" class="nf-metro-station-label">Raw Data</text>
<text x="293.5" y="131.0" font-size="13.0" fill="#e0e0e0" font-family="'Helvetica Neue', Helvetica, Arial, sans-serif" font-weight="bold" text-anchor="middle" dominant-baseline="hanging" data-station-id="quick_align" class="nf-metro-station-label">Quick Align</text>
<text x="833.5" y="140.0" font-size="13.0" fill="#e0e0e0" font-family="'Helvetica Neue', Helvetica, Arial, sans-serif" font-weight="bold" text-anchor="middle" dominant-baseline="hanging" data-station-id="aggregate" class="nf-metro-station-label">Aggregate</text>
<text x="290.0" y="315.0" font-size="13.0" fill="#e0e0e0" font-family="'Helvetica Neue', Helvetica, Arial, sans-serif" font-weight="bold" text-anchor="middle" dominant-baseline="hanging" data-station-id="trim" class="nf-metro-station-label">Trim</text>
<text x="560.0" y="134.0" font-size="13.0" fill="#e0e0e0" font-family="'Helvetica Neue', Helvetica, Arial, sans-serif" font-weight="bold" text-anchor="middle" dominant-baseline="hanging" data-station-id="align" class="nf-metro-station-label">Align</text>
<text x="560.0" y="312.0" font-size="13.0" fill="#e0e0e0" font-family="'Helvetica Neue', Helvetica, Arial, sans-serif" font-weight="bold" text-anchor="middle" dominant-baseline="hanging" data-station-id="hq_align" class="nf-metro-station-label">HQ Align</text>
<text x="140.0" y="106.0" font-size="13.0" fill="#e0e0e0" font-family="'Helvetica Neue', Helvetica, Arial, sans-serif" font-weight="bold" text-anchor="middle" dominant-baseline="auto" data-station-id="validate" class="nf-metro-station-label">Validate</text>
<text x="353.5" y="106.0" font-size="13.0" fill="#e0e0e0" font-family="'Helvetica Neue', Helvetica, Arial, sans-serif" font-weight="bold" text-anchor="middle" dominant-baseline="auto" data-station-id="quick_quant" class="nf-metro-station-label">Quick Quant</text>
<text x="893.5" y="106.0" font-size="13.0" fill="#e0e0e0" font-family="'Helvetica Neue', Helvetica, Arial, sans-serif" font-weight="bold" text-anchor="middle" dominant-baseline="auto" data-station-id="report" class="nf-metro-station-label">Report</text>
<text x="350.0" y="284.0" font-size="13.0" fill="#e0e0e0" font-family="'Helvetica Neue', Helvetica, Arial, sans-serif" font-weight="bold" text-anchor="middle" dominant-baseline="auto" data-station-id="filter" class="nf-metro-station-label">Filter</text>
<text x="620.0" y="106.0" font-size="13.0" fill="#e0e0e0" font-family="'Helvetica Neue', Helvetica, Arial, sans-serif" font-weight="bold" text-anchor="middle" dominant-baseline="auto" data-station-id="quant" class="nf-metro-station-label">Quantify</text>
<text x="620.0" y="287.0" font-size="13.0" fill="#e0e0e0" font-family="'Helvetica Neue', Helvetica, Arial, sans-serif" font-weight="bold" text-anchor="middle" dominant-baseline="auto" data-station-id="dedup" class="nf-metro-station-label">Dedup</text>
<text x="410.0" y="315.0" font-size="13.0" fill="#e0e0e0" font-family="'Helvetica Neue', Helvetica, Arial, sans-serif" font-weight="bold" text-anchor="middle" dominant-baseline="hanging" data-station-id="qc_check" class="nf-metro-station-label">QC Check</text>
<text x="680.0" y="312.0" font-size="13.0" fill="#e0e0e0" font-family="'Helvetica Neue', Helvetica, Arial, sans-serif" font-weight="bold" text-anchor="middle" dominant-baseline="hanging" data-station-id="hq_quant" class="nf-metro-station-label">HQ Quantify</text>
<rect x="30.0" y="375.0" width="190.9" height="120.0" rx="6" ry="6" fill="rgba(0, 0, 0, 0.3)" />
<path d="M42.0,399.0 L66.0,399.0" stroke="#e63946" stroke-width="3.0" stroke-linecap="round" />
<text x="78.0" y="399.0" font-size="14.0" fill="#e0e0e0" font-family="'Helvetica Neue', Helvetica, Arial, sans-serif" dy="0.3em">Fast Path</text>
<path d="M42.0,423.0 L66.0,423.0" stroke="#2db572" stroke-width="3.0" stroke-linecap="round" />
<text x="78.0" y="423.0" font-size="14.0" fill="#e0e0e0" font-family="'Helvetica Neue', Helvetica, Arial, sans-serif" dy="0.3em">Standard Path</text>
<path d="M42.0,447.0 L66.0,447.0" stroke="#0570b0" stroke-width="3.0" stroke-linecap="round" />
<text x="78.0" y="447.0" font-size="14.0" fill="#e0e0e0" font-family="'Helvetica Neue', Helvetica, Arial, sans-serif" dy="0.3em">Detailed Analysis</text>
<path d="M42.0,471.0 L66.0,471.0" stroke="#f5c542" stroke-width="3.0" stroke-linecap="round" />
<text x="78.0" y="471.0" font-size="14.0" fill="#e0e0e0" font-family="'Helvetica Neue', Helvetica, Arial, sans-serif" dy="0.3em">Legacy Path</text>
<text x="973.0" y="511.0" font-size="8" fill="rgba(150, 150, 150, 0.6)" font-family="'Helvetica Neue', Helvetica, Arial, sans-serif" text-anchor="end">created with nf-metro v0.7.1+dev</text>
</svg>