<?xml version="1.0" encoding="UTF-8"?>
<svg xmlns="http://www.w3.org/2000/svg" xmlns:xlink="http://www.w3.org/1999/xlink"
     width="832" height="656" viewBox="0 0 832 656">
<defs>
</defs>
<style>.nf-metro-bg { fill: var(--nfm-bg, #2b2b2b); }
.nf-metro-title { fill: var(--nfm-title-color, #ffffff); }
.nf-metro-station-label { fill: var(--nfm-label-color, #e0e0e0); }
.nf-metro-section-box { fill: var(--nfm-section-fill, #373737); stroke: var(--nfm-section-stroke, #595959); }
.nf-metro-section-label { fill: var(--nfm-section-label-color, #c8c8c8); }
.nf-metro-group-label { fill: var(--nfm-section-label-color, #c8c8c8); }
.nf-metro-group-underline { stroke: var(--nfm-section-label-color, #c8c8c8); }
.nf-metro-legend-bg { fill: var(--nfm-legend-bg, rgba(0, 0, 0, 0.3)); }
.nf-metro-legend-text { fill: var(--nfm-legend-text-color, #e0e0e0); }</style>
<rect x="0" y="0" width="832" height="656" fill="#2b2b2b" class="nf-metro-bg" />
<text x="60.0" y="30.0" font-size="24.0" fill="#ffffff" font-family="'Helvetica Neue', Helvetica, Arial, sans-serif" font-weight="bold" class="nf-metro-title">Upward Bypass Test</text>
<rect x="60.0" y="70.0" width="100.0" height="107.0" rx="8" ry="8" fill="#373737" stroke="#595959" stroke-width="1.0" class="nf-metro-section-box" data-section-id="input" data-section-lines="a,b,c,d,e,f,g" />
<circle cx="71.0" cy="55.0" r="11" fill="#333333" class="nf-metro-section-num-circle" data-section-id="input" />
<text x="71.0" y="55.0" font-size="12" fill="#ffffff" font-family="'Helvetica Neue', Helvetica, Arial, sans-serif" font-weight="bold" text-anchor="middle" dy="0.3em" data-section-id="input">1</text>
<text x="87.0" y="55.0" font-size="16.0" fill="#c8c8c8" font-family="'Helvetica Neue', Helvetica, Arial, sans-serif" font-weight="bold" dy="0.3em" class="nf-metro-section-label" data-section-id="input">Input</text>
<rect x="240.0" y="70.0" width="172.0" height="340.0" rx="8" ry="8" fill="#373737" stroke="#595959" stroke-width="1.0" class="nf-metro-section-box" data-section-id="wide" data-section-lines="a,b,c,d,e,f,g" />
<circle cx="251.0" cy="55.0" r="11" fill="#333333" class="nf-metro-section-num-circle" data-section-id="wide" />
<text x="251.0" y="55.0" font-size="12" fill="#ffffff" font-family="'Helvetica Neue', Helvetica, Arial, sans-serif" font-weight="bold" text-anchor="middle" dy="0.3em" data-section-id="wide">2</text>
<text x="267.0" y="55.0" font-size="16.0" fill="#c8c8c8" font-family="'Helvetica Neue', Helvetica, Arial, sans-serif" font-weight="bold" dy="0.3em" class="nf-metro-section-label" data-section-id="wide">Wide Fan-out</text>
<rect x="492.0" y="70.0" width="100.0" height="100.0" rx="8" ry="8" fill="#373737" stroke="#595959" stroke-width="1.0" class="nf-metro-section-box" data-section-id="adjacent" data-section-lines="a" />
<circle cx="503.0" cy="55.0" r="11" fill="#333333" class="nf-metro-section-num-circle" data-section-id="adjacent" />
<text x="503.0" y="55.0" font-size="12" fill="#ffffff" font-family="'Helvetica Neue', Helvetica, Arial, sans-serif" font-weight="bold" text-anchor="middle" dy="0.3em" data-section-id="adjacent">3</text>
<text x="519.0" y="55.0" font-size="16.0" fill="#c8c8c8" font-family="'Helvetica Neue', Helvetica, Arial, sans-serif" font-weight="bold" dy="0.3em" class="nf-metro-section-label" data-section-id="adjacent">Adjacent</text>
<rect x="672.0" y="70.0" width="100.0" height="107.0" rx="8" ry="8" fill="#373737" stroke="#595959" stroke-width="1.0" class="nf-metro-section-box" data-section-id="far" data-section-lines="a,b,c,d,e,f,g" />
<circle cx="683.0" cy="55.0" r="11" fill="#333333" class="nf-metro-section-num-circle" data-section-id="far" />
<text x="683.0" y="55.0" font-size="12" fill="#ffffff" font-family="'Helvetica Neue', Helvetica, Arial, sans-serif" font-weight="bold" text-anchor="middle" dy="0.3em" data-section-id="far">4</text>
<text x="699.0" y="55.0" font-size="16.0" fill="#c8c8c8" font-family="'Helvetica Neue', Helvetica, Arial, sans-serif" font-weight="bold" dy="0.3em" class="nf-metro-section-label" data-section-id="far">Far Target</text>
<path d="M110.0,144.0 L160.0,144.0" stroke="#CDDC39" stroke-width="3.0" stroke-linecap="round" class="metro-line-g" data-line-id="g" />
<path d="M240.0,144.0 L240.0,144.0 Q250.0,144.0,251.37568371274688,153.9049227317775 L278.6243162872531,350.0950772682225 Q280.0,360.0,290.0,360.0 L326.0,360.0" stroke="#CDDC39" stroke-width="3.0" fill="none" stroke-linecap="round" stroke-linejoin="round" class="metro-line-g" data-line-id="g" />
<path d="M326.0,360.0 L362.0,360.0 Q372.0,360.0,373.3756837127469,350.0950772682225 L400.6243162872531,153.9049227317775 Q402.0,144.0,412.0,144.0 L412.0,144.0" stroke="#CDDC39" stroke-width="3.0" fill="none" stroke-linecap="round" stroke-linejoin="round" class="metro-line-g" data-line-id="g" />
<path d="M672.0,144.0 L722.0,144.0" stroke="#CDDC39" stroke-width="3.0" stroke-linecap="round" class="metro-line-g" data-line-id="g" />
<path d="M160.0,144.0 L240.0,144.0" stroke="#CDDC39" stroke-width="3.0" stroke-linecap="round" class="metro-line-g" data-line-id="g" />
<path d="M412.0,144.0 L422.0,144.0" stroke="#CDDC39" stroke-width="3.0" stroke-linecap="round" class="metro-line-g" data-line-id="g" />
<path d="M422.0,144.0 L430.0,144.0 Q440.0,144.0,440.0,154.0 L440.0,185.0 Q440.0,219.0,474.0,219.0 L610.0,219.0 Q644.0,219.0,644.0,185.0 L644.0,154.0 Q644.0,144.0,654.0,144.0 L672.0,144.0" stroke="#CDDC39" stroke-width="3.0" fill="none" stroke-linecap="round" stroke-linejoin="round" class="metro-line-g" data-line-id="g" />
<path d="M110.0,140.0 L160.0,140.0" stroke="#00BCD4" stroke-width="3.0" stroke-linecap="round" class="metro-line-f" data-line-id="f" />
<path d="M240.0,140.0 L242.0,140.0 Q252.0,140.0,253.64398987305358,149.86393923832145 L280.35601012694644,310.13606076167855 Q282.0,320.0,292.0,320.0 L326.0,320.0" stroke="#00BCD4" stroke-width="3.0" fill="none" stroke-linecap="round" stroke-linejoin="round" class="metro-line-f" data-line-id="f" />
<path d="M326.0,320.0 L360.0,320.0 Q370.0,320.0,371.64398987305356,310.13606076167855 L398.35601012694644,149.86393923832145 Q400.0,140.0,410.0,140.0 L412.0,140.0" stroke="#00BCD4" stroke-width="3.0" fill="none" stroke-linecap="round" stroke-linejoin="round" class="metro-line-f" data-line-id="f" />
<path d="M672.0,140.0 L722.0,140.0" stroke="#00BCD4" stroke-width="3.0" stroke-linecap="round" class="metro-line-f" data-line-id="f" />
<path d="M160.0,140.0 L240.0,140.0" stroke="#00BCD4" stroke-width="3.0" stroke-linecap="round" class="metro-line-f" data-line-id="f" />
<path d="M412.0,140.0 L422.0,140.0" stroke="#00BCD4" stroke-width="3.0" stroke-linecap="round" class="metro-line-f" data-line-id="f" />
<path d="M422.0,140.0 L430.0,140.0 Q444.0,140.0,444.0,154.0 L444.0,185.0 Q444.0,215.0,474.0,215.0 L610.0,215.0 Q640.0,215.0,640.0,185.0 L640.0,154.0 Q640.0,140.0,654.0,140.0 L672.0,140.0" stroke="#00BCD4" stroke-width="3.0" fill="none" stroke-linecap="round" stroke-linejoin="round" class="metro-line-f" data-line-id="f" />
<path d="M110.0,136.0 L160.0,136.0" stroke="#9C27B0" stroke-width="3.0" stroke-linecap="round" class="metro-line-e" data-line-id="e" />
<path d="M240.0,136.0 L244.0,136.0 Q254.0,136.0,256.03954254112,145.78980419737604 L281.96045745888,270.21019580262396 Q284.0,280.0,294.0,280.0 L326.0,280.0" stroke="#9C27B0" stroke-width="3.0" fill="none" stroke-linecap="round" stroke-linejoin="round" class="metro-line-e" data-line-id="e" />
<path d="M326.0,280.0 L358.0,280.0 Q368.0,280.0,370.03954254112,270.21019580262396 L395.96045745888,145.78980419737604 Q398.0,136.0,408.0,136.0 L412.0,136.0" stroke="#9C27B0" stroke-width="3.0" fill="none" stroke-linecap="round" stroke-linejoin="round" class="metro-line-e" data-line-id="e" />
<path d="M672.0,136.0 L722.0,136.0" stroke="#9C27B0" stroke-width="3.0" stroke-linecap="round" class="metro-line-e" data-line-id="e" />
<path d="M160.0,136.0 L240.0,136.0" stroke="#9C27B0" stroke-width="3.0" stroke-linecap="round" class="metro-line-e" data-line-id="e" />
<path d="M412.0,136.0 L422.0,136.0" stroke="#9C27B0" stroke-width="3.0" stroke-linecap="round" class="metro-line-e" data-line-id="e" />
<path d="M422.0,136.0 L430.0,136.0 Q448.0,136.0,448.0,154.0 L448.0,185.0 Q448.0,211.0,474.0,211.0 L610.0,211.0 Q636.0,211.0,636.0,185.0 L636.0,154.0 Q636.0,136.0,654.0,136.0 L672.0,136.0" stroke="#9C27B0" stroke-width="3.0" fill="none" stroke-linecap="round" stroke-linejoin="round" class="metro-line-e" data-line-id="e" />
<path d="M110.0,132.0 L160.0,132.0" stroke="#E91E63" stroke-width="3.0" stroke-linecap="round" class="metro-line-d" data-line-id="d" />
<path d="M240.0,132.0 L246.0,132.0 Q256.0,132.0,258.67643863786094,141.6351790962994 L283.32356136213906,230.3648209037006 Q286.0,240.0,296.0,240.0 L326.0,240.0" stroke="#E91E63" stroke-width="3.0" fill="none" stroke-linecap="round" stroke-linejoin="round" class="metro-line-d" data-line-id="d" />
<path d="M326.0,240.0 L356.0,240.0 Q366.0,240.0,368.67643863786094,230.3648209037006 L393.32356136213906,141.6351790962994 Q396.0,132.0,406.0,132.0 L412.0,132.0" stroke="#E91E63" stroke-width="3.0" fill="none" stroke-linecap="round" stroke-linejoin="round" class="metro-line-d" data-line-id="d" />
<path d="M672.0,132.0 L722.0,132.0" stroke="#E91E63" stroke-width="3.0" stroke-linecap="round" class="metro-line-d" data-line-id="d" />
<path d="M160.0,132.0 L240.0,132.0" stroke="#E91E63" stroke-width="3.0" stroke-linecap="round" class="metro-line-d" data-line-id="d" />
<path d="M412.0,132.0 L422.0,132.0" stroke="#E91E63" stroke-width="3.0" stroke-linecap="round" class="metro-line-d" data-line-id="d" />
<path d="M422.0,132.0 L430.0,132.0 Q452.0,132.0,452.0,154.0 L452.0,185.0 Q452.0,207.0,474.0,207.0 L610.0,207.0 Q632.0,207.0,632.0,185.0 L632.0,154.0 Q632.0,132.0,654.0,132.0 L672.0,132.0" stroke="#E91E63" stroke-width="3.0" fill="none" stroke-linecap="round" stroke-linejoin="round" class="metro-line-d" data-line-id="d" />
<path d="M110.0,128.0 L160.0,128.0" stroke="#2196F3" stroke-width="3.0" stroke-linecap="round" class="metro-line-c" data-line-id="c" />
<path d="M240.0,128.0 L248.0,128.0 Q258.0,128.0,261.84615384615387,137.23076923076923 L284.15384615384613,190.76923076923077 Q288.0,200.0,298.0,200.0 L326.0,200.0" stroke="#2196F3" stroke-width="3.0" fill="none" stroke-linecap="round" stroke-linejoin="round" class="metro-line-c" data-line-id="c" />
<path d="M326.0,200.0 L354.0,200.0 Q364.0,200.0,367.84615384615387,190.76923076923077 L390.15384615384613,137.23076923076923 Q394.0,128.0,404.0,128.0 L412.0,128.0" stroke="#2196F3" stroke-width="3.0" fill="none" stroke-linecap="round" stroke-linejoin="round" class="metro-line-c" data-line-id="c" />
<path d="M672.0,128.0 L722.0,128.0" stroke="#2196F3" stroke-width="3.0" stroke-linecap="round" class="metro-line-c" data-line-id="c" />
<path d="M160.0,128.0 L240.0,128.0" stroke="#2196F3" stroke-width="3.0" stroke-linecap="round" class="metro-line-c" data-line-id="c" />
<path d="M412.0,128.0 L422.0,128.0" stroke="#2196F3" stroke-width="3.0" stroke-linecap="round" class="metro-line-c" data-line-id="c" />
<path d="M422.0,128.0 L430.0,128.0 Q456.0,128.0,456.0,154.0 L456.0,185.0 Q456.0,203.0,474.0,203.0 L610.0,203.0 Q628.0,203.0,628.0,185.0 L628.0,154.0 Q628.0,128.0,654.0,128.0 L672.0,128.0" stroke="#2196F3" stroke-width="3.0" fill="none" stroke-linecap="round" stroke-linejoin="round" class="metro-line-c" data-line-id="c" />
<path d="M110.0,124.0 L160.0,124.0" stroke="#4CAF50" stroke-width="3.0" stroke-linecap="round" class="metro-line-b" data-line-id="b" />
<path d="M240.0,124.0 L250.0,124.0 Q260.0,124.0,266.4018439966448,131.68221279597375 L283.5981560033552,152.31778720402625 Q290.0,160.0,300.0,160.0 L326.0,160.0" stroke="#4CAF50" stroke-width="3.0" fill="none" stroke-linecap="round" stroke-linejoin="round" class="metro-line-b" data-line-id="b" />
<path d="M326.0,160.0 L352.0,160.0 Q362.0,160.0,368.4018439966448,152.31778720402625 L385.5981560033552,131.68221279597375 Q392.0,124.0,402.0,124.0 L412.0,124.0" stroke="#4CAF50" stroke-width="3.0" fill="none" stroke-linecap="round" stroke-linejoin="round" class="metro-line-b" data-line-id="b" />
<path d="M672.0,124.0 L722.0,124.0" stroke="#4CAF50" stroke-width="3.0" stroke-linecap="round" class="metro-line-b" data-line-id="b" />
<path d="M160.0,124.0 L240.0,124.0" stroke="#4CAF50" stroke-width="3.0" stroke-linecap="round" class="metro-line-b" data-line-id="b" />
<path d="M412.0,124.0 L422.0,124.0" stroke="#4CAF50" stroke-width="3.0" stroke-linecap="round" class="metro-line-b" data-line-id="b" />
<path d="M422.0,124.0 L430.0,124.0 Q460.0,124.0,460.0,154.0 L460.0,185.0 Q460.0,199.0,474.0,199.0 L610.0,199.0 Q624.0,199.0,624.0,185.0 L624.0,154.0 Q624.0,124.0,654.0,124.0 L672.0,124.0" stroke="#4CAF50" stroke-width="3.0" fill="none" stroke-linecap="round" stroke-linejoin="round" class="metro-line-b" data-line-id="b" />
<path d="M110.0,120.0 L160.0,120.0" stroke="#FF9800" stroke-width="3.0" stroke-linecap="round" class="metro-line-a" data-line-id="a" />
<path d="M240.0,120.0 L326.0,120.0" stroke="#FF9800" stroke-width="3.0" stroke-linecap="round" class="metro-line-a" data-line-id="a" />
<path d="M326.0,120.0 L412.0,120.0" stroke="#FF9800" stroke-width="3.0" stroke-linecap="round" class="metro-line-a" data-line-id="a" />
<path d="M492.0,120.0 L542.0,120.0" stroke="#FF9800" stroke-width="3.0" stroke-linecap="round" class="metro-line-a" data-line-id="a" />
<path d="M672.0,120.0 L722.0,120.0" stroke="#FF9800" stroke-width="3.0" stroke-linecap="round" class="metro-line-a" data-line-id="a" />
<path d="M542.0,120.0 L592.0,120.0" stroke="#FF9800" stroke-width="3.0" stroke-linecap="round" class="metro-line-a" data-line-id="a" />
<path d="M160.0,120.0 L240.0,120.0" stroke="#FF9800" stroke-width="3.0" stroke-linecap="round" class="metro-line-a" data-line-id="a" />
<path d="M412.0,120.0 L422.0,120.0" stroke="#FF9800" stroke-width="3.0" stroke-linecap="round" class="metro-line-a" data-line-id="a" />
<path d="M422.0,120.0 L492.0,120.0" stroke="#FF9800" stroke-width="3.0" stroke-linecap="round" class="metro-line-a" data-line-id="a" />
<path d="M422.0,120.0 L430.0,120.0 Q464.0,120.0,464.0,154.0 L464.0,185.0 Q464.0,195.0,474.0,195.0 L610.0,195.0 Q620.0,195.0,620.0,185.0 L620.0,154.0 Q620.0,120.0,654.0,120.0 L672.0,120.0" stroke="#FF9800" stroke-width="3.0" fill="none" stroke-linecap="round" stroke-linejoin="round" class="metro-line-a" data-line-id="a" />
<path d="M592.0,120.0 L672.0,120.0" stroke="#FF9800" stroke-width="3.0" stroke-linecap="round" class="metro-line-a" data-line-id="a" />
<rect x="105.0" y="115.0" width="10.0" height="34.0" rx="5.0" ry="5.0" fill="#ffffff" stroke="#333333" stroke-width="1.5" class="nf-metro-station" data-station-id="hub" data-station-lines="a,b,c,d,e,f,g" data-station-label="Hub" data-section-id="input" data-section-name="Input" />
<rect x="321.0" y="115.0" width="10.0" height="10.0" rx="5.0" ry="5.0" fill="#ffffff" stroke="#333333" stroke-width="1.5" class="nf-metro-station" data-station-id="w1" data-station-lines="a" data-station-label="Tool 1" data-section-id="wide" data-section-name="Wide Fan-out" />
<rect x="321.0" y="155.0" width="10.0" height="10.0" rx="5.0" ry="5.0" fill="#ffffff" stroke="#333333" stroke-width="1.5" class="nf-metro-station" data-station-id="w2" data-station-lines="b" data-station-label="Tool 2" data-section-id="wide" data-section-name="Wide Fan-out" />
<rect x="321.0" y="195.0" width="10.0" height="10.0" rx="5.0" ry="5.0" fill="#ffffff" stroke="#333333" stroke-width="1.5" class="nf-metro-station" data-station-id="w3" data-station-lines="c" data-station-label="Tool 3" data-section-id="wide" data-section-name="Wide Fan-out" />
<rect x="321.0" y="235.0" width="10.0" height="10.0" rx="5.0" ry="5.0" fill="#ffffff" stroke="#333333" stroke-width="1.5" class="nf-metro-station" data-station-id="w4" data-station-lines="d" data-station-label="Tool 4" data-section-id="wide" data-section-name="Wide Fan-out" />
<rect x="321.0" y="275.0" width="10.0" height="10.0" rx="5.0" ry="5.0" fill="#ffffff" stroke="#333333" stroke-width="1.5" class="nf-metro-station" data-station-id="w5" data-station-lines="e" data-station-label="Tool 5" data-section-id="wide" data-section-name="Wide Fan-out" />
<rect x="321.0" y="315.0" width="10.0" height="10.0" rx="5.0" ry="5.0" fill="#ffffff" stroke="#333333" stroke-width="1.5" class="nf-metro-station" data-station-id="w6" data-station-lines="f" data-station-label="Tool 6" data-section-id="wide" data-section-name="Wide Fan-out" />
<rect x="321.0" y="355.0" width="10.0" height="10.0" rx="5.0" ry="5.0" fill="#ffffff" stroke="#333333" stroke-width="1.5" class="nf-metro-station" data-station-id="w7" data-station-lines="g" data-station-label="Tool 7" data-section-id="wide" data-section-name="Wide Fan-out" />
<rect x="537.0" y="115.0" width="10.0" height="10.0" rx="5.0" ry="5.0" fill="#ffffff" stroke="#333333" stroke-width="1.5" class="nf-metro-station" data-station-id="adj" data-station-lines="a" data-station-label="Collect" data-section-id="adjacent" data-section-name="Adjacent" />
<rect x="717.0" y="115.0" width="10.0" height="34.0" rx="5.0" ry="5.0" fill="#ffffff" stroke="#333333" stroke-width="1.5" class="nf-metro-station" data-station-id="out" data-station-lines="a,b,c,d,e,f,g" data-station-label="Output" data-section-id="far" data-section-name="Far Target" />
<text x="110.0" y="155.0" font-size="13.0" fill="#2b2b2b" stroke="#2b2b2b" stroke-width="3.0" stroke-linejoin="round" font-family="'Helvetica Neue', Helvetica, Arial, sans-serif" font-weight="bold" aria-hidden="true" text-anchor="middle" dominant-baseline="hanging">Hub</text>
<text x="110.0" y="155.0" font-size="13.0" fill="#e0e0e0" font-family="'Helvetica Neue', Helvetica, Arial, sans-serif" font-weight="bold" text-anchor="middle" dominant-baseline="hanging" data-station-id="hub" class="nf-metro-station-label">Hub</text>
<text x="326.0" y="106.0" font-size="13.0" fill="#2b2b2b" stroke="#2b2b2b" stroke-width="3.0" stroke-linejoin="round" font-family="'Helvetica Neue', Helvetica, Arial, sans-serif" font-weight="bold" aria-hidden="true" text-anchor="middle" dominant-baseline="auto">Tool 1</text>
<text x="326.0" y="106.0" font-size="13.0" fill="#e0e0e0" font-family="'Helvetica Neue', Helvetica, Arial, sans-serif" font-weight="bold" text-anchor="middle" dominant-baseline="auto" data-station-id="w1" class="nf-metro-station-label">Tool 1</text>
<text x="542.0" y="131.0" font-size="13.0" fill="#2b2b2b" stroke="#2b2b2b" stroke-width="3.0" stroke-linejoin="round" font-family="'Helvetica Neue', Helvetica, Arial, sans-serif" font-weight="bold" aria-hidden="true" text-anchor="middle" dominant-baseline="hanging">Collect</text>
<text x="542.0" y="131.0" font-size="13.0" fill="#e0e0e0" font-family="'Helvetica Neue', Helvetica, Arial, sans-serif" font-weight="bold" text-anchor="middle" dominant-baseline="hanging" data-station-id="adj" class="nf-metro-station-label">Collect</text>
<text x="722.0" y="155.0" font-size="13.0" fill="#2b2b2b" stroke="#2b2b2b" stroke-width="3.0" stroke-linejoin="round" font-family="'Helvetica Neue', Helvetica, Arial, sans-serif" font-weight="bold" aria-hidden="true" text-anchor="middle" dominant-baseline="hanging">Output</text>
<text x="722.0" y="155.0" font-size="13.0" fill="#e0e0e0" font-family="'Helvetica Neue', Helvetica, Arial, sans-serif" font-weight="bold" text-anchor="middle" dominant-baseline="hanging" data-station-id="out" class="nf-metro-station-label">Output</text>
<text x="326.0" y="170.4" font-size="13.0" fill="#2b2b2b" stroke="#2b2b2b" stroke-width="3.0" stroke-linejoin="round" font-family="'Helvetica Neue', Helvetica, Arial, sans-serif" font-weight="bold" aria-hidden="true" text-anchor="middle" dominant-baseline="hanging">Tool 2</text>
<text x="326.0" y="170.4" font-size="13.0" fill="#e0e0e0" font-family="'Helvetica Neue', Helvetica, Arial, sans-serif" font-weight="bold" text-anchor="middle" dominant-baseline="hanging" data-station-id="w2" class="nf-metro-station-label">Tool 2</text>
<text x="326.0" y="210.4" font-size="13.0" fill="#2b2b2b" stroke="#2b2b2b" stroke-width="3.0" stroke-linejoin="round" font-family="'Helvetica Neue', Helvetica, Arial, sans-serif" font-weight="bold" aria-hidden="true" text-anchor="middle" dominant-baseline="hanging">Tool 3</text>
<text x="326.0" y="210.4" font-size="13.0" fill="#e0e0e0" font-family="'Helvetica Neue', Helvetica, Arial, sans-serif" font-weight="bold" text-anchor="middle" dominant-baseline="hanging" data-station-id="w3" class="nf-metro-station-label">Tool 3</text>
<text x="326.0" y="250.4" font-size="13.0" fill="#2b2b2b" stroke="#2b2b2b" stroke-width="3.0" stroke-linejoin="round" font-family="'Helvetica Neue', Helvetica, Arial, sans-serif" font-weight="bold" aria-hidden="true" text-anchor="middle" dominant-baseline="hanging">Tool 4</text>
<text x="326.0" y="250.4" font-size="13.0" fill="#e0e0e0" font-family="'Helvetica Neue', Helvetica, Arial, sans-serif" font-weight="bold" text-anchor="middle" dominant-baseline="hanging" data-station-id="w4" class="nf-metro-station-label">Tool 4</text>
<text x="326.0" y="290.4" font-size="13.0" fill="#2b2b2b" stroke="#2b2b2b" stroke-width="3.0" stroke-linejoin="round" font-family="'Helvetica Neue', Helvetica, Arial, sans-serif" font-weight="bold" aria-hidden="true" text-anchor="middle" dominant-baseline="hanging">Tool 5</text>
<text x="326.0" y="290.4" font-size="13.0" fill="#e0e0e0" font-family="'Helvetica Neue', Helvetica, Arial, sans-serif" font-weight="bold" text-anchor="middle" dominant-baseline="hanging" data-station-id="w5" class="nf-metro-station-label">Tool 5</text>
<text x="326.0" y="330.4" font-size="13.0" fill="#2b2b2b" stroke="#2b2b2b" stroke-width="3.0" stroke-linejoin="round" font-family="'Helvetica Neue', Helvetica, Arial, sans-serif" font-weight="bold" aria-hidden="true" text-anchor="middle" dominant-baseline="hanging">Tool 6</text>
<text x="326.0" y="330.4" font-size="13.0" fill="#e0e0e0" font-family="'Helvetica Neue', Helvetica, Arial, sans-serif" font-weight="bold" text-anchor="middle" dominant-baseline="hanging" data-station-id="w6" class="nf-metro-station-label">Tool 6</text>
<text x="326.0" y="371.0" font-size="13.0" fill="#2b2b2b" stroke="#2b2b2b" stroke-width="3.0" stroke-linejoin="round" font-family="'Helvetica Neue', Helvetica, Arial, sans-serif" font-weight="bold" aria-hidden="true" text-anchor="middle" dominant-baseline="hanging">Tool 7</text>
<text x="326.0" y="371.0" font-size="13.0" fill="#e0e0e0" font-family="'Helvetica Neue', Helvetica, Arial, sans-serif" font-weight="bold" text-anchor="middle" dominant-baseline="hanging" data-station-id="w7" class="nf-metro-station-label">Tool 7</text>
<circle cx="260.0" cy="124.0" r="3.0" fill="rgba(255, 200, 50, 0.6)" />
<circle cx="290.0" cy="160.0" r="3.0" fill="rgba(255, 200, 50, 0.6)" />
<circle cx="258.0" cy="128.0" r="3.0" fill="rgba(255, 200, 50, 0.6)" />
<circle cx="288.0" cy="200.0" r="3.0" fill="rgba(255, 200, 50, 0.6)" />
<circle cx="256.0" cy="132.0" r="3.0" fill="rgba(255, 200, 50, 0.6)" />
<circle cx="286.0" cy="240.0" r="3.0" fill="rgba(255, 200, 50, 0.6)" />
<circle cx="254.0" cy="136.0" r="3.0" fill="rgba(255, 200, 50, 0.6)" />
<circle cx="284.0" cy="280.0" r="3.0" fill="rgba(255, 200, 50, 0.6)" />
<circle cx="252.0" cy="140.0" r="3.0" fill="rgba(255, 200, 50, 0.6)" />
<circle cx="282.0" cy="320.0" r="3.0" fill="rgba(255, 200, 50, 0.6)" />
<circle cx="250.0" cy="144.0" r="3.0" fill="rgba(255, 200, 50, 0.6)" />
<circle cx="280.0" cy="360.0" r="3.0" fill="rgba(255, 200, 50, 0.6)" />
<circle cx="362.0" cy="160.0" r="3.0" fill="rgba(255, 200, 50, 0.6)" />
<circle cx="392.0" cy="124.0" r="3.0" fill="rgba(255, 200, 50, 0.6)" />
<circle cx="364.0" cy="200.0" r="3.0" fill="rgba(255, 200, 50, 0.6)" />
<circle cx="394.0" cy="128.0" r="3.0" fill="rgba(255, 200, 50, 0.6)" />
<circle cx="366.0" cy="240.0" r="3.0" fill="rgba(255, 200, 50, 0.6)" />
<circle cx="396.0" cy="132.0" r="3.0" fill="rgba(255, 200, 50, 0.6)" />
<circle cx="368.0" cy="280.0" r="3.0" fill="rgba(255, 200, 50, 0.6)" />
<circle cx="398.0" cy="136.0" r="3.0" fill="rgba(255, 200, 50, 0.6)" />
<circle cx="370.0" cy="320.0" r="3.0" fill="rgba(255, 200, 50, 0.6)" />
<circle cx="400.0" cy="140.0" r="3.0" fill="rgba(255, 200, 50, 0.6)" />
<circle cx="372.0" cy="360.0" r="3.0" fill="rgba(255, 200, 50, 0.6)" />
<circle cx="402.0" cy="144.0" r="3.0" fill="rgba(255, 200, 50, 0.6)" />
<circle cx="464.0" cy="120.0" r="3.0" fill="rgba(255, 200, 50, 0.6)" />
<circle cx="464.0" cy="195.0" r="3.0" fill="rgba(255, 200, 50, 0.6)" />
<circle cx="620.0" cy="195.0" r="3.0" fill="rgba(255, 200, 50, 0.6)" />
<circle cx="620.0" cy="120.0" r="3.0" fill="rgba(255, 200, 50, 0.6)" />
<circle cx="460.0" cy="124.0" r="3.0" fill="rgba(255, 200, 50, 0.6)" />
<circle cx="460.0" cy="199.0" r="3.0" fill="rgba(255, 200, 50, 0.6)" />
<circle cx="624.0" cy="199.0" r="3.0" fill="rgba(255, 200, 50, 0.6)" />
<circle cx="624.0" cy="124.0" r="3.0" fill="rgba(255, 200, 50, 0.6)" />
<circle cx="456.0" cy="128.0" r="3.0" fill="rgba(255, 200, 50, 0.6)" />
<circle cx="456.0" cy="203.0" r="3.0" fill="rgba(255, 200, 50, 0.6)" />
<circle cx="628.0" cy="203.0" r="3.0" fill="rgba(255, 200, 50, 0.6)" />
<circle cx="628.0" cy="128.0" r="3.0" fill="rgba(255, 200, 50, 0.6)" />
<circle cx="452.0" cy="132.0" r="3.0" fill="rgba(255, 200, 50, 0.6)" />
<circle cx="452.0" cy="207.0" r="3.0" fill="rgba(255, 200, 50, 0.6)" />
<circle cx="632.0" cy="207.0" r="3.0" fill="rgba(255, 200, 50, 0.6)" />
<circle cx="632.0" cy="132.0" r="3.0" fill="rgba(255, 200, 50, 0.6)" />
<circle cx="448.0" cy="136.0" r="3.0" fill="rgba(255, 200, 50, 0.6)" />
<circle cx="448.0" cy="211.0" r="3.0" fill="rgba(255, 200, 50, 0.6)" />
<circle cx="636.0" cy="211.0" r="3.0" fill="rgba(255, 200, 50, 0.6)" />
<circle cx="636.0" cy="136.0" r="3.0" fill="rgba(255, 200, 50, 0.6)" />
<circle cx="444.0" cy="140.0" r="3.0" fill="rgba(255, 200, 50, 0.6)" />
<circle cx="444.0" cy="215.0" r="3.0" fill="rgba(255, 200, 50, 0.6)" />
<circle cx="640.0" cy="215.0" r="3.0" fill="rgba(255, 200, 50, 0.6)" />
<circle cx="640.0" cy="140.0" r="3.0" fill="rgba(255, 200, 50, 0.6)" />
<circle cx="440.0" cy="144.0" r="3.0" fill="rgba(255, 200, 50, 0.6)" />
<circle cx="440.0" cy="219.0" r="3.0" fill="rgba(255, 200, 50, 0.6)" />
<circle cx="644.0" cy="219.0" r="3.0" fill="rgba(255, 200, 50, 0.6)" />
<circle cx="644.0" cy="144.0" r="3.0" fill="rgba(255, 200, 50, 0.6)" />
<path d="M160.0,115.0 L165.0,120.0 L160.0,125.0 L155.0,120.0 Z" fill="rgba(80, 180, 255, 0.7)" stroke="none" />
<text x="160.0" y="112.0" font-size="7" fill="rgba(80, 180, 255, 0.7)" font-family="'Helvetica Neue', Helvetica, Arial, sans-serif" text-anchor="middle" dominant-baseline="auto">input__exit_right_0 (right)</text>
<path d="M412.0,115.0 L417.0,120.0 L412.0,125.0 L407.0,120.0 Z" fill="rgba(80, 180, 255, 0.7)" stroke="none" />
<text x="412.0" y="112.0" font-size="7" fill="rgba(80, 180, 255, 0.7)" font-family="'Helvetica Neue', Helvetica, Arial, sans-serif" text-anchor="middle" dominant-baseline="auto">wide__exit_right_1 (right)</text>
<path d="M592.0,115.0 L597.0,120.0 L592.0,125.0 L587.0,120.0 Z" fill="rgba(80, 180, 255, 0.7)" stroke="none" />
<text x="592.0" y="112.0" font-size="7" fill="rgba(80, 180, 255, 0.7)" font-family="'Helvetica Neue', Helvetica, Arial, sans-serif" text-anchor="middle" dominant-baseline="auto">adjacent__exit_right_2 (right)</text>
<path d="M240.0,115.0 L245.0,120.0 L240.0,125.0 L235.0,120.0 Z" fill="rgba(255, 80, 80, 0.7)" stroke="none" />
<text x="240.0" y="112.0" font-size="7" fill="rgba(255, 80, 80, 0.7)" font-family="'Helvetica Neue', Helvetica, Arial, sans-serif" text-anchor="middle" dominant-baseline="auto">wide__entry_left_3 (left)</text>
<path d="M492.0,115.0 L497.0,120.0 L492.0,125.0 L487.0,120.0 Z" fill="rgba(255, 80, 80, 0.7)" stroke="none" />
<text x="492.0" y="112.0" font-size="7" fill="rgba(255, 80, 80, 0.7)" font-family="'Helvetica Neue', Helvetica, Arial, sans-serif" text-anchor="middle" dominant-baseline="auto">adjacent__entry_left_4 (left)</text>
<path d="M672.0,115.0 L677.0,120.0 L672.0,125.0 L667.0,120.0 Z" fill="rgba(255, 80, 80, 0.7)" stroke="none" />
<text x="672.0" y="112.0" font-size="7" fill="rgba(255, 80, 80, 0.7)" font-family="'Helvetica Neue', Helvetica, Arial, sans-serif" text-anchor="middle" dominant-baseline="auto">far__entry_left_5 (left)</text>
<path d="M422.0,115.0 L427.0,120.0 L422.0,125.0 L417.0,120.0 Z" fill="rgba(255, 80, 80, 0.7)" stroke="none" />
<text x="422.0" y="112.0" font-size="7" fill="rgba(255, 80, 80, 0.7)" font-family="'Helvetica Neue', Helvetica, Arial, sans-serif" text-anchor="middle" dominant-baseline="auto">__junction_6 (?)</text>
<path d="M200.0,50.0 L200.0,430.0" stroke="rgba(255, 255, 0, 0.5)" stroke-width="1" stroke-dasharray="6,4" />
<text x="200.0" y="46.0" font-size="7" fill="rgba(255, 255, 0, 0.5)" font-family="'Helvetica Neue', Helvetica, Arial, sans-serif" text-anchor="middle">col 0|1</text>
<path d="M452.0,50.0 L452.0,430.0" stroke="rgba(255, 255, 0, 0.5)" stroke-width="1" stroke-dasharray="6,4" />
<text x="452.0" y="46.0" font-size="7" fill="rgba(255, 255, 0, 0.5)" font-family="'Helvetica Neue', Helvetica, Arial, sans-serif" text-anchor="middle">col 1|2</text>
<path d="M632.0,50.0 L632.0,430.0" stroke="rgba(255, 255, 0, 0.5)" stroke-width="1" stroke-dasharray="6,4" />
<text x="632.0" y="46.0" font-size="7" fill="rgba(255, 255, 0, 0.5)" font-family="'Helvetica Neue', Helvetica, Arial, sans-serif" text-anchor="middle">col 2|3</text>
<path d="M50.0,120.0 L782.0,120.0" stroke="rgba(80, 255, 180, 0.5)" stroke-width="0.75" stroke-dasharray="4,6" />
<text x="46.0" y="120.0" font-size="7" fill="rgba(80, 255, 180, 0.5)" font-family="'Helvetica Neue', Helvetica, Arial, sans-serif" text-anchor="end">row 0 grid</text>
<path d="M50.0,160.0 L782.0,160.0" stroke="rgba(80, 255, 180, 0.5)" stroke-width="0.75" stroke-dasharray="4,6" />
<path d="M50.0,200.0 L782.0,200.0" stroke="rgba(80, 255, 180, 0.5)" stroke-width="0.75" stroke-dasharray="4,6" />
<path d="M50.0,240.0 L782.0,240.0" stroke="rgba(80, 255, 180, 0.5)" stroke-width="0.75" stroke-dasharray="4,6" />
<path d="M50.0,280.0 L782.0,280.0" stroke="rgba(80, 255, 180, 0.5)" stroke-width="0.75" stroke-dasharray="4,6" />
<path d="M50.0,320.0 L782.0,320.0" stroke="rgba(80, 255, 180, 0.5)" stroke-width="0.75" stroke-dasharray="4,6" />
<path d="M50.0,360.0 L782.0,360.0" stroke="rgba(80, 255, 180, 0.5)" stroke-width="0.75" stroke-dasharray="4,6" />
<rect x="60.0" y="440.0" width="106.2" height="192.0" rx="6" ry="6" fill="rgba(0, 0, 0, 0.3)" class="nf-metro-legend-bg" />
<path d="M72.0,464.0 L96.0,464.0" stroke="#FF9800" stroke-width="3.0" stroke-linecap="round" />
<text x="108.0" y="464.0" font-size="14.0" fill="#e0e0e0" font-family="'Helvetica Neue', Helvetica, Arial, sans-serif" dy="0.3em" class="nf-metro-legend-text">Line A</text>
<path d="M72.0,488.0 L96.0,488.0" stroke="#4CAF50" stroke-width="3.0" stroke-linecap="round" />
<text x="108.0" y="488.0" font-size="14.0" fill="#e0e0e0" font-family="'Helvetica Neue', Helvetica, Arial, sans-serif" dy="0.3em" class="nf-metro-legend-text">Line B</text>
<path d="M72.0,512.0 L96.0,512.0" stroke="#2196F3" stroke-width="3.0" stroke-linecap="round" />
<text x="108.0" y="512.0" font-size="14.0" fill="#e0e0e0" font-family="'Helvetica Neue', Helvetica, Arial, sans-serif" dy="0.3em" class="nf-metro-legend-text">Line C</text>
<path d="M72.0,536.0 L96.0,536.0" stroke="#E91E63" stroke-width="3.0" stroke-linecap="round" />
<text x="108.0" y="536.0" font-size="14.0" fill="#e0e0e0" font-family="'Helvetica Neue', Helvetica, Arial, sans-serif" dy="0.3em" class="nf-metro-legend-text">Line D</text>
<path d="M72.0,560.0 L96.0,560.0" stroke="#9C27B0" stroke-width="3.0" stroke-linecap="round" />
<text x="108.0" y="560.0" font-size="14.0" fill="#e0e0e0" font-family="'Helvetica Neue', Helvetica, Arial, sans-serif" dy="0.3em" class="nf-metro-legend-text">Line E</text>
<path d="M72.0,584.0 L96.0,584.0" stroke="#00BCD4" stroke-width="3.0" stroke-linecap="round" />
<text x="108.0" y="584.0" font-size="14.0" fill="#e0e0e0" font-family="'Helvetica Neue', Helvetica, Arial, sans-serif" dy="0.3em" class="nf-metro-legend-text">Line F</text>
<path d="M72.0,608.0 L96.0,608.0" stroke="#CDDC39" stroke-width="3.0" stroke-linecap="round" />
<text x="108.0" y="608.0" font-size="14.0" fill="#e0e0e0" font-family="'Helvetica Neue', Helvetica, Arial, sans-serif" dy="0.3em" class="nf-metro-legend-text">Line G</text>
<text x="802.0" y="648.0" font-size="8" fill="rgba(150, 150, 150, 0.6)" font-family="'Helvetica Neue', Helvetica, Arial, sans-serif" text-anchor="end">created with nf-metro v0.7.2+dev</text>
</svg>