<?xml version="1.0" encoding="UTF-8"?>
<svg xmlns="http://www.w3.org/2000/svg" xmlns:xlink="http://www.w3.org/1999/xlink"
     width="1203" height="401" viewBox="0 0 1203 401">
<defs>
</defs>
<rect x="0" y="0" width="1203" height="401" fill="#2b2b2b" />
<text x="60.0" y="30.0" font-size="24.0" fill="#ffffff" font-family="'Helvetica Neue', Helvetica, Arial, sans-serif" font-weight="bold" class="nf-metro-title">Preprocess / Alignment / Variant Calling Pipeline</text>
<rect x="60.0" y="70.0" width="136.0" height="140.0" rx="8" ry="8" fill="#373737" stroke="#595959" stroke-width="1.0" class="nf-metro-section-box" data-section-id="preprocess" data-section-lines="main,preprocess_reporting" />
<circle cx="71.0" cy="55.0" r="11" fill="#333333" class="nf-metro-section-num-circle" data-section-id="preprocess" />
<text x="71.0" y="55.0" font-size="12" fill="#ffffff" font-family="'Helvetica Neue', Helvetica, Arial, sans-serif" font-weight="bold" text-anchor="middle" dy="0.3em" data-section-id="preprocess">1</text>
<text x="87.0" y="55.0" font-size="16.0" fill="#aaaaaa" font-family="'Helvetica Neue', Helvetica, Arial, sans-serif" font-weight="bold" dy="0.3em" class="nf-metro-section-label" data-section-id="preprocess">Preprocess</text>
<rect x="246.0" y="70.0" width="391.5" height="180.0" rx="8" ry="8" fill="#373737" stroke="#595959" stroke-width="1.0" class="nf-metro-section-box" data-section-id="alignment" data-section-lines="main" />
<circle cx="257.0" cy="55.0" r="11" fill="#333333" class="nf-metro-section-num-circle" data-section-id="alignment" />
<text x="257.0" y="55.0" font-size="12" fill="#ffffff" font-family="'Helvetica Neue', Helvetica, Arial, sans-serif" font-weight="bold" text-anchor="middle" dy="0.3em" data-section-id="alignment">2</text>
<text x="273.0" y="55.0" font-size="16.0" fill="#aaaaaa" font-family="'Helvetica Neue', Helvetica, Arial, sans-serif" font-weight="bold" dy="0.3em" class="nf-metro-section-label" data-section-id="alignment">Alignment</text>
<rect x="669.5" y="70.0" width="294.0" height="180.0" rx="8" ry="8" fill="#373737" stroke="#595959" stroke-width="1.0" class="nf-metro-section-box" data-section-id="variant_calling" data-section-lines="main" />
<circle cx="680.5" cy="55.0" r="11" fill="#333333" class="nf-metro-section-num-circle" data-section-id="variant_calling" />
<text x="680.5" y="55.0" font-size="12" fill="#ffffff" font-family="'Helvetica Neue', Helvetica, Arial, sans-serif" font-weight="bold" text-anchor="middle" dy="0.3em" data-section-id="variant_calling">3</text>
<text x="696.5" y="55.0" font-size="16.0" fill="#aaaaaa" font-family="'Helvetica Neue', Helvetica, Arial, sans-serif" font-weight="bold" dy="0.3em" class="nf-metro-section-label" data-section-id="variant_calling">Variant Calling</text>
<rect x="1043.5" y="70.0" width="100.0" height="100.0" rx="8" ry="8" fill="#373737" stroke="#595959" stroke-width="1.0" class="nf-metro-section-box" data-section-id="reporting" data-section-lines="main,preprocess_reporting" />
<circle cx="1054.5" cy="55.0" r="11" fill="#333333" class="nf-metro-section-num-circle" data-section-id="reporting" />
<text x="1054.5" y="55.0" font-size="12" fill="#ffffff" font-family="'Helvetica Neue', Helvetica, Arial, sans-serif" font-weight="bold" text-anchor="middle" dy="0.3em" data-section-id="reporting">4</text>
<text x="1070.5" y="55.0" font-size="16.0" fill="#aaaaaa" font-family="'Helvetica Neue', Helvetica, Arial, sans-serif" font-weight="bold" dy="0.3em" class="nf-metro-section-label" data-section-id="reporting">Reporting</text>
<path d="M128.0,120.0 L196.0,120.0" stroke="#0570b0" stroke-width="3.0" stroke-linecap="round" class="metro-line-preprocess_reporting" data-line-id="preprocess_reporting" />
<path d="M1043.5,123.0 L1093.5,123.0" stroke="#0570b0" stroke-width="3.0" stroke-linecap="round" class="metro-line-preprocess_reporting" data-line-id="preprocess_reporting" />
<path d="M128.0,160.0 L140.25,160.0 Q150.25,160.0,156.25,152.0 L174.25,128.0 Q180.25,120.0,190.25,120.0 L196.0,120.0" stroke="#0570b0" stroke-width="3.0" fill="none" stroke-linecap="round" stroke-linejoin="round" class="metro-line-preprocess_reporting" data-line-id="preprocess_reporting" />
<path d="M196.0,120.0 L206.0,120.0" stroke="#0570b0" stroke-width="3.0" stroke-linecap="round" class="metro-line-preprocess_reporting" data-line-id="preprocess_reporting" />
<path d="M206.0,120.0 L206.0,120.0 Q216.0,120.0,216.0,130.0 L216.0,265.0 Q216.0,275.0,226.0,275.0 L1006.5,275.0 Q1016.5,275.0,1016.5,265.0 L1016.5,133.0 Q1016.5,123.0,1026.5,123.0 L1043.5,123.0" stroke="#0570b0" stroke-width="3.0" fill="none" stroke-linecap="round" stroke-linejoin="round" class="metro-line-preprocess_reporting" data-line-id="preprocess_reporting" />
<path d="M296.0,120.0 L320.5,120.0 Q330.5,120.0,334.0112344158839,129.36329177569044 L356.9887655841161,190.63670822430956 Q360.5,200.0,370.5,200.0 L392.0,200.0" stroke="#2db572" stroke-width="3.0" fill="none" stroke-linecap="round" stroke-linejoin="round" class="metro-line-main" data-line-id="main" />
<path d="M392.0,200.0 L397.0,200.0 Q407.0,200.0,413.0,192.0 L431.0,168.0 Q437.0,160.0,447.0,160.0 L452.0,160.0" stroke="#2db572" stroke-width="3.0" fill="none" stroke-linecap="round" stroke-linejoin="round" class="metro-line-main" data-line-id="main" />
<path d="M452.0,160.0 L570.5,160.0" stroke="#2db572" stroke-width="3.0" stroke-linecap="round" class="metro-line-main" data-line-id="main" />
<path d="M745.5,120.0 L793.5,120.0 Q803.5,120.0,809.5,128.0 L827.5,152.0 Q833.5,160.0,843.5,160.0 L896.5,160.0" stroke="#2db572" stroke-width="3.0" fill="none" stroke-linecap="round" stroke-linejoin="round" class="metro-line-main" data-line-id="main" />
<path d="M768.0,200.0 L793.5,200.0 Q803.5,200.0,809.5,192.0 L827.5,168.0 Q833.5,160.0,843.5,160.0 L896.5,160.0" stroke="#2db572" stroke-width="3.0" fill="none" stroke-linecap="round" stroke-linejoin="round" class="metro-line-main" data-line-id="main" />
<path d="M896.5,160.0 L908.5,160.0 Q918.5,160.0,924.5,152.0 L942.5,128.0 Q948.5,120.0,958.5,120.0 L963.5,120.0" stroke="#2db572" stroke-width="3.0" fill="none" stroke-linecap="round" stroke-linejoin="round" class="metro-line-main" data-line-id="main" />
<path d="M1043.5,120.0 L1093.5,120.0" stroke="#2db572" stroke-width="3.0" stroke-linecap="round" class="metro-line-main" data-line-id="main" />
<path d="M128.0,163.0 L141.75,163.0 Q151.75,163.0,157.75,155.0 L175.75,131.0 Q181.75,123.0,191.75,123.0 L196.0,123.0" stroke="#2db572" stroke-width="3.0" fill="none" stroke-linecap="round" stroke-linejoin="round" class="metro-line-main" data-line-id="main" />
<path d="M246.0,200.0 L392.0,200.0" stroke="#2db572" stroke-width="3.0" stroke-linecap="round" class="metro-line-main" data-line-id="main" />
<path d="M452.0,160.0 L500.5,160.0 Q510.5,160.0,516.5,152.0 L534.5,128.0 Q540.5,120.0,550.5,120.0 L637.5,120.0" stroke="#2db572" stroke-width="3.0" fill="none" stroke-linecap="round" stroke-linejoin="round" class="metro-line-main" data-line-id="main" />
<path d="M687.5,120.0 L745.5,120.0" stroke="#2db572" stroke-width="3.0" stroke-linecap="round" class="metro-line-main" data-line-id="main" />
<path d="M687.5,120.0 L692.5,120.0 Q702.5,120.0,706.0112344158839,129.36329177569044 L728.9887655841161,190.63670822430956 Q732.5,200.0,742.5,200.0 L768.0,200.0" stroke="#2db572" stroke-width="3.0" fill="none" stroke-linecap="round" stroke-linejoin="round" class="metro-line-main" data-line-id="main" />
<path d="M570.5,160.0 L582.5,160.0 Q592.5,160.0,598.5,152.0 L616.5,128.0 Q622.5,120.0,632.5,120.0 L637.5,120.0" stroke="#2db572" stroke-width="3.0" fill="none" stroke-linecap="round" stroke-linejoin="round" class="metro-line-main" data-line-id="main" />
<path d="M963.5,120.0 L1043.5,120.0" stroke="#2db572" stroke-width="3.0" stroke-linecap="round" class="metro-line-main" data-line-id="main" />
<path d="M196.0,123.0 L206.0,123.0" stroke="#2db572" stroke-width="3.0" stroke-linecap="round" class="metro-line-main" data-line-id="main" />
<path d="M206.0,123.0 L206.0,123.0 Q219.0,123.0,219.0,136.0 L219.0,190.0 Q219.0,200.0,229.0,200.0 L246.0,200.0" stroke="#2db572" stroke-width="3.0" fill="none" stroke-linecap="round" stroke-linejoin="round" class="metro-line-main" data-line-id="main" />
<path d="M637.5,120.0 L687.5,120.0" stroke="#2db572" stroke-width="3.0" stroke-linecap="round" class="metro-line-main" data-line-id="main" />
<rect x="123.0" y="115.0" width="10.0" height="10.0" rx="5.0" ry="5.0" fill="#ffffff" stroke="#333333" stroke-width="1.5" class="nf-metro-station" data-station-id="fastqc" data-station-lines="preprocess_reporting" data-station-label="Fastqc" data-section-id="preprocess" data-section-name="Preprocess" />
<rect x="123.0" y="155.0" width="10.0" height="13.0" rx="5.0" ry="5.0" fill="#ffffff" stroke="#333333" stroke-width="1.5" class="nf-metro-station" data-station-id="fastp" data-station-lines="main,preprocess_reporting" data-station-label="Fastp" data-section-id="preprocess" data-section-name="Preprocess" />
<rect x="291.0" y="115.0" width="10.0" height="10.0" rx="5.0" ry="5.0" fill="#ffffff" stroke="#333333" stroke-width="1.5" class="nf-metro-station" data-station-id="bwa_index" data-station-lines="main" data-station-label="Bwa Index" data-section-id="alignment" data-section-name="Alignment" />
<rect x="387.0" y="195.0" width="10.0" height="10.0" rx="5.0" ry="5.0" fill="#ffffff" stroke="#333333" stroke-width="1.5" class="nf-metro-station" data-station-id="bwa_mem" data-station-lines="main" data-station-label="Bwa Mem" data-section-id="alignment" data-section-name="Alignment" />
<rect x="447.0" y="155.0" width="10.0" height="10.0" rx="5.0" ry="5.0" fill="#ffffff" stroke="#333333" stroke-width="1.5" class="nf-metro-station" data-station-id="samtools_sort" data-station-lines="main" data-station-label="Samtools Sort" data-section-id="alignment" data-section-name="Alignment" />
<rect x="565.5" y="155.0" width="10.0" height="10.0" rx="5.0" ry="5.0" fill="#ffffff" stroke="#333333" stroke-width="1.5" class="nf-metro-station" data-station-id="samtools_index" data-station-lines="main" data-station-label="Samtools Index" data-section-id="alignment" data-section-name="Alignment" />
<rect x="740.5" y="115.0" width="10.0" height="10.0" rx="5.0" ry="5.0" fill="#ffffff" stroke="#333333" stroke-width="1.5" class="nf-metro-station" data-station-id="gatk_haplotypecaller" data-station-lines="main" data-station-label="Gatk Haplotypeca" data-section-id="variant_calling" data-section-name="Variant Calling" />
<rect x="763.0" y="195.0" width="10.0" height="10.0" rx="5.0" ry="5.0" fill="#ffffff" stroke="#333333" stroke-width="1.5" class="nf-metro-station" data-station-id="deepvariant" data-station-lines="main" data-station-label="Deepvariant" data-section-id="variant_calling" data-section-name="Variant Calling" />
<rect x="891.5" y="155.0" width="10.0" height="10.0" rx="5.0" ry="5.0" fill="#ffffff" stroke="#333333" stroke-width="1.5" class="nf-metro-station" data-station-id="bcftools_stats" data-station-lines="main" data-station-label="Bcftools Stats" data-section-id="variant_calling" data-section-name="Variant Calling" />
<rect x="1088.5" y="115.0" width="10.0" height="13.0" rx="5.0" ry="5.0" fill="#ffffff" stroke="#333333" stroke-width="1.5" class="nf-metro-station" data-station-id="multiqc" data-station-lines="main,preprocess_reporting" data-station-label="Multiqc" data-section-id="reporting" data-section-name="Reporting" />
<text x="296.0" y="106.0" font-size="13.0" fill="#e0e0e0" font-family="'Helvetica Neue', Helvetica, Arial, sans-serif" font-weight="bold" text-anchor="middle" dominant-baseline="auto" data-station-id="bwa_index" class="nf-metro-station-label">Bwa Index</text>
<text x="745.5" y="106.0" font-size="13.0" fill="#e0e0e0" font-family="'Helvetica Neue', Helvetica, Arial, sans-serif" font-weight="bold" text-anchor="middle" dominant-baseline="auto" data-station-id="gatk_haplotypecaller" class="nf-metro-station-label">Gatk Haplotypeca</text>
<text x="768.0" y="211.0" font-size="13.0" fill="#e0e0e0" font-family="'Helvetica Neue', Helvetica, Arial, sans-serif" font-weight="bold" text-anchor="middle" dominant-baseline="hanging" data-station-id="deepvariant" class="nf-metro-station-label">Deepvariant</text>
<text x="128.0" y="106.0" font-size="13.0" fill="#e0e0e0" font-family="'Helvetica Neue', Helvetica, Arial, sans-serif" font-weight="bold" text-anchor="middle" dominant-baseline="auto" data-station-id="fastqc" class="nf-metro-station-label">Fastqc</text>
<text x="1093.5" y="134.0" font-size="13.0" fill="#e0e0e0" font-family="'Helvetica Neue', Helvetica, Arial, sans-serif" font-weight="bold" text-anchor="middle" dominant-baseline="hanging" data-station-id="multiqc" class="nf-metro-station-label">Multiqc</text>
<text x="128.0" y="174.0" font-size="13.0" fill="#e0e0e0" font-family="'Helvetica Neue', Helvetica, Arial, sans-serif" font-weight="bold" text-anchor="middle" dominant-baseline="hanging" data-station-id="fastp" class="nf-metro-station-label">Fastp</text>
<text x="896.5" y="171.0" font-size="13.0" fill="#e0e0e0" font-family="'Helvetica Neue', Helvetica, Arial, sans-serif" font-weight="bold" text-anchor="middle" dominant-baseline="hanging" data-station-id="bcftools_stats" class="nf-metro-station-label">Bcftools Stats</text>
<text x="392.0" y="211.0" font-size="13.0" fill="#e0e0e0" font-family="'Helvetica Neue', Helvetica, Arial, sans-serif" font-weight="bold" text-anchor="middle" dominant-baseline="hanging" data-station-id="bwa_mem" class="nf-metro-station-label">Bwa Mem</text>
<text x="452.0" y="146.0" font-size="13.0" fill="#e0e0e0" font-family="'Helvetica Neue', Helvetica, Arial, sans-serif" font-weight="bold" text-anchor="middle" dominant-baseline="auto" data-station-id="samtools_sort" class="nf-metro-station-label">Samtools Sort</text>
<text x="570.5" y="171.0" font-size="13.0" fill="#e0e0e0" font-family="'Helvetica Neue', Helvetica, Arial, sans-serif" font-weight="bold" text-anchor="middle" dominant-baseline="hanging" data-station-id="samtools_index" class="nf-metro-station-label">Samtools Index</text>
<rect x="60.0" y="305.0" width="229.40000000000003" height="72.0" rx="6" ry="6" fill="rgba(0, 0, 0, 0.3)" />
<path d="M72.0,329.0 L96.0,329.0" stroke="#2db572" stroke-width="3.0" stroke-linecap="round" />
<text x="108.0" y="329.0" font-size="14.0" fill="#e0e0e0" font-family="'Helvetica Neue', Helvetica, Arial, sans-serif" dy="0.3em">Main</text>
<path d="M72.0,353.0 L96.0,353.0" stroke="#0570b0" stroke-width="3.0" stroke-linecap="round" />
<text x="108.0" y="353.0" font-size="14.0" fill="#e0e0e0" font-family="'Helvetica Neue', Helvetica, Arial, sans-serif" dy="0.3em">Preprocess - Reporting</text>
<text x="1173.0" y="393.0" font-size="8" fill="rgba(150, 150, 150, 0.6)" font-family="'Helvetica Neue', Helvetica, Arial, sans-serif" text-anchor="end">created with nf-metro v0.7.0+dev</text>
</svg>