<?xml version="1.0" encoding="UTF-8"?>
<svg xmlns="http://www.w3.org/2000/svg" xmlns:xlink="http://www.w3.org/1999/xlink"
     width="977" height="615" viewBox="0 0 977 615">
<defs>
</defs>
<rect x="0" y="0" width="977" height="615" fill="#2b2b2b" />
<text x="60.0" y="30.0" font-size="24.0" fill="#ffffff" font-family="'Helvetica Neue', Helvetica, Arial, sans-serif" font-weight="bold" class="nf-metro-title">nf-core/variantprioritization</text>
<rect x="22.0" y="70.0" width="309.5" height="100.0" rx="8" ry="8" fill="#373737" stroke="#595959" stroke-width="1.0" class="nf-metro-section-box" data-section-id="preprocessing" data-section-lines="germline,somatic" />
<circle cx="33.0" cy="55.0" r="11" fill="#333333" class="nf-metro-section-num-circle" data-section-id="preprocessing" />
<text x="33.0" y="55.0" font-size="12" fill="#ffffff" font-family="'Helvetica Neue', Helvetica, Arial, sans-serif" font-weight="bold" text-anchor="middle" dy="0.3em" data-section-id="preprocessing">1</text>
<text x="49.0" y="55.0" font-size="16.0" fill="#aaaaaa" font-family="'Helvetica Neue', Helvetica, Arial, sans-serif" font-weight="bold" dy="0.3em" class="nf-metro-section-label" data-section-id="preprocessing">Pre-processing of vcf files</text>
<rect x="381.5" y="70.0" width="318.0" height="180.0" rx="8" ry="8" fill="#373737" stroke="#595959" stroke-width="1.0" class="nf-metro-section-box" data-section-id="format_files" data-section-lines="somatic" />
<circle cx="392.5" cy="55.0" r="11" fill="#333333" class="nf-metro-section-num-circle" data-section-id="format_files" />
<text x="392.5" y="55.0" font-size="12" fill="#ffffff" font-family="'Helvetica Neue', Helvetica, Arial, sans-serif" font-weight="bold" text-anchor="middle" dy="0.3em" data-section-id="format_files">3</text>
<text x="408.5" y="55.0" font-size="16.0" fill="#aaaaaa" font-family="'Helvetica Neue', Helvetica, Arial, sans-serif" font-weight="bold" dy="0.3em" class="nf-metro-section-label" data-section-id="format_files">Prepare files for PCGR</text>
<rect x="60.0" y="300.0" width="136.0" height="140.0" rx="8" ry="8" fill="#373737" stroke="#595959" stroke-width="1.0" class="nf-metro-section-box" data-section-id="get_reference" data-section-lines="reference" />
<circle cx="71.0" cy="285.0" r="11" fill="#333333" class="nf-metro-section-num-circle" data-section-id="get_reference" />
<text x="71.0" y="285.0" font-size="12" fill="#ffffff" font-family="'Helvetica Neue', Helvetica, Arial, sans-serif" font-weight="bold" text-anchor="middle" dy="0.3em" data-section-id="get_reference">2</text>
<text x="87.0" y="285.0" font-size="16.0" fill="#aaaaaa" font-family="'Helvetica Neue', Helvetica, Arial, sans-serif" font-weight="bold" dy="0.3em" class="nf-metro-section-label" data-section-id="get_reference">Reference</text>
<rect x="749.5" y="70.0" width="168.0" height="100.0" rx="8" ry="8" fill="#373737" stroke="#595959" stroke-width="1.0" class="nf-metro-section-box" data-section-id="run_pcgr" data-section-lines="reference,somatic" />
<circle cx="760.5" cy="55.0" r="11" fill="#333333" class="nf-metro-section-num-circle" data-section-id="run_pcgr" />
<text x="760.5" y="55.0" font-size="12" fill="#ffffff" font-family="'Helvetica Neue', Helvetica, Arial, sans-serif" font-weight="bold" text-anchor="middle" dy="0.3em" data-section-id="run_pcgr">5</text>
<text x="776.5" y="55.0" font-size="16.0" fill="#aaaaaa" font-family="'Helvetica Neue', Helvetica, Arial, sans-serif" font-weight="bold" dy="0.3em" class="nf-metro-section-label" data-section-id="run_pcgr">PCGR</text>
<rect x="381.5" y="300.0" width="168.0" height="100.0" rx="8" ry="8" fill="#373737" stroke="#595959" stroke-width="1.0" class="nf-metro-section-box" data-section-id="run_cpsr" data-section-lines="germline,reference" />
<circle cx="392.5" cy="285.0" r="11" fill="#333333" class="nf-metro-section-num-circle" data-section-id="run_cpsr" />
<text x="392.5" y="285.0" font-size="12" fill="#ffffff" font-family="'Helvetica Neue', Helvetica, Arial, sans-serif" font-weight="bold" text-anchor="middle" dy="0.3em" data-section-id="run_cpsr">4</text>
<text x="408.5" y="285.0" font-size="16.0" fill="#aaaaaa" font-family="'Helvetica Neue', Helvetica, Arial, sans-serif" font-weight="bold" dy="0.3em" class="nf-metro-section-label" data-section-id="run_cpsr">CPSR</text>
<path d="M128.0,356.0 L196.0,356.0" stroke="#2196F3" stroke-width="3.0" stroke-linecap="round" class="metro-line-reference" data-line-id="reference" />
<path d="M381.5,356.0 L431.5,356.0" stroke="#2196F3" stroke-width="3.0" stroke-linecap="round" class="metro-line-reference" data-line-id="reference" />
<path d="M128.0,390.0 L141.0,390.0 Q151.0,390.0,157.61621637086847,382.5016214463491 L174.38378362913153,363.4983785536509 Q181.0,356.0,191.0,356.0 L196.0,356.0" stroke="#2196F3" stroke-width="3.0" fill="none" stroke-linecap="round" stroke-linejoin="round" class="metro-line-reference" data-line-id="reference" />
<path d="M749.5,123.0 L799.5,123.0" stroke="#2196F3" stroke-width="3.0" stroke-linecap="round" class="metro-line-reference" data-line-id="reference" />
<path d="M196.0,356.0 L206.0,356.0" stroke="#2196F3" stroke-width="3.0" stroke-linecap="round" class="metro-line-reference" data-line-id="reference" />
<path d="M206.0,356.0 L381.5,356.0" stroke="#2196F3" stroke-width="3.0" stroke-linecap="round" class="metro-line-reference" data-line-id="reference" />
<path d="M206.0,356.0 L206.0,356.0 Q216.0,356.0,216.0,366.0 L216.0,455.0 Q216.0,465.0,226.0,465.0 L727.5,465.0 Q737.5,465.0,737.5,455.0 L737.5,133.0 Q737.5,123.0,747.5,123.0 L749.5,123.0" stroke="#2196F3" stroke-width="3.0" fill="none" stroke-linecap="round" stroke-linejoin="round" class="metro-line-reference" data-line-id="reference" />
<path d="M80.0,123.0 L140.0,123.0" stroke="#9923A0" stroke-width="3.0" stroke-linecap="round" class="metro-line-germline" data-line-id="germline" />
<path d="M140.0,123.0 L200.0,123.0" stroke="#9923A0" stroke-width="3.0" stroke-linecap="round" class="metro-line-germline" data-line-id="germline" />
<path d="M200.0,123.0 L260.0,123.0" stroke="#9923A0" stroke-width="3.0" stroke-linecap="round" class="metro-line-germline" data-line-id="germline" />
<path d="M431.5,353.0 L491.5,353.0" stroke="#9923A0" stroke-width="3.0" stroke-linecap="round" class="metro-line-germline" data-line-id="germline" />
<path d="M260.0,123.0 L331.5,123.0" stroke="#9923A0" stroke-width="3.0" stroke-linecap="round" class="metro-line-germline" data-line-id="germline" />
<path d="M381.5,353.0 L431.5,353.0" stroke="#9923A0" stroke-width="3.0" stroke-linecap="round" class="metro-line-germline" data-line-id="germline" />
<path d="M331.5,123.0 L341.5,123.0" stroke="#9923A0" stroke-width="3.0" stroke-linecap="round" class="metro-line-germline" data-line-id="germline" />
<path d="M341.5,123.0 L344.5,123.0 Q354.5,123.0,354.5,133.0 L354.5,343.0 Q354.5,353.0,364.5,353.0 L381.5,353.0" stroke="#9923A0" stroke-width="3.0" fill="none" stroke-linecap="round" stroke-linejoin="round" class="metro-line-germline" data-line-id="germline" />
<path d="M80.0,120.0 L140.0,120.0" stroke="#4CAF50" stroke-width="3.0" stroke-linecap="round" class="metro-line-somatic" data-line-id="somatic" />
<path d="M140.0,120.0 L200.0,120.0" stroke="#4CAF50" stroke-width="3.0" stroke-linecap="round" class="metro-line-somatic" data-line-id="somatic" />
<path d="M200.0,120.0 L260.0,120.0" stroke="#4CAF50" stroke-width="3.0" stroke-linecap="round" class="metro-line-somatic" data-line-id="somatic" />
<path d="M439.5,120.0 L553.5,120.0" stroke="#4CAF50" stroke-width="3.0" stroke-linecap="round" class="metro-line-somatic" data-line-id="somatic" />
<path d="M439.5,120.0 L483.5,120.0 Q493.5,120.0,499.5,128.0 L517.5,152.0 Q523.5,160.0,533.5,160.0 L613.5,160.0" stroke="#4CAF50" stroke-width="3.0" fill="none" stroke-linecap="round" stroke-linejoin="round" class="metro-line-somatic" data-line-id="somatic" />
<path d="M553.5,120.0 L563.5,120.0 Q573.5,120.0,579.5,128.0 L597.5,152.0 Q603.5,160.0,613.5,160.0 L613.5,160.0" stroke="#4CAF50" stroke-width="3.0" fill="none" stroke-linecap="round" stroke-linejoin="round" class="metro-line-somatic" data-line-id="somatic" />
<path d="M439.5,200.0 L553.5,200.0" stroke="#4CAF50" stroke-width="3.0" stroke-linecap="round" class="metro-line-somatic" data-line-id="somatic" />
<path d="M799.5,120.0 L859.5,120.0" stroke="#4CAF50" stroke-width="3.0" stroke-linecap="round" class="metro-line-somatic" data-line-id="somatic" />
<path d="M260.0,120.0 L331.5,120.0" stroke="#4CAF50" stroke-width="3.0" stroke-linecap="round" class="metro-line-somatic" data-line-id="somatic" />
<path d="M381.5,120.0 L439.5,120.0" stroke="#4CAF50" stroke-width="3.0" stroke-linecap="round" class="metro-line-somatic" data-line-id="somatic" />
<path d="M553.5,200.0 L644.5,200.0 Q654.5,200.0,658.0112344158839,190.63670822430956 L680.9887655841161,129.36329177569044 Q684.5,120.0,694.5,120.0 L699.5,120.0" stroke="#4CAF50" stroke-width="3.0" fill="none" stroke-linecap="round" stroke-linejoin="round" class="metro-line-somatic" data-line-id="somatic" />
<path d="M749.5,120.0 L799.5,120.0" stroke="#4CAF50" stroke-width="3.0" stroke-linecap="round" class="metro-line-somatic" data-line-id="somatic" />
<path d="M613.5,160.0 L644.5,160.0 Q654.5,160.0,660.5,152.0 L678.5,128.0 Q684.5,120.0,694.5,120.0 L699.5,120.0" stroke="#4CAF50" stroke-width="3.0" fill="none" stroke-linecap="round" stroke-linejoin="round" class="metro-line-somatic" data-line-id="somatic" />
<path d="M331.5,120.0 L341.5,120.0" stroke="#4CAF50" stroke-width="3.0" stroke-linecap="round" class="metro-line-somatic" data-line-id="somatic" />
<path d="M341.5,120.0 L381.5,120.0" stroke="#4CAF50" stroke-width="3.0" stroke-linecap="round" class="metro-line-somatic" data-line-id="somatic" />
<path d="M699.5,120.0 L749.5,120.0" stroke="#4CAF50" stroke-width="3.0" stroke-linecap="round" class="metro-line-somatic" data-line-id="somatic" />
<rect x="75.0" y="115.0" width="10.0" height="13.0" fill="#ffffff" stroke="#333333" stroke-width="1.5" class="nf-metro-station" data-station-id="vcf_in" data-station-lines="germline,somatic" data-station-label="vcf_in" data-section-id="preprocessing" data-section-name="Pre-processing of vcf files" />
<g data-station-id="vcf_in">
<path d="M43.0,105.5 L61.0,105.5 L69.0,113.5 L69.0,135.5 Q69.0,137.5,67.0,137.5 L43.0,137.5 Q41.0,137.5,41.0,135.5 L41.0,107.5 Q41.0,105.5,43.0,105.5 Z" fill="#ffffff" stroke="#333333" stroke-width="1.5" stroke-linejoin="round" />
<path d="M61.0,105.5 L61.0,113.5 L69.0,113.5 Z" fill="#333333" opacity="0.15" stroke="none" />
<path d="M61.0,105.5 L61.0,113.5 L69.0,113.5" fill="none" stroke="#333333" stroke-width="0.8999999999999999" />
<text x="55.0" y="122.7" font-size="7.5" fill="#000000" font-family="'Helvetica Neue', Helvetica, Arial, sans-serif" font-weight="bold" text-anchor="middle" dy="0.3em">VCF</text>
</g>
<rect x="135.0" y="115.0" width="10.0" height="13.0" rx="5.0" ry="5.0" fill="#ffffff" stroke="#333333" stroke-width="1.5" class="nf-metro-station" data-station-id="tabix" data-station-lines="germline,somatic" data-station-label="tabix" data-section-id="preprocessing" data-section-name="Pre-processing of vcf files" />
<rect x="195.0" y="115.0" width="10.0" height="13.0" rx="5.0" ry="5.0" fill="#ffffff" stroke="#333333" stroke-width="1.5" class="nf-metro-station" data-station-id="bcftools_norm" data-station-lines="germline,somatic" data-station-label="bcftools/norm" data-section-id="preprocessing" data-section-name="Pre-processing of vcf files" />
<rect x="255.0" y="115.0" width="10.0" height="13.0" rx="5.0" ry="5.0" fill="#ffffff" stroke="#333333" stroke-width="1.5" class="nf-metro-station" data-station-id="bcftools_filter" data-station-lines="germline,somatic" data-station-label="bcftools/filter" data-section-id="preprocessing" data-section-name="Pre-processing of vcf files" />
<rect x="434.5" y="115.0" width="10.0" height="10.0" rx="5.0" ry="5.0" fill="#ffffff" stroke="#333333" stroke-width="1.5" class="nf-metro-station" data-station-id="reformat_vcf" data-station-lines="somatic" data-station-label="Reformat VCF" data-section-id="format_files" data-section-name="Prepare files for PCGR" />
<rect x="548.5" y="115.0" width="10.0" height="10.0" rx="5.0" ry="5.0" fill="#ffffff" stroke="#333333" stroke-width="1.5" class="nf-metro-station" data-station-id="intersect" data-station-lines="somatic" data-station-label="Intersect VCF" data-section-id="format_files" data-section-name="Prepare files for PCGR" />
<rect x="608.5" y="155.0" width="10.0" height="10.0" rx="5.0" ry="5.0" fill="#ffffff" stroke="#333333" stroke-width="1.5" class="nf-metro-station" data-station-id="prepare_pcgr" data-station-lines="somatic" data-station-label="Prepare VCF" data-section-id="format_files" data-section-name="Prepare files for PCGR" />
<rect x="434.5" y="195.0" width="10.0" height="10.0" fill="#ffffff" stroke="#333333" stroke-width="1.5" class="nf-metro-station" data-station-id="cna_in" data-station-lines="somatic" data-station-label="cna_in" data-section-id="format_files" data-section-name="Prepare files for PCGR" />
<g data-station-id="cna_in">
<path d="M402.5,184.0 L420.5,184.0 L428.5,192.0 L428.5,214.0 Q428.5,216.0,426.5,216.0 L402.5,216.0 Q400.5,216.0,400.5,214.0 L400.5,186.0 Q400.5,184.0,402.5,184.0 Z" fill="#ffffff" stroke="#333333" stroke-width="1.5" stroke-linejoin="round" />
<path d="M420.5,184.0 L420.5,192.0 L428.5,192.0 Z" fill="#333333" opacity="0.15" stroke="none" />
<path d="M420.5,184.0 L420.5,192.0 L428.5,192.0" fill="none" stroke="#333333" stroke-width="0.8999999999999999" />
<text x="414.5" y="201.2" font-size="7.5" fill="#000000" font-family="'Helvetica Neue', Helvetica, Arial, sans-serif" font-weight="bold" text-anchor="middle" dy="0.3em">CNA</text>
</g>
<rect x="548.5" y="195.0" width="10.0" height="10.0" rx="5.0" ry="5.0" fill="#ffffff" stroke="#333333" stroke-width="1.5" class="nf-metro-station" data-station-id="reformat_cna" data-station-lines="somatic" data-station-label="Reformat CNA" data-section-id="format_files" data-section-name="Prepare files for PCGR" />
<rect x="123.0" y="351.0" width="10.0" height="10.0" rx="5.0" ry="5.0" fill="#ffffff" stroke="#333333" stroke-width="1.5" class="nf-metro-station" data-station-id="get_pcgr" data-station-lines="reference" data-station-label="PCGR DB" data-section-id="get_reference" data-section-name="Reference" />
<rect x="123.0" y="385.0" width="10.0" height="10.0" rx="5.0" ry="5.0" fill="#ffffff" stroke="#333333" stroke-width="1.5" class="nf-metro-station" data-station-id="get_vep" data-station-lines="reference" data-station-label="VEP Cache" data-section-id="get_reference" data-section-name="Reference" />
<rect x="794.5" y="115.0" width="10.0" height="13.0" rx="5.0" ry="5.0" fill="#ffffff" stroke="#333333" stroke-width="1.5" class="nf-metro-station" data-station-id="pcgr" data-station-lines="reference,somatic" data-station-label="PCGR" data-section-id="run_pcgr" data-section-name="PCGR" />
<rect x="854.5" y="115.0" width="10.0" height="10.0" fill="#ffffff" stroke="#333333" stroke-width="1.5" class="nf-metro-station" data-station-id="report_pcgr" data-station-lines="somatic" data-station-label="report_pcgr" data-section-id="run_pcgr" data-section-name="PCGR" />
<g data-station-id="report_pcgr">
<path d="M872.5,104.0 L890.5,104.0 L898.5,112.0 L898.5,134.0 Q898.5,136.0,896.5,136.0 L872.5,136.0 Q870.5,136.0,870.5,134.0 L870.5,106.0 Q870.5,104.0,872.5,104.0 Z" fill="#ffffff" stroke="#333333" stroke-width="1.5" stroke-linejoin="round" />
<path d="M890.5,104.0 L890.5,112.0 L898.5,112.0 Z" fill="#333333" opacity="0.15" stroke="none" />
<path d="M890.5,104.0 L890.5,112.0 L898.5,112.0" fill="none" stroke="#333333" stroke-width="0.8999999999999999" />
<text x="884.5" y="121.2" font-size="7.5" fill="#000000" font-family="'Helvetica Neue', Helvetica, Arial, sans-serif" font-weight="bold" text-anchor="middle" dy="0.3em">HTML</text>
</g>
<rect x="426.5" y="348.0" width="10.0" height="13.0" rx="5.0" ry="5.0" fill="#ffffff" stroke="#333333" stroke-width="1.5" class="nf-metro-station" data-station-id="cpsr" data-station-lines="germline,reference" data-station-label="CPSR" data-section-id="run_cpsr" data-section-name="CPSR" />
<rect x="486.5" y="348.0" width="10.0" height="10.0" fill="#ffffff" stroke="#333333" stroke-width="1.5" class="nf-metro-station" data-station-id="report_cpsr" data-station-lines="germline" data-station-label="report_cpsr" data-section-id="run_cpsr" data-section-name="CPSR" />
<g data-station-id="report_cpsr">
<path d="M504.5,337.0 L522.5,337.0 L530.5,345.0 L530.5,367.0 Q530.5,369.0,528.5,369.0 L504.5,369.0 Q502.5,369.0,502.5,367.0 L502.5,339.0 Q502.5,337.0,504.5,337.0 Z" fill="#ffffff" stroke="#333333" stroke-width="1.5" stroke-linejoin="round" />
<path d="M522.5,337.0 L522.5,345.0 L530.5,345.0 Z" fill="#333333" opacity="0.15" stroke="none" />
<path d="M522.5,337.0 L522.5,345.0 L530.5,345.0" fill="none" stroke="#333333" stroke-width="0.8999999999999999" />
<text x="516.5" y="354.2" font-size="7.5" fill="#000000" font-family="'Helvetica Neue', Helvetica, Arial, sans-serif" font-weight="bold" text-anchor="middle" dy="0.3em">HTML</text>
</g>
<text x="439.5" y="131.0" font-size="13.0" fill="#e0e0e0" font-family="'Helvetica Neue', Helvetica, Arial, sans-serif" font-weight="bold" text-anchor="middle" dominant-baseline="hanging" data-station-id="reformat_vcf" class="nf-metro-station-label">Reformat VCF</text>
<text x="799.5" y="134.0" font-size="13.0" fill="#e0e0e0" font-family="'Helvetica Neue', Helvetica, Arial, sans-serif" font-weight="bold" text-anchor="middle" dominant-baseline="hanging" data-station-id="pcgr" class="nf-metro-station-label">PCGR</text>
<text x="431.5" y="367.0" font-size="13.0" fill="#e0e0e0" font-family="'Helvetica Neue', Helvetica, Arial, sans-serif" font-weight="bold" text-anchor="middle" dominant-baseline="hanging" data-station-id="cpsr" class="nf-metro-station-label">CPSR</text>
<text x="128.0" y="342.0" font-size="13.0" fill="#e0e0e0" font-family="'Helvetica Neue', Helvetica, Arial, sans-serif" font-weight="bold" text-anchor="middle" dominant-baseline="auto" data-station-id="get_pcgr" class="nf-metro-station-label">PCGR DB</text>
<text x="128.0" y="401.0" font-size="13.0" fill="#e0e0e0" font-family="'Helvetica Neue', Helvetica, Arial, sans-serif" font-weight="bold" text-anchor="middle" dominant-baseline="hanging" data-station-id="get_vep" class="nf-metro-station-label">VEP Cache</text>
<text x="553.5" y="106.0" font-size="13.0" fill="#e0e0e0" font-family="'Helvetica Neue', Helvetica, Arial, sans-serif" font-weight="bold" text-anchor="middle" dominant-baseline="auto" data-station-id="intersect" class="nf-metro-station-label">Intersect VCF</text>
<text x="140.0" y="106.0" font-size="13.0" fill="#e0e0e0" font-family="'Helvetica Neue', Helvetica, Arial, sans-serif" font-weight="bold" text-anchor="middle" dominant-baseline="auto" data-station-id="tabix" class="nf-metro-station-label">tabix</text>
<text x="553.5" y="211.0" font-size="13.0" fill="#e0e0e0" font-family="'Helvetica Neue', Helvetica, Arial, sans-serif" font-weight="bold" text-anchor="middle" dominant-baseline="hanging" data-station-id="reformat_cna" class="nf-metro-station-label">Reformat CNA</text>
<text x="200.0" y="134.0" font-size="13.0" fill="#e0e0e0" font-family="'Helvetica Neue', Helvetica, Arial, sans-serif" font-weight="bold" text-anchor="middle" dominant-baseline="hanging" data-station-id="bcftools_norm" class="nf-metro-station-label">bcftools/norm</text>
<text x="613.5" y="171.0" font-size="13.0" fill="#e0e0e0" font-family="'Helvetica Neue', Helvetica, Arial, sans-serif" font-weight="bold" text-anchor="middle" dominant-baseline="hanging" data-station-id="prepare_pcgr" class="nf-metro-station-label">Prepare VCF</text>
<text x="260.0" y="106.0" font-size="13.0" fill="#e0e0e0" font-family="'Helvetica Neue', Helvetica, Arial, sans-serif" font-weight="bold" text-anchor="middle" dominant-baseline="auto" data-station-id="bcftools_filter" class="nf-metro-station-label">bcftools/filter</text>
<circle cx="493.5" cy="120.0" r="3.0" fill="rgba(255, 200, 50, 0.6)" />
<circle cx="523.5" cy="160.0" r="3.0" fill="rgba(255, 200, 50, 0.6)" />
<circle cx="573.5" cy="120.0" r="3.0" fill="rgba(255, 200, 50, 0.6)" />
<circle cx="603.5" cy="160.0" r="3.0" fill="rgba(255, 200, 50, 0.6)" />
<circle cx="151.0" cy="390.0" r="3.0" fill="rgba(255, 200, 50, 0.6)" />
<circle cx="181.0" cy="356.0" r="3.0" fill="rgba(255, 200, 50, 0.6)" />
<circle cx="654.5" cy="200.0" r="3.0" fill="rgba(255, 200, 50, 0.6)" />
<circle cx="684.5" cy="120.0" r="3.0" fill="rgba(255, 200, 50, 0.6)" />
<circle cx="654.5" cy="160.0" r="3.0" fill="rgba(255, 200, 50, 0.6)" />
<circle cx="684.5" cy="120.0" r="3.0" fill="rgba(255, 200, 50, 0.6)" />
<circle cx="216.0" cy="356.0" r="3.0" fill="rgba(255, 200, 50, 0.6)" />
<circle cx="216.0" cy="465.0" r="3.0" fill="rgba(255, 200, 50, 0.6)" />
<circle cx="737.5" cy="465.0" r="3.0" fill="rgba(255, 200, 50, 0.6)" />
<circle cx="737.5" cy="123.0" r="3.0" fill="rgba(255, 200, 50, 0.6)" />
<circle cx="354.5" cy="123.0" r="3.0" fill="rgba(255, 200, 50, 0.6)" />
<circle cx="354.5" cy="353.0" r="3.0" fill="rgba(255, 200, 50, 0.6)" />
<path d="M196.0,345.0 L201.0,350.0 L196.0,355.0 L191.0,350.0 Z" fill="rgba(80, 180, 255, 0.7)" stroke="none" />
<text x="196.0" y="342.0" font-size="7" fill="rgba(80, 180, 255, 0.7)" font-family="'Helvetica Neue', Helvetica, Arial, sans-serif" text-anchor="middle" dominant-baseline="auto">get_reference__exit_right_0 (right)</text>
<path d="M331.5,115.0 L336.5,120.0 L331.5,125.0 L326.5,120.0 Z" fill="rgba(80, 180, 255, 0.7)" stroke="none" />
<text x="331.5" y="112.0" font-size="7" fill="rgba(80, 180, 255, 0.7)" font-family="'Helvetica Neue', Helvetica, Arial, sans-serif" text-anchor="middle" dominant-baseline="auto">preprocessing__exit_right_1 (right)</text>
<path d="M699.5,115.0 L704.5,120.0 L699.5,125.0 L694.5,120.0 Z" fill="rgba(80, 180, 255, 0.7)" stroke="none" />
<text x="699.5" y="112.0" font-size="7" fill="rgba(80, 180, 255, 0.7)" font-family="'Helvetica Neue', Helvetica, Arial, sans-serif" text-anchor="middle" dominant-baseline="auto">format_files__exit_right_2 (right)</text>
<path d="M381.5,345.0 L386.5,350.0 L381.5,355.0 L376.5,350.0 Z" fill="rgba(255, 80, 80, 0.7)" stroke="none" />
<text x="381.5" y="342.0" font-size="7" fill="rgba(255, 80, 80, 0.7)" font-family="'Helvetica Neue', Helvetica, Arial, sans-serif" text-anchor="middle" dominant-baseline="auto">run_cpsr__entry_left_3 (left)</text>
<path d="M381.5,115.0 L386.5,120.0 L381.5,125.0 L376.5,120.0 Z" fill="rgba(255, 80, 80, 0.7)" stroke="none" />
<text x="381.5" y="112.0" font-size="7" fill="rgba(255, 80, 80, 0.7)" font-family="'Helvetica Neue', Helvetica, Arial, sans-serif" text-anchor="middle" dominant-baseline="auto">format_files__entry_left_4 (left)</text>
<path d="M749.5,115.0 L754.5,120.0 L749.5,125.0 L744.5,120.0 Z" fill="rgba(255, 80, 80, 0.7)" stroke="none" />
<text x="749.5" y="112.0" font-size="7" fill="rgba(255, 80, 80, 0.7)" font-family="'Helvetica Neue', Helvetica, Arial, sans-serif" text-anchor="middle" dominant-baseline="auto">run_pcgr__entry_left_5 (left)</text>
<path d="M206.0,345.0 L211.0,350.0 L206.0,355.0 L201.0,350.0 Z" fill="rgba(255, 80, 80, 0.7)" stroke="none" />
<text x="206.0" y="342.0" font-size="7" fill="rgba(255, 80, 80, 0.7)" font-family="'Helvetica Neue', Helvetica, Arial, sans-serif" text-anchor="middle" dominant-baseline="auto">__junction_6 (?)</text>
<path d="M341.5,115.0 L346.5,120.0 L341.5,125.0 L336.5,120.0 Z" fill="rgba(255, 80, 80, 0.7)" stroke="none" />
<text x="341.5" y="112.0" font-size="7" fill="rgba(255, 80, 80, 0.7)" font-family="'Helvetica Neue', Helvetica, Arial, sans-serif" text-anchor="middle" dominant-baseline="auto">__junction_7 (?)</text>
<path d="M356.5,50.0 L356.5,460.0" stroke="rgba(255, 255, 0, 0.5)" stroke-width="1" stroke-dasharray="6,4" />
<text x="356.5" y="46.0" font-size="7" fill="rgba(255, 255, 0, 0.5)" font-family="'Helvetica Neue', Helvetica, Arial, sans-serif" text-anchor="middle">col 0|1</text>
<path d="M724.5,50.0 L724.5,460.0" stroke="rgba(255, 255, 0, 0.5)" stroke-width="1" stroke-dasharray="6,4" />
<text x="724.5" y="46.0" font-size="7" fill="rgba(255, 255, 0, 0.5)" font-family="'Helvetica Neue', Helvetica, Arial, sans-serif" text-anchor="middle">col 1|2</text>
<path d="M2.0,275.0 L937.5,275.0" stroke="rgba(255, 255, 0, 0.5)" stroke-width="1" stroke-dasharray="6,4" />
<text x="-2.0" y="275.0" font-size="7" fill="rgba(255, 255, 0, 0.5)" font-family="'Helvetica Neue', Helvetica, Arial, sans-serif" text-anchor="end">row 0|1</text>
<path d="M12.0,120.0 L927.5,120.0" stroke="rgba(80, 255, 180, 0.5)" stroke-width="0.75" stroke-dasharray="4,6" />
<text x="8.0" y="120.0" font-size="7" fill="rgba(80, 255, 180, 0.5)" font-family="'Helvetica Neue', Helvetica, Arial, sans-serif" text-anchor="end">row 0 grid</text>
<path d="M12.0,160.0 L927.5,160.0" stroke="rgba(80, 255, 180, 0.5)" stroke-width="0.75" stroke-dasharray="4,6" />
<path d="M12.0,200.0 L927.5,200.0" stroke="rgba(80, 255, 180, 0.5)" stroke-width="0.75" stroke-dasharray="4,6" />
<path d="M50.0,350.0 L559.5,350.0" stroke="rgba(80, 255, 180, 0.5)" stroke-width="0.75" stroke-dasharray="4,6" />
<text x="46.0" y="350.0" font-size="7" fill="rgba(80, 255, 180, 0.5)" font-family="'Helvetica Neue', Helvetica, Arial, sans-serif" text-anchor="end">row 1 grid</text>
<path d="M50.0,390.0 L559.5,390.0" stroke="rgba(80, 255, 180, 0.5)" stroke-width="0.75" stroke-dasharray="4,6" />
<rect x="22.0" y="495.0" width="129.3" height="96.0" rx="6" ry="6" fill="rgba(0, 0, 0, 0.3)" />
<path d="M34.0,519.0 L58.0,519.0" stroke="#4CAF50" stroke-width="3.0" stroke-linecap="round" />
<text x="70.0" y="519.0" font-size="14.0" fill="#e0e0e0" font-family="'Helvetica Neue', Helvetica, Arial, sans-serif" dy="0.3em">Somatic</text>
<path d="M34.0,543.0 L58.0,543.0" stroke="#9923A0" stroke-width="3.0" stroke-linecap="round" />
<text x="70.0" y="543.0" font-size="14.0" fill="#e0e0e0" font-family="'Helvetica Neue', Helvetica, Arial, sans-serif" dy="0.3em">Germline</text>
<path d="M34.0,567.0 L58.0,567.0" stroke="#2196F3" stroke-width="3.0" stroke-linecap="round" />
<text x="70.0" y="567.0" font-size="14.0" fill="#e0e0e0" font-family="'Helvetica Neue', Helvetica, Arial, sans-serif" dy="0.3em">Reference</text>
<text x="947.0" y="607.0" font-size="8" fill="rgba(150, 150, 150, 0.6)" font-family="'Helvetica Neue', Helvetica, Arial, sans-serif" text-anchor="end">created with nf-metro v0.7.0+dev</text>
</svg>